<svg xmlns="http://www.w3.org/2000/svg" viewBox="0 0 150.65 46.36"><g data-name="Layer 2"><g data-name="Layer 1"><path d="M10.23 5.9C5.2 17.94 2.3 31 .06 43.82l3.1.42a92.1 92.1 0 015-22.1 86.53 86.53 0 014.49-10.32c.88-1.7 1.8-3.37 2.78-5 .76-1.27 1.61-3 3.09-3.58l-2-1.14c2.58 6.53 2.12 13.9 2.26 20.78L19 34a98.7 98.7 0 00.49 11.28c.25 1.75 2.75 1.13 2.89-.39a98.39 98.39 0 00-.09-11.39L22 22.13c-.18-6.93.21-14.33-2.37-20.9a1.64 1.64 0 00-2-1.14c-3.55 1.37-5.3 5.37-7 8.52A94.55 94.55 0 005.48 20 91.05 91.05 0 000 44.24c-.16 1.75 2.8 2.17 3.09.41Q4.68 34.95 7 25.39c1.55-6.37 3.38-12.66 5-19 .3-1.18-1.34-1.55-1.78-.49z"/><path d="M4.25 29a18.25 18.25 0 015.12-1.54 18.94 18.94 0 012.43-.21h1.33c.44 0 1-.13 1.51-.17a1.24 1.24 0 00.36-2.41 10.64 10.64 0 00-1.43-.43 7.78 7.78 0 00-1.74 0 17.23 17.23 0 00-3.11.42 17.59 17.59 0 00-5.58 2.44A1.1 1.1 0 004.25 29zM27.59 5.14h.13a1.23 1.23 0 001.35-.55 1.49 1.49 0 00-1.38-2.3c-1.57.18-1.55 2.12-1.63 3.29-.25 4-.32 8.08-.39 12.12-.15 8.08-.05 16.17.06 24.24a1.91 1.91 0 003.74.51 77.26 77.26 0 013.64-10.55c.29-.67 1-2.73 1.88-2.72.43 0 1.15 1 1.37 1.32a11.59 11.59 0 011.15 1.87c1 2.14 1.4 5.38-.76 7-1.43 1.07-4 1.45-5.38.18A1.53 1.53 0 0029 41.4c1.49 2.71 4.61 3.5 7.46 2.62a8.13 8.13 0 005.72-6.64 12.65 12.65 0 00-3.28-9.93 5.08 5.08 0 00-4.6-2.11 5.67 5.67 0 00-3.79 3.05 40.09 40.09 0 00-2.62 6.27 70.23 70.23 0 00-2.06 6.81l3.74.5q-.27-9.51-.4-19-.06-4.71-.14-9.4c0-1.57 0-3.14-.08-4.7 0-.83-.06-1.65-.09-2.48v-1c0-.25 0-.49-.05-.74s-.05-.34-.27 0l-.95.12h.16L27 4.18V3.4l1.35-.55h-.13c-1.47-.21-2.17 1.93-.63 2.31z"/><path d="M41.24 33.68a2.64 2.64 0 01.7.18 1.7 1.7 0 01.44.3 5.06 5.06 0 011 1.39c.65 1.19 1.11 2.48 1.86 3.6a7.49 7.49 0 0013.58-4.6 8.57 8.57 0 00-5.7-7.9 9.16 9.16 0 00-5.74 0A8.82 8.82 0 0044.82 28a8.5 8.5 0 00-1.16 1 3.18 3.18 0 00-.66 2.1 1.68 1.68 0 002.1 1.6c.51-.13-.39 0 .08 0a2.6 2.6 0 001.08-.29 5.38 5.38 0 00.65-.53c.28-.23-.41.25.11-.07.24-.15.48-.31.74-.44.1-.05.5-.24.09-.06q.27-.12.54-.21a8.22 8.22 0 01.93-.28l.38-.07c-.52.1.08 0 .18 0a6.17 6.17 0 01.86 0c.13 0 .56.05.08 0l.56.11a5.76 5.76 0 01.92.28c-.43-.17.3.17.42.24l.38.26c-.34-.24-.09-.07 0 0s.27.24.4.38.41.49.12.12a5.1 5.1 0 01.45.69c.07.12.37.82.22.4.1.28.2.57.28.87 0 .14.07.29.1.44a2.56 2.56 0 01.05.27c0-.25 0-.26 0 0v.82c0 .12-.1.49 0 .08 0 .12 0 .24-.07.35s-.09.29-.13.44-.18.45 0 .1a4.64 4.64 0 01-.49.87c-.18.25.31-.28-.08.08-.08.08-.16.17-.25.25l-.38.35c.08-.07.24-.15-.05 0a7.08 7.08 0 01-.77.41c.09 0 .27-.08-.05 0l-.51.15a3 3 0 01-.52.11h-1a4.64 4.64 0 01-.51-.11l-.33-.09s-.49-.2-.24-.09a2.88 2.88 0 01-1.19-.87 8.16 8.16 0 01-.85-1.22c-1.43-2.39-2.49-5.11-5.61-5.48-1.58-.18-2 2.56-.38 2.79zm20.23-5.57a15.16 15.16 0 001.32 15.59 5.73 5.73 0 003.62 2.39 5.07 5.07 0 004-1.17c2.13-1.72 3.09-4.58 3.59-7.19a18.86 18.86 0 00-.82-10.9 1.93 1.93 0 00-2.43-.8 2 2 0 00-1.14 2.3 39.18 39.18 0 01.62 4.44 20.2 20.2 0 01-.28 4.46A11 11 0 0168.69 41a3.81 3.81 0 01-1 1.2 1.54 1.54 0 01-.68.28c-.81 0-1.53-1-2-1.78a12.45 12.45 0 01-1.53-3.7 14.42 14.42 0 01.42-7.89 1.34 1.34 0 00-2.43-1zM83.79 8.05L84 5.48h-3.1c.12 3.11.69 6.23 1.06 9.32s.83 6.38 1.26 9.57.86 6.24 1.3 9.35.64 6.5 1.63 9.5a1.69 1.69 0 003.3-.45c.1-3.08-.64-6.3-1.08-9.35s-.91-6.37-1.4-9.56-.91-6.2-1.43-9.3-.86-6.39-1.64-9.49c-.43-1.72-2.92-1.28-3 .41l-.12 2.57c-.09 1.95 2.89 1.93 3 0z"/><path d="M79.25 29.38A2 2 0 0178 27.22l-1.61 1.61c2.7.21 5.43.24 8.14.23A26.38 26.38 0 0088.7 29a37.29 37.29 0 014-.35 1.48 1.48 0 000-2.95l-2.08-.1c-.72 0-1.37-.16-2.07-.24a33.2 33.2 0 00-4 0c-2.71 0-5.44.05-8.14.29a1.63 1.63 0 00-1.61 1.6 5.61 5.61 0 003 4.66 1.5 1.5 0 002-.52 1.46 1.46 0 00-.52-2zm33.97 13.73a11.53 11.53 0 01-.3-4.64 9.48 9.48 0 01.52-2.13c.1-.24.3-.45.4-.68.29-.69.2 0 .07-.16a1.79 1.79 0 01-.39-.13q.21.24 0 0l.19.3c.23.43.42.88.65 1.31a3.68 3.68 0 003.07 2.12 1.89 1.89 0 001.69-1c.89-1.89 1.75-3.79 2.61-5.69a21.15 21.15 0 011-2.16s-.9.31-.85.15a2.65 2.65 0 01.39.28c.32.27.62.58.92.88a17.61 17.61 0 012.73 3.8 17.93 17.93 0 01.94 2.1 11.75 11.75 0 00.54 1.39c.21.41.49.74.69 1.16.69 1.44 2.76.62 2.83-.77a8 8 0 000-1.89 9.43 9.43 0 00-.43-1.49 19.82 19.82 0 00-1.36-3 18.49 18.49 0 00-4.13-5.1 4.11 4.11 0 00-3.73-1.2 3.88 3.88 0 00-2.27 2.25c-1.12 2.43-2.17 4.89-3.22 7.35l1.69-1a1 1 0 01.47.18c.18.11-.13-.23.07.1-.14-.23-.28-.44-.4-.68a10.93 10.93 0 00-.84-1.49 3.46 3.46 0 00-5.06-.8c-1.63 1.27-2.14 3.37-2.37 5.32a13.26 13.26 0 00.8 6.14c.7 1.9 3.66 1.16 3.09-.85zm23.13-4.58a12.22 12.22 0 004.19-2.68 5.43 5.43 0 001.28-4.77 4.28 4.28 0 00-3.38-3.41 5.91 5.91 0 00-5.06 1.86 8.88 8.88 0 00-2 8.09 9 9 0 005.5 6.55 10.49 10.49 0 005.29.65 10.88 10.88 0 002.76-.65c.52-.21 1-.43 1.53-.69a3.53 3.53 0 001.34-1.29l-.62.62a13.55 13.55 0 003-2.71 1.59 1.59 0 000-2.18 1.56 1.56 0 00-2.18 0 10 10 0 01-2.6 1.9l.87-.23a4.09 4.09 0 00-1.5.3l-.35.17c.3-.14-.08 0-.15 0a15.8 15.8 0 01-1.74.53c-.31.07-.62.13-.94.17.41-.05-.36 0-.49 0a7.85 7.85 0 01-.84 0h-.37c-.24 0-.25 0 0 0h-.28a8 8 0 01-.81-.2l-.35-.11s-.54-.21-.28-.1-.29-.15-.27-.14a2.68 2.68 0 01-.33-.18l-.36-.22c-.37-.22 0 0-.08 0s-.35-.3-.51-.47-.49-.57-.34-.37-.22-.32-.28-.43-.28-.5-.41-.75-.17-.44 0 0c0-.1-.08-.2-.11-.29-.08-.25-.16-.5-.22-.75s-.09-.4-.13-.61c-.09-.48 0 .3 0 0a3.55 3.55 0 000-.46v-.69a2.43 2.43 0 000-.38c0-.29-.1.47 0 0 0-.2.07-.4.12-.59s.07-.24.1-.35.25-.62 0-.15c.08-.18.17-.36.26-.53s.51-.71.19-.32c.14-.17.28-.33.44-.49l.28-.24c-.25.21-.07.05.09 0a2.11 2.11 0 011.26-.46h.11c.39 0-.12-.08 0 0s-.26-.31 0 0c.07.07.31.41.11.1l.16.26c.2.33 0-.21.06.17 0 .13.07.26.1.39s0 .11 0 0a1.93 1.93 0 010 .24v.41c0-.28 0 .13-.05.2a2 2 0 01-.27.62 7.08 7.08 0 01-3.15 2.54 1.28 1.28 0 00-.46 1.72 1.3 1.3 0 001.73.45z"/></g></g></svg>