<svg xmlns="http://www.w3.org/2000/svg" viewBox="0 0 157.04 37.38"><g data-name="Layer 2"><g data-name="Layer 1"><path d="M4.15 10.72c1.36 2.13 3.7-1.4 1.51-2.16-2.81-1-2.78 4.62-3 6C1.72 21.66.9 28.74 0 35.81h3.27a84.43 84.43 0 012.51-14.37c.59-2.2 1.28-4.38 2.06-6.52a35.57 35.57 0 012.77-6.54c.17-.28.47-.81.81-.92 0-.07-.07-.1-.17-.09a2 2 0 01.26.52 30.05 30.05 0 011.06 3.5c.65 2.27 1.23 4.57 1.74 6.88 1.1 4.93 1.87 9.94 2.51 14.94.25 2 3.37 2.14 3.25 0a94 94 0 00-1.83-13.57c-.48-2.32-1-4.62-1.64-6.91a47.81 47.81 0 00-1.92-6.31 3.53 3.53 0 00-4.33-2.3c-1.86.6-2.82 2.52-3.55 4.2a81.44 81.44 0 00-4.44 12.65A77.64 77.64 0 000 35.81c-.12 2.12 3.08 2.06 3.27 0 .42-4.34.83-8.67 1.26-13q.32-3.18.61-6.38c.11-1.06.2-2.12.29-3.19 0-.49.08-1 .11-1.47 0-.33 0-.65.07-1s0-.39-.54-.06l-.67-.52.08-.68.78-.33h-.1l1 .54L6 9.63c-.81-1.1-2.64-.11-1.87 1.09z"/><path d="M6.58 24.58c.15 0 .15 0 0 0 .13.06.13.05 0 0 .23.27-.27-.31 0 0-.29-.39 0 0-.09 0v-.26c0 .18 0 .18 0 0l-1.49 1a75.17 75.17 0 009.81-1 1.58 1.58 0 00-.42-3.09 76.39 76.39 0 00-9.77 1.29 1.46 1.46 0 00-1.06 1.38 3 3 0 00.26 1.31c-.14-.36.15.36.2.44a2.85 2.85 0 00.38.53 3.1 3.1 0 002.15 1A1.33 1.33 0 007.9 25.9a1.36 1.36 0 00-1.32-1.32zM29.09 8.32a4.07 4.07 0 00.08-4.13 1.56 1.56 0 00-2.88.78c-.19 7.47-.17 15-.36 22.43-.05 2 3.2 2.56 3.62.49s.89-5.32 3.17-6.34 3.25 1.38 3 3.38a7.86 7.86 0 01-3.19 5.17 10.45 10.45 0 01-3 1.57c-1.23.4-2.45.38-3.47 1.25a1.41 1.41 0 000 2c1.45 1.22 3.49.77 5.16.19a13.19 13.19 0 004.7-2.79 10.92 10.92 0 003.61-9.09c-.48-3.88-3.65-6.72-7.64-5.38s-5.22 5.36-5.89 9.08l3.62.49c0-7.47.07-15-.24-22.43l-2.88.78a1 1 0 010 1.08 1.489 1.489 0 002.59 1.47z"/><path d="M34 27.32c2.56 1.84 4.94 4.18 7.92 5.32a8.9 8.9 0 008-.75 6.09 6.09 0 002.43-7.7 7.19 7.19 0 00-7.82-3.66 8.28 8.28 0 00-4.51 2.6 9.78 9.78 0 00-1.59 2.29 4.22 4.22 0 00-.65 3.08 1.71 1.71 0 002.49 1c1-.6 1.55-2.05 2.18-2.78a5.71 5.71 0 012.42-1.86c-.2.07.39-.11.48-.13l.32-.07h.76l.41.09.41.13c.06 0 .35.17.07 0 .19.1.38.2.56.31a4 4 0 01.34.23s-.19-.17 0 0l.29.29c.24.23-.12-.21.06.06.05.07.35.58.23.32.06.13.18.6.17.52s0 .39 0 .52c0-.34-.07.26-.11.39s-.14.33 0 .06c0 .08-.08.16-.13.24s-.37.52-.19.31a6.42 6.42 0 01-.87.81 5.57 5.57 0 01-5.17.53c-2.72-.93-4.87-2.85-7.21-4.44-1.38-.88-2.63 1.34-1.29 2.29zm24.34-2.73c0-.25 0 0-.08.14.16-.07 0 0 0 0l.27-.07s-.18 0 0 0-.19 0 0 0 0-.08.09 0a3.39 3.39 0 01.23.25 3.88 3.88 0 01.5 1.05c.66 1.84 1.35 3.69 3.36 4.41a4.31 4.31 0 004.8-1.83 10.57 10.57 0 001.78-4.55c.21-1.22.39-2.45.57-3.68.11-.74.2-1.49.28-2.25a8.63 8.63 0 00-.14-2 1.58 1.58 0 00-1.1-1.44 1.5 1.5 0 00-1.7.69c-.23.49-.49 1-.69 1.48a10.59 10.59 0 00-.44 1.93c-.19 1.1-.35 2.2-.52 3.3a24.78 24.78 0 01-.48 2.71c-.06.18-.12.37-.19.56s-.2.45-.05.15c-.18.36-.41.7-.59 1.05-.09.19 0-.06.07-.08s-.48.58-.24.31-.19.17-.23.23.27-.2.1-.09-.13.07-.17.11c.22-.2.24-.05.07 0s0 0 .09 0a1.22 1.22 0 00-.27 0s.31.09.13 0l-.22-.05c.08 0 .23.14-.05 0s0 .06-.18-.15c0 0-.18-.2-.09-.09s-.15-.22-.17-.26c-1-1.53-1.29-3.39-3.06-4.27s-4.58.05-4.51 2.38c.06 1.8 2.84 1.81 2.81 0zm20.6-18.7c.45-1.34.89-2.68 1.37-4l-3-.4a63.93 63.93 0 00.89 7.83c.33 2.53.65 5.06 1 7.58.72 5.12 1.34 10.26 2.39 15.32.38 1.84 3.47 1.46 3.31-.45-.42-5.15-1.28-10.26-2-15.38-.37-2.51-.78-5-1.18-7.54a64.8 64.8 0 00-1.38-7.73 1.52 1.52 0 00-2.91 0c-.42 1.34-.88 2.68-1.33 4-.6 1.83 2.26 2.59 2.87.79z"/><path d="M79.51 24.6l-1.73-2.4a29.19 29.19 0 01-1.67-2.44l-1.39 2.43c1.8-.08 3.6-.2 5.39-.37l2.69-.25a5.48 5.48 0 001.5-.25c.45-.16.9-.29 1.37-.42a1.42 1.42 0 00-.38-2.79c-.45 0-.79-.06-1.19-.12a5.38 5.38 0 00-1.5 0l-2.7.33q-2.81.3-5.61.74c-1.27.2-1.45 1.9-.71 2.7a22.65 22.65 0 011.62 2.11l1.68 2.31a1.57 1.57 0 002.09.54 1.52 1.52 0 00.54-2.08zm34.81 4.6v-.13l.2-.73a9.88 9.88 0 011.11-.51l-.17-.1.26.31a5.37 5.37 0 01-.35-1.41 10.78 10.78 0 01-.14-2.66 11.12 11.12 0 011.54-5l-2.32.61a7.88 7.88 0 013.8 3.84c.6 1.3 2.43 1 3.1 0 1.09-1.67 1.13-3.61 1.84-5.41a3.09 3.09 0 011.08-1.48c.49-.31.88-.08 1.3.26a20.37 20.37 0 013.61 4.24c1.14 1.62 2.28 3.28 3.33 5 .83 1.33 3.12.49 2.61-1.1a22.41 22.41 0 00-3.29-6.61c-1.34-1.86-3-4.22-5.11-5.23-2.42-1.13-4.85 0-6.24 2.13-1.29 1.95-1.14 4.39-2.24 6.39h3.1a11.48 11.48 0 00-5.19-5 1.73 1.73 0 00-2.31.61 14.43 14.43 0 00-1.5 10c.31 1.43.8 2.8 2.32 3.27s3-.55 2.44-2.13c-.62-1.74-3.38-1-2.78.77zm25.29-6.97c2.15.31 4.36.72 6.41-.26a5.25 5.25 0 003.09-4.51c0-3.54-3.79-5.07-6.83-4.58-3.26.52-5.42 3.56-5.85 6.68a8.59 8.59 0 003.72 8.56 10.25 10.25 0 006.39 1.34 12.36 12.36 0 003.22-.75 6.54 6.54 0 003.36-2.18l-.61.61a48.11 48.11 0 004.05-2.9c1.35-1.05-.4-3.29-1.83-2.37a43.28 43.28 0 01-3.93 2.34l.86-.23a6.34 6.34 0 00-2.33.69 14.16 14.16 0 01-2.1.65 7.79 7.79 0 01-3.56 0 5.16 5.16 0 01-1.63-.7l-.24-.17c.16.14-.13-.11-.16-.15a5.49 5.49 0 01-.57-.61c.19.25-.16-.25-.22-.36s-.14-.27-.21-.41.08.25 0 0a6.28 6.28 0 01-.4-1.53c0 .34 0 0 0 0v-1.23c0-.25-.05.27 0 0 0-.13.05-.25.08-.37.06-.28.14-.54.22-.81.18-.56-.09.17 0-.15.05-.11.11-.22.17-.33a5 5 0 01.38-.63c.17-.26-.16.18 0-.06l.25-.27c.06-.07.59-.52.39-.38a3.61 3.61 0 01.36-.23s.37-.19.16-.09.41-.13.52-.16l.34-.07c.3-.06-.27 0 0 0a8.42 8.42 0 01.87 0c.3 0-.27-.06 0 0l.33.07.33.09c.05 0 .36.15.16.06s.1.05.14.08l.27.17c.22.16-.23-.15 0 0a1.21 1.21 0 01.16.16c-.1-.15-.12-.17 0-.06s.19.32.09.12.06.18.07.23c.09.33 0 .09 0 0v.41a2.1 2.1 0 01-.89 1.17c-1.35.94-3.2.83-4.76.73-1.38-.09-1.74 2.25-.33 2.46z"/></g></g></svg>