<svg xmlns="http://www.w3.org/2000/svg" viewBox="0 0 136.12 33.25"><g data-name="Layer 2"><g data-name="Layer 1"><path d="M11.65 5l.86-1.95-.66-.27A169.18 169.18 0 013.2 26.14Q1.72 29.37.08 32.52l.92.38A182.53 182.53 0 0112.6 9.25c1.27-2.16 2.59-4.3 3.94-6.41l-.92-.12c2.8 8.65 2.75 17.8 2.77 26.79a.48.48 0 00.95 0c.11-9.06.08-18.35-2.75-27.06a.51.51 0 00-.92-.12A183.26 183.26 0 003 25.71q-1.56 3.44-3 6.93c-.2.51.64.86.89.37A151.94 151.94 0 0010.52 9.9c.73-2.29 1.41-4.6 2-6.93.13-.46-.52-.61-.69-.19l-.79 1.87c-.17.4.41.76.59.35z"/><path d="M5.59 28.36a4 4 0 011.81-4.25 11.92 11.92 0 015.49-1.51c.56-.06.56-.94 0-.88-2.13.23-4.45.48-6.2 1.83a4.74 4.74 0 00-1.91 5c.16.52 1 .3.81-.22zM28.73 4.82V.42h-.88c0 5.05-.12 10.1-.14 15.15s0 10.1 0 15.15a.6.6 0 001.17.16 49.9 49.9 0 012.69-6.19c.67-1.29 1.66-3.88 3.53-3.49a2.85 2.85 0 012 3.58c-.54 1.66-2.29 2.65-3.84 3.2-.49.17-.46 1.05.13 1a6 6 0 004.19-2.4 4.11 4.11 0 00.4-4.47 3.77 3.77 0 00-3.76-2c-1.82.34-2.71 2.28-3.49 3.74a53 53 0 00-3 6.78l1.17.16V15.64c0-5.05-.16-10.17-.16-15.22a.44.44 0 00-.88 0v4.4a.44.44 0 00.87 0zM40.9 23.26a13.14 13.14 0 005 2.13 4.23 4.23 0 004.37-1.74 4.22 4.22 0 00-.15-4.3 3.59 3.59 0 00-4.25-1.52 4.58 4.58 0 00-2.26 1.81 4 4 0 00-.54 1.36 2.09 2.09 0 00.22 1.53.54.54 0 001-.13 5 5 0 01.46-1.86 3.12 3.12 0 011.36-1.26 2.21 2.21 0 012.83.71 3 3 0 01.31 3A3.21 3.21 0 0146 24.42a10.75 10.75 0 01-4.65-1.88c-.45-.3-.87.43-.42.72zm14.59-1.83c.41-.35.82-.72 1.26-1l-.75-.36a4.46 4.46 0 004.34 3.48 4.21 4.21 0 004.09-3.68 4.47 4.47 0 000-1.71c-.12-.52-.39-1.31-.92-1.53a.6.6 0 00-.89.51 11.31 11.31 0 00.38 1.45 3.25 3.25 0 01-.05 1.28A3.13 3.13 0 0161.41 22c-1.74 1-4-.38-4.42-2.18a.54.54 0 00-.89-.23c-.43.4-.9.77-1.35 1.15s.23 1.15.74.73zm17-10.85a18.86 18.86 0 001-8.59c-.08-.67-1.08-.71-1.08 0 0 3.46.16 6.92.4 10.37.11 1.68.25 3.37.4 5.05.07.86.16 1.72.25 2.58a10.35 10.35 0 00.38 2.61c.18.46 1 .63 1.11 0a9.93 9.93 0 00-.15-2.49l-.24-2.58c-.17-1.72-.31-3.45-.44-5.17-.26-3.46-.44-6.91-.64-10.36H72.4a17.67 17.67 0 01-.92 8.31c-.23.64.78.91 1 .28z"/><path d="M67.33 16.58h-.27c.07 0 0 0 0 0h-.18c.1 0-.09-.05-.12-.06s-.15-.12-.07-.05l-.15-.14-.09-.1s-.07-.11-.09-.15a1.74 1.74 0 01-.1-.19c0-.06 0 0 0 0a.49.49 0 010-.11 3.74 3.74 0 01-.12-.45.5.5 0 010-.12s0 .08 0 0S66 15 66 15a2.57 2.57 0 010-.48v-.15a1.46 1.46 0 01.05-.2 1.24 1.24 0 01.13-.36 1.58 1.58 0 01.55-.66 4 4 0 012.27-.8 10.43 10.43 0 011.58 0 8 8 0 001.62.07.53.53 0 00.12-1 5.12 5.12 0 00-1.7-.31 9.27 9.27 0 00-1.58 0 5.42 5.42 0 00-3 1.07 3.52 3.52 0 00-.77 4.34 2.24 2.24 0 002.08 1.21c.75 0 .76-1.21 0-1.17zM102.6 25l-1.42 1.84.74-.2c-2.35-1.37-2.17-5.37.22-6.59l-.82-.21a14.67 14.67 0 003.42 4.4.63.63 0 001.06-.44 3.93 3.93 0 013.8-3.65 4 4 0 013.74 3.75.59.59 0 001.18 0 5.11 5.11 0 00-4.92-5 5.17 5.17 0 00-5 4.93l1.06-.43a13.39 13.39 0 01-3.26-4.14.62.62 0 00-.82-.21c-3.19 1.65-3.25 6.78-.17 8.55a.56.56 0 00.74-.19l1.4-1.85c.42-.54-.5-1.07-.91-.53zm16.3-2.1c1.25-.63 2.51-1.24 3.77-1.86.84-.41 2-1 2-2.06s-1-1.65-1.94-1.69a3.1 3.1 0 00-2.43 1.12 3.71 3.71 0 00.73 5.26c1.93 1.64 4.57 1.46 6.91 1a23.37 23.37 0 007.93-3.13.49.49 0 00-.5-.85 30.11 30.11 0 01-6.82 2.42c-2.08.45-4.79 1-6.58-.53a2.68 2.68 0 01-1.06-2.35 2 2 0 011.67-1.57c.4 0 1 .11.66.59a3.85 3.85 0 01-1.37.94c-1.15.63-2.3 1.28-3.46 1.9-.52.29-.06 1.06.47.8z"/></g></g></svg>