<svg xmlns="http://www.w3.org/2000/svg" viewBox="0 0 114.42 33.91"><g data-name="Layer 2"><g data-name="Layer 1"><path d="M27.31 6.11a19.46 19.46 0 00-13.59-2.9 16.3 16.3 0 00-11.07 7.28A15.94 15.94 0 00.48 23.07a15 15 0 008.79 9.8 13.72 13.72 0 0014.94-2.95c1-1.05-.34-3-1.62-2.1a13.46 13.46 0 01-10.85 2.2 11.51 11.51 0 01-7.65-6.86c-2.62-6.92 2.14-14.63 9-16.56a16.91 16.91 0 0113 1.66 1.25 1.25 0 001.26-2.15z"/><path d="M30.28 27.35A5.53 5.53 0 0034 32.63a5.1 5.1 0 006-2.22 5.62 5.62 0 00-.44-6.65 8.29 8.29 0 00-3.25-2.19 13.15 13.15 0 00-4.46-1.17c-3.16-.17-6.72 2-6.53 5.53a1.83 1.83 0 001.8 1.8 1.85 1.85 0 001.81-1.8c0 .4.07-.18.09-.29s-.14.26 0 .1.1-.19.16-.28l.17-.26c.06-.09 0 .06-.06.08l.22-.24s.38-.31.17-.16.27-.16.35-.21l.29-.15c.1-.06.31-.09 0 0 .19-.05.37-.12.56-.16 0 0 .46-.07.25-.05s.36 0 .35 0h1.14a12.81 12.81 0 011.62.41l.73.25.33.12s.28.12.11 0 .14.07.18.09l.24.11a6.71 6.71 0 01.68.4s.33.23.17.11l.09.07a5.66 5.66 0 01.49.49c-.16-.19.09.15.12.21s.16.31.07.1 0 .13 0 .18.06.31.11.46 0-.28 0 0a2.44 2.44 0 000 .27v.48c0 .16-.07.29 0 0 0 .11 0 .22-.08.34a4 4 0 01-.16.45c.13-.29-.11.19-.15.25a3.45 3.45 0 01-.25.41c-.09.13 0 0 0 0a4.11 4.11 0 01-.29.3s-.17.14-.06.06-.11.07-.14.08-.42.23-.22.14a2 2 0 01-1 .23 3 3 0 01-2.79-3c.07-1.38-2.05-1.36-2.14 0zm18.37-1.13a1.62 1.62 0 00-1.33 2.49 1.74 1.74 0 003 0 5.1 5.1 0 00.65-3.12v-2.66s.05-.39 0-.25q.06-.32.15-.63a2.09 2.09 0 01.08-.23c-.11.28 0 0 0 0a4.62 4.62 0 01.35-.55c-.17.23.18-.17.26-.25s.26-.21 0 0l.2-.13.27-.14c.17-.11-.06 0-.09 0l.29-.08c-.06 0-.4.05-.05 0 .13 0 .27.08 0 0 .09 0 .19 0 .29.08-.32-.12 0 0 0 0s-.24-.24 0 0l.19.18.13.15c-.11-.14.06.09.07.09l.19.29c.16.25.31.5.46.75a25.3 25.3 0 011.39 2.61v.09l.18.45c.09.25.18.49.26.73.18.53.33 1.06.49 1.59s.31 1.05.43 1.59c.06.25.09.51.17.75a2.14 2.14 0 00.45.79 4.35 4.35 0 00.35.31 1.41 1.41 0 002.22-.3c-.11.17-.15.34.19-.24a2.22 2.22 0 00.2-.48 2.14 2.14 0 00.06-.94c-.07-.55-.14-1.09-.24-1.63a16.13 16.13 0 00-.75-2.71 22.46 22.46 0 00-2.62-5.2c-1.17-1.69-2.93-3.1-5.12-2.42a5.66 5.66 0 00-3.64 4.08 11 11 0 00-.12 3.54c0 .54.1 1.09.12 1.64v1.05c0 .33.07-.16 0 .13l.36-.62.86-.2.62.35a1.15 1.15 0 01.08 1.18l-.49.5-.7.19h.09a1.38 1.38 0 000-2.76zM63.28 9.58l.23-4.06H60.7c.48 4.18 1.17 8.35 1.86 12.51s1.22 8.41 2.29 12.51c.44 1.65 3.23 1.38 3.07-.42-.36-4.2-1.27-8.36-2-12.51s-1.5-8.35-2.46-12.47a1.41 1.41 0 00-2.76.38l-.05 4.06c0 1.7 2.53 1.67 2.63 0z"/><path d="M61.82 17.74a18.65 18.65 0 01-.54-2.44l-1.72 1.3a43.2 43.2 0 006.23.2 16.47 16.47 0 003.21-.07 21.27 21.27 0 012.88-.27 1.23 1.23 0 000-2.45 19.85 19.85 0 01-2.88-.19 16.48 16.48 0 00-3.22-.05 46.24 46.24 0 00-6.23.26 1.36 1.36 0 00-.94 1.67 21.47 21.47 0 01.75 2.75 1.27 1.27 0 002.45-.67zM81.11 16h.12a1.55 1.55 0 00-.8 0l-.28.08c-.24.07-.47.15-.7.24-.54.23-1.07.46-1.59.74a14.37 14.37 0 00-2.56 1.76 9.92 9.92 0 00-3.46 5.1 4.59 4.59 0 00.49 3.46 4 4 0 002.56 1.76 5.68 5.68 0 005.29-2.09c1.59-2 1.67-4.58 2.56-6.88H79.1a76.7 76.7 0 002.57 7.33 1.82 1.82 0 002.27.74 1.84 1.84 0 001-2.14 71 71 0 00-2.25-6.94 1.93 1.93 0 00-1.77-1.34 2 2 0 00-1.82 1.38 22.06 22.06 0 00-.69 2.5c-.09.41-.18.82-.29 1.22l-.18.6c0 .1-.07.2-.1.29s-.12.3 0 .07l-.55 1s.31-.34.07-.1l-.16.17-.17.17c-.07.06-.33.18-.09.08s0 0-.06 0l-.2.13-.21.11c-.18.1-.17 0 0 0h.11l-.16.06-.17.06-.22.06h.05a1.31 1.31 0 00-.44 0c-.21 0 0-.12.17 0a1.91 1.91 0 00-.21 0s-.16-.07-.19-.07.37.22.14.05l-.17-.11c.11 0 .28.29.07 0s.06.2 0-.09 0 .08 0 .08l-.07-.25c-.11-.32 0 .06 0 .1a2.54 2.54 0 000-.26 1.26 1.26 0 010-.27v.15a1.55 1.55 0 010-.21 5.26 5.26 0 01.15-.53c0-.09.07-.18.1-.26s-.16.32 0 0a10.11 10.11 0 01.57-1c.05-.08.4-.53.17-.25l.38-.46c.3-.33.61-.66.93-1 .15-.14.29-.27.45-.4l.22-.19.13-.1c.15-.12.31-.23.46-.36s-.08.05.07-.06.36-.26.55-.38a15.9 15.9 0 002.59-1.53 1.37 1.37 0 00.28-1.5 1.4 1.4 0 00-1.25-.84zm11.75 3.45c.71-1.4 1.41-2.81 2.19-4.17a1.44 1.44 0 00-.85-2.09 6.09 6.09 0 00-4.73 1.08 8 8 0 00-3 4.19c-1.08 3.62.85 7.18 3.87 9.15A9.22 9.22 0 0093 28.82a7.91 7.91 0 003 .33 1.75 1.75 0 001.68-1.49 1.7 1.7 0 00-1.21-1.84l-1-.13c.33.05-.23-.05-.24-.05a10.52 10.52 0 01-1.23-.39l-.5-.2c-.21-.08-.23-.09-.06 0l-.33-.15a9 9 0 01-1.08-.64c-.06 0-.45-.35-.2-.14-.16-.13-.31-.27-.46-.41s-.29-.29-.43-.44-.33-.43-.15-.18a10.06 10.06 0 01-.63-1.05c-.1-.19-.11-.21 0 0a1.86 1.86 0 01-.1-.25 4 4 0 01-.17-.59c0-.1-.09-.52 0-.19a3.87 3.87 0 010-.68 4.36 4.36 0 010-.51c0 .37.06-.2.07-.28s.11-.38.17-.57.21-.48.08-.21a7.49 7.49 0 01.6-1v-.06a2.75 2.75 0 01.22-.26 4 4 0 01.35-.36l.25-.22c-.1.07-.1.07 0 0a3.66 3.66 0 01.49-.31 3.49 3.49 0 011.73-.48l-1.37-1.8c-.55 1.34-1.19 2.65-1.81 4a1.34 1.34 0 00.46 1.76 1.31 1.31 0 001.76-.46zm10.75-15.17A3.06 3.06 0 01104 1.9l-2.36-.64a31.38 31.38 0 00.46 5.72q.36 2.87.75 5.73a111 111 0 001.74 11.47c.46 1.88 3.56 1.52 3.44-.47a108.77 108.77 0 00-1.69-11.48c-.32-1.9-.63-3.79-1-5.69A32.38 32.38 0 00104.1.92c-.35-.91-1.79-1.37-2.31-.3a6.12 6.12 0 00-.53 4.3c.37 1.51 2.65.87 2.32-.64z"/><path d="M100.48 11.66c-.24-.05-.18 0 .19.14l.31.54a.76.76 0 01-.07.49c.08-.12.09-.14 0-.08s.19-.07.06 0c.84-.27-.22-.08.44-.11h.76c1.21 0 2.43 0 3.65-.06 2.39 0 4.78.06 7.17-.07a1.43 1.43 0 001.39-1.22 1.4 1.4 0 00-1-1.55 41.44 41.44 0 00-10.32 0 14.38 14.38 0 00-2.46.3 3 3 0 00-1.53 1.18 2.2 2.2 0 00-.53 1.62 1.6 1.6 0 001.58 1.3c1.35.17 1.69-2.19.33-2.39z"/></g></g></svg>