<svg xmlns="http://www.w3.org/2000/svg" viewBox="0 0 132.64 139.92"><g data-name="Layer 2"><g data-name="Layer 1"><path d="M54.07 139.14c.57-3 .84-6.14 1.13-9.23l.43-4.48a16.73 16.73 0 00.17-4.43c-.4-2.36-2.7-3.89-4.93-4.23-2.76-.41-5.24.73-7.71 1.79a20.69 20.69 0 01-23.28-5c-1.74-1.93-3-4.21-4.67-6.23a13.25 13.25 0 00-6.28-4.53 9.29 9.29 0 00-4-.2c-.1 0-.63.09-.44.07a6.47 6.47 0 01-.76.05 1.88 1.88 0 01-.41 0c.07 0 .28 0 0 0-.14-.09-.17-.11-.09 0s.06 0-.06-.08.07.09.07.09c-.15-.37 0 0 0-.21a1.87 1.87 0 01.06-.59c0-.23.11-.45.18-.67s.07-.22.1-.33.19-.48.1-.26a7.9 7.9 0 011.61-2.45 9.06 9.06 0 015-2.71c.32-.06.17 0 .09 0h.35a6 6 0 01.85 0 5 5 0 011.33.14 10.27 10.27 0 013 1.15 41.68 41.68 0 015.51 4 28.19 28.19 0 006.2 3.91 25.51 25.51 0 0015.13 1.67c.59-.12 1.19-.26 1.77-.43.26-.07.53-.14.78-.23a1.85 1.85 0 001.12-1.15c.58-1.33 1.18-2.65 1.81-4 1.23-2.58 2.55-5.12 3.94-7.62q1-1.84 2.13-3.66c1-1.72-1.66-3.3-2.7-1.57a133 133 0 00-8.06 15.66l.93-.72a22 22 0 01-12.78.18 21.72 21.72 0 01-6-2.75c-1.75-1.17-3.31-2.54-5-3.84a21.14 21.14 0 00-5.66-3.3 11 11 0 00-6.23-.33 11.84 11.84 0 00-8.59 8.16 4.64 4.64 0 00.2 3.53 3.55 3.55 0 003.07 1.67c1.06 0 2-.25 2.86-.27a5.67 5.67 0 012.7.63c4.14 2.08 5.93 6.88 9 10.08A23.73 23.73 0 0041 122.59c2.2-.6 4.16-1.74 6.31-2.47a6.8 6.8 0 012.95-.46 1.83 1.83 0 01.44.07 4.84 4.84 0 01.65.19 4.1 4.1 0 01.93.51 2.26 2.26 0 01.6.73 3.72 3.72 0 01.18.51 4.15 4.15 0 01.12.87c0 1.33-.2 2.69-.31 4-.22 2.74-.46 5.48-.65 8.22-.1 1.37-.14 2.73-.13 4.1 0 1.12 1.79 1.44 2 .27z"/><path d="M52.64 86.06a15.75 15.75 0 00-3.79-1.37c-1.24-.36-2.48-.72-3.7-1.12a42.85 42.85 0 01-7-2.88 24.62 24.62 0 01-5.88-4.14A20.57 20.57 0 0127.84 70a84.74 84.74 0 01-3.24-8.92 69.32 69.32 0 01-2.39-9.54 38 38 0 01-.42-9.41 27.59 27.59 0 011.66-7.05 23.11 23.11 0 014-6.73A19.83 19.83 0 0129 26.79a13.56 13.56 0 011.4-1.14 16.24 16.24 0 011.73-1.09c.67-.37 1.17-.85 1.77-1.24a1.31 1.31 0 00-1-2.39 9.12 9.12 0 00-2.12.58 14.17 14.17 0 00-1.68 1 21.14 21.14 0 00-3.13 2.61 24.76 24.76 0 00-4.57 6.54 32.08 32.08 0 00-2.73 17.47c.71 6.79 2.84 13.4 5.29 19.75a28.77 28.77 0 004.63 8.34 25.34 25.34 0 006.11 5.14 40 40 0 008.3 3.76c1.44.48 2.89.92 4.36 1.27a14.92 14.92 0 004.76.69 1.09 1.09 0 00.55-2z"/><path d="M34.85 23.5c.29-1.85.36-3.75.63-5.62a48.76 48.76 0 011.19-5.59 40.31 40.31 0 011.81-5.19c.38-.88.8-1.73 1.23-2.58.2-.4.4-.79.59-1.19a7.26 7.26 0 00.48-1.65A1.36 1.36 0 0038.52.37a6.26 6.26 0 00-1.18 1.23 14.89 14.89 0 00-.75 1.4c-.47.92-.87 1.87-1.27 2.82a41.36 41.36 0 00-1.89 5.63 40 40 0 00-1.06 6.06 21.44 21.44 0 00.06 6 1.26 1.26 0 002.42 0z"/><path d="M39 3.29a30.55 30.55 0 012.8 1.58l2.63 1.46c1.82 1 3.6 2.07 5.33 3.23s3.33 2.33 4.84 3.55c.79.62 1.56 1.27 2.32 1.92 1 .84 2 2.16 3.44 1.81a1.51 1.51 0 001.09-1.08 2.3 2.3 0 00-.88-2.25c-.37-.35-.74-.68-1.12-1-.8-.71-1.64-1.38-2.49-2a57.81 57.81 0 00-5.4-3.76A62.48 62.48 0 0046 3.64c-1-.48-2.07-.92-3.13-1.31s-2-.55-3.06-.91S38 2.82 39 3.29z"/><path d="M61 16a11.66 11.66 0 001.94-.8c.55-.24 1.1-.45 1.63-.67a38.17 38.17 0 013.68-1.28c1.26-.37 2.52-.7 3.8-1a33.33 33.33 0 013.61-.51 39.41 39.41 0 017.84.26c.47.06.88.12 1.55.24s1.35.25 2 .41a35.68 35.68 0 013.76 1.07 27.85 27.85 0 013.7 1.53 30 30 0 004.28 2.05c1.63.51 2.6-1.56 1.58-2.72a11.35 11.35 0 00-3.6-2.42 41.27 41.27 0 00-4.05-1.71 38.65 38.65 0 00-8.08-1.92A39.52 39.52 0 0068.3 9.75a34.42 34.42 0 00-4.4 1.69 17 17 0 00-2.07 1.1 8.72 8.72 0 00-2 1.42A1.26 1.26 0 0061 16z"/><path d="M99.49 14.78A52.71 52.71 0 01107 9a37.22 37.22 0 014.19-2.21c.68-.3 1.37-.57 2.09-.85a5.28 5.28 0 00.78-.31c.17-.1.34-.3.47-.39a7.92 7.92 0 011.12-.49 1.32 1.32 0 00-1-2.41c-.4.08-.8.19-1.21.26.39 0 .33 0-.2-.06l-.44.06c-.23.06-.45.17-.67.25-.84.32-1.67.69-2.48 1.07a37.91 37.91 0 00-4.39 2.47 29.79 29.79 0 00-7.64 7 1.17 1.17 0 00.3 1.53 1.2 1.2 0 001.56-.09z"/><path d="M112.39 6.22c.6 1.36 1.42 2.62 2.08 4a31.75 31.75 0 011.61 3.78 32.24 32.24 0 011.12 4.21 20.66 20.66 0 00.41 2.08 11.08 11.08 0 01.41 2.14 1.32 1.32 0 001.28 1.27 1.29 1.29 0 001.27-1.27V20.1a10.28 10.28 0 00-.28-2.53 30.36 30.36 0 00-1.27-4.5 28.87 28.87 0 00-2-4.41 14.52 14.52 0 00-2.86-3.83 1.13 1.13 0 00-1.76 1.36z"/><path d="M118.08 21.72a24.28 24.28 0 002.16 2.8c.12.14.2.25.37.48l.49.67c.33.45.64.91 1 1.38.6.94 1.16 1.91 1.68 2.9.26.5.51 1 .74 1.51.11.23.21.46.31.68.25.56-.06-.16.07.17l.18.44a43.44 43.44 0 012 6.63c.26 1.12.48 2.26.67 3.4 0 .29.09.57.13.86 0 .12.11.78.06.44.08.61.16 1.21.22 1.82a73.24 73.24 0 01.21 15c-.07.67-.12 1.07-.19 1.55-.11.69-.23 1.37-.37 2.06a30.84 30.84 0 01-1.08 3.9 19.89 19.89 0 01-1.41 3.19 21.62 21.62 0 01-1.82 2.83c.05-.07.22-.27 0 0l-.36.43c-.2.24-.41.47-.62.7-.43.46-.87.9-1.33 1.32l-.71.61-.29.23c.31-.24-.17.12-.19.14a15.6 15.6 0 01-1.54 1 18 18 0 01-1.63.84c-.54.24.21-.08-.12 0l-.42.17c-.29.1-.58.2-.87.28a25 25 0 01-3.73.8 1.76 1.76 0 00-1.27 2 1.81 1.81 0 001.74 1.54c5 .47 9.93-2.54 13.21-6.07a27.19 27.19 0 006.6-14.28 64.44 64.44 0 00.36-16.3 55.11 55.11 0 00-3.08-14.47 34.21 34.21 0 00-3.61-7.3 27.32 27.32 0 00-2.64-3.36 10.67 10.67 0 00-3.24-2.64 1.25 1.25 0 00-1.47.19 1.23 1.23 0 00-.19 1.46z"/><path d="M111.05 82.73a4.16 4.16 0 00-2.34.47 5.73 5.73 0 00-1.87 1.73 7 7 0 00-.88 5.24 22.19 22.19 0 002.37 5.83 39 39 0 012.17 5.32c2.51 7.63 2.78 15.75 2.33 23.71-.12 2.27-.31 4.54-.53 6.81q-.17 1.69-.36 3.39c-.06.58-.16 1.17-.17 1.75s.08 1.16.11 1.73a1.25 1.25 0 002.44.33 17.58 17.58 0 00.68-3c.11-1 .21-2 .31-2.95q.28-2.91.5-5.82a100 100 0 00.21-11.74 59.83 59.83 0 00-1.62-11.69 50.75 50.75 0 00-4.31-10.88c-.82-1.6-1.7-3.61-1.35-5.3a5.41 5.41 0 01.87-2.11 2.93 2.93 0 011.66-1.15c1-.17.68-1.59-.22-1.63z"/></g></g></svg>