<svg xmlns="http://www.w3.org/2000/svg" viewBox="0 0 136.81 139.33"><g data-name="Layer 2"><g data-name="Layer 1"><path d="M52.86 138.67c1.38-5.71 2.2-11.59 3.21-17.38.47-2.73 1.09-5.48 1.36-8.24a7.36 7.36 0 00-1.9-6.31 4.46 4.46 0 00-5.78-.68 21.84 21.84 0 00-2.21 2.09 11 11 0 01-2.54 1.78 12.53 12.53 0 01-11.42-.23 17.93 17.93 0 01-5-4.88 29.13 29.13 0 00-5.07-5.22 25.45 25.45 0 00-13-5.15 29.46 29.46 0 00-3.39-.1c-1.12 0-2.31 0-3.08-.91-1.39-1.7-.55-4 .7-5.53C7.8 84.19 13.27 82.55 18 83c5.86.59 10.92 4.07 16.18 6.41s11.31 4 16.88 1.77c1.86-.75 1.05-3.8-.84-3C39.66 92.36 30 82 20.13 80.12a19.78 19.78 0 00-14.76 2.93c-3.7 2.51-7.06 7.18-4.43 11.66 1.27 2.18 3.49 2.89 5.9 2.86a25.16 25.16 0 017.23.79 23.05 23.05 0 0111.86 8.18 23.74 23.74 0 005 5.21 14.15 14.15 0 006 2.25 15.36 15.36 0 0011.87-3.16c.91-.74 1.57-1.76 2.48-2.49a2.17 2.17 0 013.17.78c.84 1.24.73 2.93.56 4.35-.2 1.6-.52 3.18-.79 4.77-1.14 6.7-2.52 13.42-3.22 20.17-.11 1.06 1.6 1.27 1.85.25z"/><path d="M53.18 88.75a21.67 21.67 0 00-.09-11.51 9.93 9.93 0 00-1.73-3.81 1.38 1.38 0 00-1.63-.21 1.41 1.41 0 00-.62 1.52A28.31 28.31 0 0050.2 78a24.42 24.42 0 01.8 3.38 22.1 22.1 0 01.22 6.79c-.2 1.26 1.67 1.84 2 .54z"/><path d="M51.29 72.86c-1.72-.93-3.64-1.42-5.38-2.35a23.45 23.45 0 01-4.66-3.31 29.56 29.56 0 01-7.07-10 53.5 53.5 0 01-3.68-13.5c-.72-4.62-1.4-9.6-.39-14.23.92-4.18 3.43-8 7.58-9.59a1.76 1.76 0 00-.94-3.39c-4.35 1.08-7.49 4.72-9.17 8.74-2.06 4.94-1.78 10.44-1.13 15.64 1.24 10 3.8 20.3 11.07 27.67a26.24 26.24 0 006 4.57c2 1.12 4.74 2.35 7.12 2.12 1.16-.12 1.84-1.71.64-2.36z"/><path d="M39.21 16.1A41.74 41.74 0 0143 8.92a57.39 57.39 0 015.09-6.25 1.61 1.61 0 000-2.22 1.59 1.59 0 00-2.22 0 24.73 24.73 0 00-5.78 6.77 28.15 28.15 0 00-3.41 8.19 1.32 1.32 0 00.91 1.59 1.35 1.35 0 001.62-.92z"/><path d="M47.81 5.46c3 1.78 6.22 3.25 9.19 5.16s5.72 4.07 8.51 6.18c1.37 1 2.85-1.13 1.77-2.29a41.54 41.54 0 00-8.57-6.82A37.39 37.39 0 0048.86 3a1.37 1.37 0 00-1 2.49z"/><path d="M65.92 15.87A13.87 13.87 0 0168 15c.78-.39 1.52-.87 2.28-1.29 1.37-.75 2.78-1.44 4.21-2.07a41.1 41.1 0 019.29-2.74 39.53 39.53 0 0123.13 2.85c1.26.57 3.64 1.72 4.25-.35.56-1.91-1.83-2.79-3.16-3.37a39.36 39.36 0 00-4.69-1.73 43.09 43.09 0 00-19.19-1.1 41.9 41.9 0 00-10.44 3.19 31.43 31.43 0 00-4.59 2.52 23 23 0 00-2.26 1.66 7.27 7.27 0 00-.92.92 9.17 9.17 0 01-.91 1.24c-.61.53.22 1.64.88 1.14z"/><path d="M109.66 12.8a3.3 3.3 0 001.56-1.15l1.28-1.38a19.68 19.68 0 012.58-2.33A21.54 21.54 0 01118.23 6c.68-.34 1.1-.5 1.74-.77s1.5-.57 1.79-1.5l-1 1c.47-.19 1-.36 1.44-.52a1.29 1.29 0 00.92-1.42 1.27 1.27 0 00-1.27-1.12c-.62.07-1.24.16-1.85.28l1.4.37a1.92 1.92 0 00-1.6-.47 7.08 7.08 0 00-1.12.29 15.73 15.73 0 00-2 .85 19.4 19.4 0 00-3.61 2.34 18.28 18.28 0 00-2.82 2.81c-.82 1-2.08 2.62-1.7 4a.9.9 0 001.1.62z"/><path d="M122.19 4.25c.31.4.59.82.91 1.22l.1.12.1.13c.12.16.23.33.34.49A15.74 15.74 0 01125 8.39l.26.54c.12.24-.1-.25 0 0 0 .09.07.19.11.28.15.4.29.8.4 1.21a19.53 19.53 0 01.58 2.49 1.67 1.67 0 001.16 1.16h.1l-.83-.64.07.11a1.33 1.33 0 002.28 0l.06-.11-.5.5.11-.07a1.65 1.65 0 00.82-1.43c-.21-3.86-2-8.1-5.39-10.24a1.48 1.48 0 00-2 2z"/><path d="M126 15a21.68 21.68 0 013.46 4.13 20.35 20.35 0 011.95 5.25 56.59 56.59 0 011.44 13.3c.05 8.74-1.95 17.78-7.68 24.62a26.12 26.12 0 01-4.77 4.51c-1.82 1.3-3.87 2.13-5.77 3.29a1.79 1.79 0 001.37 3.24 16.17 16.17 0 006.08-3 31.5 31.5 0 004.92-4.2 35.39 35.39 0 007-11.33c3.67-9.53 3.6-20.86 1.27-30.72-1-4.17-3.32-10-8-11A1.16 1.16 0 00126 15z"/><path d="M115.87 70.31c-7.69 1.47-12.09 10.92-10.09 18.06a33.15 33.15 0 003 6.33 25.59 25.59 0 012.35 7.19 141.53 141.53 0 012 16.18c.25 3.09.44 6.18.55 9.28.12 3.25-.06 6.55.19 9.79a1.65 1.65 0 003.3 0 68.06 68.06 0 000-8.08c-.06-2.61-.16-5.22-.32-7.82-.32-5.29-.86-10.56-1.58-15.81-.67-4.91-1.7-9.49-4.14-13.85a16.54 16.54 0 01-2.25-5.58 11.7 11.7 0 01.44-5 13.48 13.48 0 017.6-8.26c1.48-.68.37-2.75-1-2.49z"/></g></g></svg>