<svg xmlns="http://www.w3.org/2000/svg" viewBox="0 0 131.08 140.02"><g data-name="Layer 2"><g data-name="Layer 1"><path d="M47.42 138.83a47 47 0 01-1.34-14c.34-4.14 2.39-8.66.74-12.72s-5.61-4.65-9.26-3.12c-1.83.77-3.47 1.89-5.28 2.69A14.75 14.75 0 0127.1 113a9.4 9.4 0 01-9-4.6c-2-3.26-3.68-6.92-7.71-8a5.71 5.71 0 00-4.84.7c-.62.44-1.25 1.52-1.94 1.77-.31.11-.09.24-.3-.2a3.86 3.86 0 01-.31-1.33c-.37-3.53 2.41-6.76 5.44-8.18 4.6-2.15 10.18-.7 14.73.84 5 1.68 9.83 3.76 15.15 4.06 1.93.11 1.92-2.89 0-3-9.68-.56-18.21-7.6-28.19-5.57a13.06 13.06 0 00-9 6.7A9.87 9.87 0 000 101.55c.17 1.75.84 3.92 2.81 4.34s3-1.52 4.5-2.47 3.48 0 4.65 1.08c1.56 1.38 2.44 3.41 3.52 5.16a13.31 13.31 0 003.96 4.34c3.18 2.07 7.27 2.24 10.86 1.36a21.39 21.39 0 005.38-2.26c1.71-1 3.72-2.31 5.76-2.19 2.39.14 3.38 2.59 3.39 4.68 0 2.74-.89 5.46-1.18 8.18a31.63 31.63 0 002.09 15.82c.43 1 1.89.26 1.68-.71z"/><path d="M40.12 96.68a15.29 15.29 0 005.56-9 8.37 8.37 0 00.18-3.88 1.1 1.1 0 00-2.11 0c-.26 1-.14 2.11-.32 3.16a18.13 18.13 0 01-.87 3.17 17 17 0 01-3.35 5.36c-.53.59.19 1.72.91 1.18z"/><path d="M45.76 81.47c-4.32-1.68-8.79-3.22-12.56-6A18.61 18.61 0 0126 63.55c-1.06-5.55-1.33-11.28-1.91-16.89s-1.17-11.41.49-16.86a17.27 17.27 0 013.54-6.43 13.52 13.52 0 012.65-2.3c1.11-.7 2.34-1.1 3.48-1.72a1.38 1.38 0 00-.69-2.55c-2.44.07-4.75 1.64-6.51 3.22a18.81 18.81 0 00-4.37 6c-2.52 5.42-2.53 11.49-2 17.33.56 6.36 1.15 12.79 2.11 19.1.82 5.36 2.8 10.28 7 13.91a34.54 34.54 0 0015.42 7.3 1.14 1.14 0 00.61-2.2z"/><path d="M35.15 18.32c1.79-2.6 3.27-5.44 4.93-8.12s3.59-5.24 5.22-8C46.13.85 44.09-.83 43 .46a59.81 59.81 0 00-5.52 8.21 48.65 48.65 0 00-4.39 8.78c-.44 1.28 1.38 1.87 2.07.87z"/><path d="M42.87 5.18c1.8.94 3.76 1.59 5.6 2.43s3.84 1.82 5.69 2.86a54.71 54.71 0 015.23 3.3c1.73 1.22 3.31 2.68 5.11 3.78 1.44.87 2.63-1 1.69-2.19a23.53 23.53 0 00-5.06-4.19 56.15 56.15 0 00-5.62-3.38c-3.69-1.94-8-3.9-12.21-4.21a.86.86 0 00-.43 1.6z"/><path d="M64.1 17.74c3.24-.71 6.37-2.2 9.56-3.16a43.6 43.6 0 019.52-1.93 28.17 28.17 0 018.54.64c2.9.69 5.3 2.16 8 3.34 1.12.49 2.93-.67 2-2a9.8 9.8 0 00-3.65-3 24.64 24.64 0 00-4.6-1.63 27.48 27.48 0 00-9.69-.63 43.94 43.94 0 00-10.42 2.43q-2.42.88-4.77 1.93a38.06 38.06 0 00-5.13 2.51.83.83 0 00.64 1.5z"/><path d="M98.84 17.47a36.74 36.74 0 019.63-6.54 39 39 0 015.32-2c.92-.27 1.85-.5 2.78-.7a8 8 0 002.92-.79 1.32 1.32 0 00-.31-2.44 6.3 6.3 0 00-3.07.2c-1 .21-2.09.5-3.11.81a34.15 34.15 0 00-5.82 2.37 35.08 35.08 0 00-9.8 7.62 1 1 0 001.46 1.46z"/><path d="M116.87 8.32c.07-.16 0-.08 0 0h-.93a2.23 2.23 0 00.62.19c.12 0 .11 0 0 0l.18.07L116 8a1.64 1.64 0 00.55.56s.39.27.22.13c.06 0 .3.35.35.35-.2-.37-.2-.35 0 .06l.06.1c.07.15.08.15 0 0a1.52 1.52 0 01.09.28l.24.7q.21.66.39 1.32a25.15 25.15 0 01.83 5.32 1.61 1.61 0 001.14 1.5h.05l-1-1 .15.7a1.25 1.25 0 002.39 0c0-.23.09-.47.12-.7l-.63.82h.08a1.53 1.53 0 00.77-1.34 24.46 24.46 0 00-1.26-6.63A6.79 6.79 0 00119 7.25c.1.1.06 0 0 0l-.36-.25a5.22 5.22 0 00-.48-.34 1.77 1.77 0 00-1.75-.14l.57-.16a1.35 1.35 0 00-1.49.94l.42-.55a2 2 0 00-.69.92c-.37.94 1.21 1.61 1.65.69z"/><path d="M118.5 19.65c8.19 5.57 9.88 15.91 9.09 25.14a70.18 70.18 0 01-2.8 14.42 33.66 33.66 0 01-6.6 12.79 22.11 22.11 0 01-5.35 4.48c-2.15 1.27-4.5 1.72-6.75 2.72-1.5.66-.55 2.68.75 2.79 2.38.21 4.87-1 6.91-2.08a26.09 26.09 0 005.63-4.28 34.55 34.55 0 008-13.37 73.2 73.2 0 003.42-15.9 39.67 39.67 0 00-1.16-16.19C128 25 124.78 19.4 119.33 17.68c-1.21-.38-1.8 1.31-.83 2z"/><path d="M107.31 78.93c-6.52 2.71-8.93 10.59-8.28 17.13.89 8.91 6.13 16.67 8.46 25.2a69.5 69.5 0 012.14 15.79 1.42 1.42 0 002.84 0c.41-8.77-1.88-17.54-5.28-25.56-2.92-6.87-6.62-14.23-4.89-21.9a13.62 13.62 0 015.82-8.72c1-.62.35-2.43-.81-1.94z"/></g></g></svg>