<svg xmlns="http://www.w3.org/2000/svg" viewBox="0 0 215.22 328.14"><g data-name="Layer 2"><g data-name="Layer 1"><path d="M72.94 88.5a35 35 0 009 1.93 40.33 40.33 0 008.84-.63 66.22 66.22 0 0017.75-6.12A176.48 176.48 0 00124.92 74a80.38 80.38 0 018.34-4.71 47.32 47.32 0 018.74-3c5.72-1.44 11.87-2.67 16.41-6.71 3.78-3.37 6.46-8.74 5.25-13.87-1.27-5.41-6.62-8.28-11.82-8.55-6.29-.33-11.91 3.19-17.36 5.82A107.82 107.82 0 01114 50.51c-7.18 1.82-14.4 2.59-21.73 3.41-2.47.28-2.61 3.91 0 4A83.78 83.78 0 00111 55.66a111.42 111.42 0 0017.46-5.25q4.31-1.69 8.46-3.7c2.62-1.28 5.17-2.74 7.9-3.78 4.2-1.61 10.13-2.47 13.44 1.44 2.84 3.34 1 8.12-1.61 11-3.64 4-9.19 5.29-14.26 6.56a60.53 60.53 0 00-8.26 2.51 58 58 0 00-8.21 4.16c-5.05 3-9.86 6.47-15 9.38a75.18 75.18 0 01-18.12 7.74c-6.06 1.56-13.09 2.11-19.16.24-1.62-.49-2.29 2-.7 2.54z"/><path d="M102.7 51.82c-1.33-5.18-3.46-10.44-1-15.69 2.14-4.6 6.51-7.66 11.18-9.33 5.46-1.95 11.38-2.58 17.13-2.94 6.09-.39 12.2-.32 18.29-.19a70.07 70.07 0 0010.14-.48 76.67 76.67 0 0110.58-.9c2.46 0 2.46-3.8 0-3.83-6.62-.09-13.1 1.52-19.74 1.39s-13.35-.23-20 .23c-10.93.77-25.24 2.71-30.67 13.8a18.85 18.85 0 001.83 18.91 1.26 1.26 0 002.28-1z"/><path d="M79.9 15.36C83.6 12 89 10.59 93.78 9.67c6-1.14 12-1.86 18.09-2.47 12.42-1.26 24.94-1.91 37.41-2.45a344.66 344.66 0 0137.21.13c6.15.39 12.3 1 18.38 2 1.73.28 4.8.26 5 2.54a4.53 4.53 0 01-2.46 4.22c-2.41 1.44-5.53 1.86-8.31 2.36a98.92 98.92 0 01-9.87 1.24c-6.72.52-13.54.17-20.23 1a2.17 2.17 0 000 4.33 135.24 135.24 0 0019.3-.57c3.32-.26 6.64-.64 9.92-1.18a48.56 48.56 0 008.53-1.93c2.61-.93 5.23-2.43 6.59-5a8.19 8.19 0 00.4-7.37c-1.29-2.68-4-3.49-6.73-3.89-3.34-.48-6.69-.92-10-1.28A291.63 291.63 0 00156.88.18c-13.39.39-26.81 1.23-40.13 2.67-7.4.8-14.79 1.79-22.08 3.3a48.56 48.56 0 00-8.84 2.55 25.15 25.15 0 00-7.63 5c-1.14 1.06.56 2.74 1.7 1.7z"/><path d="M78.92 10.34a6.72 6.72 0 00-2.47 1.54c-.9.72-1.78 1.45-2.66 2.21q-2.51 2.21-5 4.39c-3.3 2.87-6.65 5.68-10 8.47q-10.18 8.4-21 16c-2.07 1.46-4.14 2.91-6.23 4.34S27.23 50 25.59 52A1.42 1.42 0 0027 54.32a21.54 21.54 0 005.78-3.11q2.77-1.86 5.5-3.78c3.71-2.59 7.35-5.28 10.95-8C56.34 34 63.31 28.31 70 22.31c1.83-1.64 3.63-3.3 5.4-5 .94-.9 1.88-1.8 2.76-2.76a8.5 8.5 0 002.09-2.89 1.08 1.08 0 00-1.32-1.32zM107.77 26a10.34 10.34 0 014.09 1.28c1.23.6 2.48 1.17 3.7 1.8a68.92 68.92 0 016.93 4.1 63.69 63.69 0 016.26 4.82c1 .91 2 1.85 3 2.83s1.82 2.1 2.86 3A2.17 2.17 0 00138 41.2c-1.61-2.5-4.23-4.64-6.48-6.56a62.56 62.56 0 00-7.26-5.35 56.51 56.51 0 00-7.85-4.14c-2.84-1.22-5.9-2.64-9-1.68a1.29 1.29 0 00.34 2.53zM186 5.05c0 2.18 1.66 4 3.36 5.19 2.09 1.42 4.76 1.69 7.2 2 5.57.76 11.63 1.27 17.21.41 2.3-.36 1.63-3.87-.53-3.93-2.45-.08-4.9.13-7.35.12s-4.9-.14-7.34-.34a27 27 0 01-6.58-1c-1.81-.63-2.76-2-4.07-3.29a1.12 1.12 0 00-1.9.78zM154.19 41l-.6.17h.65a5.45 5.45 0 00-3.11.73 13 13 0 00-2.56 1.59 8 8 0 00-3 4.91c-.69 4.5 2.94 8.78 6.92 10.38a1.79 1.79 0 002.12-1.05 1.84 1.84 0 00-.73-2.24 18.24 18.24 0 01-3.52-3 5 5 0 01-1.2-3.51 4.9 4.9 0 012-3.11 16.26 16.26 0 011.84-1.28 6.1 6.1 0 002-1.59l-.43.43.54-.33a1.14 1.14 0 00-.88-2.07zM74.71 86.77c-2.44-1.92-6-2-8.94-1.59A43.06 43.06 0 0056 88.09l-10 4c-3.38 1.36-6.82 2.67-10.07 4.34a1.6 1.6 0 001.23 2.91c6.44-2 12.65-4.91 18.86-7.47a58.35 58.35 0 018.87-3.12 20.28 20.28 0 014.39-.61c1.59 0 3.13.28 4.71.35.81 0 1.41-1.17.71-1.72z"/><path d="M98 41.83l-.19-.14.47.61c0 .32 1.44-.56 1.62-.66l1.8-1c1.22-.65 2.45-1.24 3.69-1.84 2.48-1.2 5-2.35 7.43-3.59 4.79-2.43 9.46-5.37 12.56-9.85 1-1.42-1.3-3.21-2.41-1.86-3.87 4.73-9 7.7-14.36 10.41-2.68 1.35-5.38 2.66-8 4.17-1.39.8-6.5 3.54-3.67 5.47 1.1.75 2-1 1-1.75z"/><path d="M119.15 23.68a96.46 96.46 0 00-19.92 12.17c-1.08.87.33 2.71 1.48 1.93 4.84-3.31 9.58-6.77 14.45-10l-1.32-2.26A103.28 103.28 0 00103 35.1a1.43 1.43 0 001.38 2.37 39.27 39.27 0 0011.42-6.22c1.24-1-.37-3-1.68-2.17a127.1 127.1 0 00-10.39 7.48 1.43 1.43 0 00-.12 1.89 1.47 1.47 0 001.87.37 44.48 44.48 0 0016.3-12.08c.88-1 .07-3-1.42-2.45a20.5 20.5 0 00-7.4 4.44c-1.07 1 0 3.2 1.51 2.59a20.4 20.4 0 007.44-5.21 1.58 1.58 0 00-1.91-2.48c-4.34 1.93-8.71 3.81-13 5.83l1.9 2.54a14.71 14.71 0 013.88-3 1.35 1.35 0 00-1-2.46 10.72 10.72 0 00-5.09 3.16c-1.33 1.39.34 3.18 1.93 2.5 4.36-1.87 8.67-3.89 13-5.85l-1.91-2.48a18.32 18.32 0 01-6.41 4.6l1.89 2.44a16.94 16.94 0 016-3.8l-1.43-2.46A41.49 41.49 0 01104 36.33l1.75 2.27a103.12 103.12 0 019.75-7.13l-1.4-2.39a38.09 38.09 0 01-10.5 5.66l1.4 2.37a129.64 129.64 0 0110.44-9.58c1.13-.93-.38-2.93-1.58-2.05-4.74 3.46-9.61 6.75-14.37 10.18l1.51 1.92a93 93 0 0119-12.51c.94-.45.12-1.82-.81-1.39zM76 16.46c1.45-1.46 3-2.88 4.55-4.27a25 25 0 015-3.69A12.38 12.38 0 0191.39 7c2.54 0 5 .51 7.55.27a1.76 1.76 0 000-3.51 80.44 80.44 0 00-8.21-.4 16.28 16.28 0 00-6.8 2 23.32 23.32 0 00-5.34 4.09A50.57 50.57 0 0074.11 15c-.81 1.08.92 2.34 1.84 1.42zM30.8 48.57c-7.38 2.86-12.62 9.52-16.27 16.3-4 7.51-6.46 15.69-8.18 24C2.17 109 1.71 129.64 1 150.11c-.41 11.85-1 23.71-1 35.56 0 2.15 3.17 2.11 3.31 0 1.35-20.26 1.41-40.6 2.63-60.87A264.59 264.59 0 019.1 95.33c1.47-8.43 3.34-17 6.76-24.91a49.67 49.67 0 016.33-11.05 49 49 0 019.42-8.89c.86-.64.4-2.38-.81-1.91zm21.82 41.56c-5.48 2.72-8.78 8.29-10 14.17-1.35 6.75-.24 13.53 2 20 2.31 6.73 5.74 13 8.44 19.56 3 7.2 4.88 14.89 6.67 22.46a302.88 302.88 0 017.13 47.74 445 445 0 01.62 48.73c-.64 16.28-1.94 32.53-3.25 48.78a39.54 39.54 0 00-.08 6.06A1.47 1.47 0 0067 318a75.79 75.79 0 001.82-11.83c.46-4 .8-8.11 1.13-12.17.66-8 1.22-16 1.59-23.95.75-16.09.91-32.22.06-48.31a323.79 323.79 0 00-5.82-47.47c-1.58-7.77-3.51-15.47-5.8-23.05-2.11-6.95-5.21-13.4-8.23-20-2.89-6.27-5.52-12.87-6-19.83-.4-5.74.94-11.86 4.79-16.27a15.15 15.15 0 013.28-2.91 1.23 1.23 0 00-1.24-2.12z"/><path d="M1.23 180.64a129.6 129.6 0 00-.45 14.22Q.71 202 .71 209.07v28.67l.2 56.86c0 10.72 0 21.46.5 32.16a1.43 1.43 0 002.86 0c.4-9.46.32-18.95.28-28.42l-.1-28.68q-.11-28.43-.27-56.85c0-5.32-.07-10.64-.16-16s.09-10.89-.59-16.21a1.1 1.1 0 00-2.2 0z"/></g></g></svg>