<svg xmlns="http://www.w3.org/2000/svg" viewBox="0 0 101.19 150.35"><g data-name="Layer 2"><g data-name="Layer 1"><path d="M68.6 31.31c-2.6 7.69.03 16.26 4.29 23.16S83 67.19 87.55 73.89A66.29 66.29 0 0199 112.72c-.2 7.36-1.74 14.94-6.11 20.86-5.33 7.25-14.18 11.1-23 13a72.48 72.48 0 01-34.63-1.13c-11.69-3.31-23-10.11-28.75-20.8C1 114.41 1.27 101.66 5.76 91c4.55-10.87 13.11-19.73 23-26.19 5.59-9.51 7.47-18.4 6.24-29.43" fill="#fffbaa"/><path d="M67.43 30.63c-4.18 9.65.53 20.53 6.23 28.5 3.13 4.38 6.71 8.42 9.94 12.73a67.5 67.5 0 018 13.46 63.57 63.57 0 015.2 30.12 34.9 34.9 0 01-3.81 14.08 26 26 0 01-9.62 9.73c-8.72 5.21-19.59 6.84-29.61 6.67a63.75 63.75 0 01-29.31-7.29c-7.9-4.31-14.75-10.88-17.71-19.54a38.83 38.83 0 011.79-28.4 56.67 56.67 0 0118.1-21.55c1-.72 2-1.39 3-2.08a8.61 8.61 0 002.48-3.34 51.38 51.38 0 003.11-6.94 43.75 43.75 0 002.54-14.2 36.14 36.14 0 00-.76-7.76c-.48-2.33-4.18-1.79-4.13.56.1 4.9.26 9.81-.76 14.64a44.8 44.8 0 01-5.47 13.52l.87-.87C12.11 72.83-.32 89 0 108.18a37.68 37.68 0 009.8 25c5.85 6.39 13.67 10.71 21.81 13.45A73.27 73.27 0 0062.1 150c9.13-.91 18.69-3.26 26.16-8.82A29.19 29.19 0 0097.05 131a39.6 39.6 0 003.8-13.66 65.41 65.41 0 00-3.52-28.55A68.22 68.22 0 0091 75.4a112.93 112.93 0 00-8.75-11.69c-6-7.29-12.44-15.43-12.91-25.27a26.12 26.12 0 01.6-6.77c.33-1.41-1.83-2.51-2.47-1z"/><path d="M36.36 35.49a41.2 41.2 0 0017.41 3.69 51.37 51.37 0 008.93-.69c1.47-.24 2.94-.55 4.38-.93.72-.19 1.44-.39 2.16-.61a8 8 0 002.14-1.13c1-.68.76-2.72-.7-2.57a11.42 11.42 0 00-2.16.28c-.64.18-1.28.4-1.93.58-1.36.38-2.75.7-4.14 1a50 50 0 01-8.46.86 69.76 69.76 0 01-16.88-2.27c-1-.24-1.79 1.28-.75 1.79z"/><path d="M32.77 38.39c4.89-1.67 9.65-3.19 14.84-3.54a48.63 48.63 0 017.44 0c1.3.11 2.6.29 3.88.52s2.57.31 3.88.47c1.67.2 1.67-2.17.37-2.7A17.08 17.08 0 0059.42 32c-1.37-.22-2.76-.4-4.15-.51a42.87 42.87 0 00-8.09.1c-5.23.58-10.78 1.86-15.36 4.55-1.17.69-.41 2.72 1 2.25z"/><path d="M43.89 38.24c2.7 2.1 3.06 5.86 3.44 9a98.15 98.15 0 01.81 11.49A51.32 51.32 0 0147 69.89a52.07 52.07 0 01-3.88 10.54c-.53 1.15 1 2.63 1.91 1.48 5.24-6.35 6.15-15.63 5.92-23.57a92.43 92.43 0 00-1.3-12.41c-.58-3.5-1.7-7-4.69-9.12-.84-.6-1.93.8-1.11 1.43zm14.85-5.14a72.48 72.48 0 00-3 24.76 72.43 72.43 0 005.12 24.5c.74 1.74 3.58 1.09 2.94-.81a94.2 94.2 0 01-5-23.69 92.3 92.3 0 011.83-24.25 1 1 0 00-1.87-.51z"/><path d="M65.52 80.73a11.92 11.92 0 01-9.61 4.55 12.9 12.9 0 01-9.34-4.55c-1.3-1.47-3.92.49-2.76 2.13a14 14 0 0012.26 5.93 14.74 14.74 0 0011.34-7c.77-1.22-1.07-2.2-1.89-1.11zM34.81 44.52a10.4 10.4 0 01-6.47-.9 10.27 10.27 0 01-2.58-1.74c-.6-.56-2.13-2-2.09-2.87s1.69-1.88 2.36-2.35a25.25 25.25 0 013.44-2 45.61 45.61 0 017.41-2.7 89.64 89.64 0 0126.63-3.4 42.14 42.14 0 018 .64c2.34.51 4.54 1.94 4.11 4.65-.4 2.55-2.93 3.1-5.11 2.8-1.81-.26-3 2-1.3 3.09 2.57 1.63 6.24.59 8.21-1.56a7.35 7.35 0 00.93-8.35c-1.53-2.84-4.68-3.89-7.69-4.27a72.8 72.8 0 00-11-.46 93.08 93.08 0 00-22.39 3.19 50.44 50.44 0 00-9.77 3.53 25.28 25.28 0 00-3.92 2.46c-1.34 1-2.89 2.2-3.26 3.93-.7 3.29 3.16 6.55 5.73 7.83a12.59 12.59 0 009.33.83 1.2 1.2 0 00-.64-2.32z"/><path d="M74.24 36.23a15.72 15.72 0 012.53.5 1.49 1.49 0 001.61-.66 20.59 20.59 0 001.7-7c.29-2.52.3-5.06.34-7.59s.09-4.9.35-7.33A37.5 37.5 0 0182.4 7a1.68 1.68 0 00-3.06-1.29c-2.43 4.39-2.49 9.81-2.51 14.69 0 2.47 0 4.93-.12 7.39s-.64 5-1 7.59l1-1.38a15.8 15.8 0 01-2.53.61.82.82 0 000 1.64z"/><path d="M22.25 40.52c.68-6.37-.08-12.92-.4-19.31-.09-1.62-.18-3.25-.26-4.87a6.32 6.32 0 01.63-3.86c1.33-2 4.12-3 6.25-4a64.33 64.33 0 0132.46-4.69 62.55 62.55 0 018.9 1.66c1.5.39 3 .84 4.45 1.34a31.4 31.4 0 004.6 1.53 1.54 1.54 0 001.18-2.8A15.71 15.71 0 0076 3.7c-1.47-.51-3-1-4.45-1.38A69.67 69.67 0 0062.84.59a68.27 68.27 0 00-18 0 66.87 66.87 0 00-17.07 4.62c-2.52 1.06-5.27 2.16-7.24 4.12-2.2 2.2-2.38 5-2.2 7.92l.76 11.88a73.34 73.34 0 001.35 11.64c.24 1.08 1.71.72 1.81-.25z"/></g></g></svg>