<svg xmlns="http://www.w3.org/2000/svg" viewBox="0 0 148.04 188.08"><defs><style>.cls-1{stroke:#000;stroke-miterlimit:10;stroke-width:.53px}</style></defs><g id="Layer_2" data-name="Layer 2"><g id="Layer_1-2" data-name="Layer 1"><path d="M53.16 156.39c7.22 3.77 15.58 5.85 23.57 7.22a98.9 98.9 0 0023.86 1.39 59.2 59.2 0 0021.8-5.53 42.33 42.33 0 0014.83-12.16C144.73 137.54 148 125 148 112.86c0-13.68-4.48-26.69-11.35-38.41-7.61-13-17.85-24.16-28.47-34.69-1.34-1.33-2.72-2.63-4.09-3.94-1.7-1.61-4.24.92-2.57 2.58 10.24 10.15 20.49 20.4 28.59 32.41 7.38 11 13 23.37 14.13 36.66 1 11.58-1.07 23.7-7.14 33.73a39.83 39.83 0 01-11.52 12.34 48.56 48.56 0 01-20 7.47c-15.23 2.39-31.32-.1-45.86-4.85-1.91-.62-3.79-1.31-5.71-1.9a1.17 1.17 0 00-.9 2.13z"/><path d="M85.36 91.8c1.94 3.54 4.18 6.91 6.1 10.45.74 1.36 1.48 3 1.09 4.62a3.28 3.28 0 01-2.61 2.55c-1.45.29-1 2.28.33 2.41a4.57 4.57 0 004.32-2.69 7.22 7.22 0 00.22-6 32.21 32.21 0 00-3.4-6.06c-1.41-2.08-2.8-4.22-4.27-6.32a1 1 0 00-1.78 1zm-31.55 32.02c.91 6.28 7 11 13.16 11.25 1.7.08 1.69-2.55 0-2.64-5.26-.28-9.75-4.2-11.46-9.08a.88.88 0 00-1.7.47zM18.78 70.25c.41 7.56 1.44 15.09 2 22.64s.85 15.16.95 22.75a361.58 361.58 0 01-2.26 45.47q-.71 6.3-1.64 12.58c-.64 4.26-1.58 8.52-1.83 12.82-.08 1.38 1.94 1.55 2.33.32a75.7 75.7 0 002.24-11.39c.59-3.8 1.1-7.62 1.57-11.44q1.36-11.31 2-22.68a353.2 353.2 0 00-.32-46c-.61-8.44-1.25-17.06-3.12-25.32a1 1 0 00-1.93.26z"/><path d="M23.24 99.61a17.34 17.34 0 00-5.42-2.91 18.41 18.41 0 00-6.18-.62c-3.94.28-8.57 1.7-10.55 5.43a10.49 10.49 0 00.64 10.4c2.27 3.42 6.2 5.2 10.17 5.67 5.19.61 10.24-1.26 14.92-3.27a1.66 1.66 0 00.6-2.26 1.7 1.7 0 00-2.27-.6c-5.86 2.55-14.15 5.15-19.48.09A7.5 7.5 0 013.54 104c1-3.14 4.64-4.34 7.59-4.73a16.57 16.57 0 015.53.24 18.52 18.52 0 015.55 1.85c1.14.68 2.07-1 1-1.76zm36.44 60.5c-.86 1.47-.78 3.61-.88 5.27s-.15 3.5-.12 5.25a49.88 49.88 0 001.11 10.78 1.15 1.15 0 002.25-.3c-.14-3.49-.51-7-.6-10.48v-5.25c0-1.58.38-3.56-.17-5.07a.86.86 0 00-1.56-.2z"/><path d="M62.29 187.29c0-.82.05-1.63 0-2.45s-.09-1.56-.15-2.34c-.13-1.6-.26-3.2-.4-4.79a1.14 1.14 0 00-1.11-1.1 1.11 1.11 0 00-1.1 1.1c.14 1.63.29 3.25.44 4.88.08.85.15 1.69.28 2.53s.3 1.58.43 2.38 1.59.67 1.58-.21zM49.63 62.86c10.26 1.39 21-.6 30.58-4.42A70.73 70.73 0 00105.72 41a67.59 67.59 0 0010.18-14.4c.74-1.43-1.45-2.7-2.16-1.26-9 18.13-27.12 31-46.88 34.91a77.15 77.15 0 01-17 1.21c-.8 0-1 1.31-.2 1.43zm-31.55-2.71C8.78 50.37 6 33.29 14.47 22.1a17.53 17.53 0 014-3.89 21.91 21.91 0 015-2.24c1-.37.92-2-.26-1.92-3.4.15-6.78 2.49-9.09 4.84a24.29 24.29 0 00-5.57 9.31 32.92 32.92 0 00.95 22.56 33.44 33.44 0 007.09 10.88c.95 1 2.42-.5 1.49-1.49z"/><path d="M22.65 22.45A82.1 82.1 0 0155.38 5.19a75.7 75.7 0 0138.08.27A76.59 76.59 0 01103.75 9c3.47 1.48 6.7 3.35 10 5.14a1.52 1.52 0 001.53-2.62c-5.49-3.78-12.16-6.37-18.53-8.26A79.56 79.56 0 0076.74 0 77.81 77.81 0 0039 8.63a70.54 70.54 0 00-17.56 12.6c-.8.79.38 1.92 1.21 1.22z" id="sac_2"/><path d="M47.89 26.21a86.49 86.49 0 0147.77-4.93 81.64 81.64 0 0113.13 3.65v-2.72a20.37 20.37 0 00-8.25 4.24c-1.06.94.31 2.63 1.5 1.94a34 34 0 017.5-3.46 1.42 1.42 0 000-2.72A90.24 90.24 0 0060.75 20a87.36 87.36 0 00-13.38 4.33c-1.14.48-.65 2.36.52 1.89z" id="sac"/><path d="M37.6 39.71a129.15 129.15 0 0125.52-4.44 117.69 117.69 0 0112.74-.13c2.12.09 4.25.23 6.36.46 1.09.12 4.32.75 3 2.51-.78 1.06 1 2.43 1.83 1.41a3.38 3.38 0 00-.05-4.46c-1.3-1.52-3.39-1.7-5.25-1.86a117.08 117.08 0 00-15.1-.28 108.08 108.08 0 00-29.44 5.37.74.74 0 00.39 1.42zm-17.96 6.92a57.12 57.12 0 008.43 10.9 65.72 65.72 0 005.1 4.63c1.8 1.48 3.73 2.76 5.59 4.16.84.63 2-.6 1.43-1.44a43.51 43.51 0 01-4.3-7.34 48.29 48.29 0 01-2.32-8.18 1 1 0 00-1.95.26 23 23 0 002.06 8.85 23.94 23.94 0 004.87 7.68l1.27-1.64a40.57 40.57 0 01-10.69-8 55.6 55.6 0 01-8.28-10.55.7.7 0 00-1.21.71zm30.05 107.61a3.45 3.45 0 00.33.45 3.54 3.54 0 00.47.38c-.26-.2.23.17.31.21l.33.19c.46.27.92.56 1.38.81s.94.53 1.42.77a7.63 7.63 0 001.75.57 1.14 1.14 0 001.11-1.91 8.33 8.33 0 00-1.44-1.08c-.48-.24-1-.46-1.47-.69l-1.49-.64a4.12 4.12 0 00-1.88-.5 1 1 0 00-.82 1.44z"/><circle id="goz_2" class="cls-1" cx="62.33" cy="81.71" r="4.64"/><circle id="goz_1" class="cls-1" cx="108.31" cy="81.71" r="4.64"/></g></g></svg>