<svg xmlns="http://www.w3.org/2000/svg" viewBox="0 0 69.56 66.27"><g data-name="Layer 2"><path d="M7.78 16.08c2.42-4.3 6.27-7.19 10.71-9.2.31-.14.42-.19.61-.26l.84-.34q.94-.36 1.89-.66c1.22-.4 2.46-.73 3.71-1a48.65 48.65 0 017.85-1.12c5.84-.38 11.88.09 17.23 2.43a24.62 24.62 0 013.62 1.93 19.6 19.6 0 012.69 2 27.41 27.41 0 012.56 2.61 21.56 21.56 0 012 2.72 28.61 28.61 0 011.78 3.2c.13.27.25.53.37.8.23.51-.07-.18.06.13l.16.4c.24.6.45 1.2.65 1.81a29 29 0 01.9 3.56l.15.86s.07.54 0 .27 0 .29 0 .27c.07.64.13 1.27.15 1.91a26.14 26.14 0 01-.08 3.65c0 .29-.06.58-.1.87 0-.36 0-.05 0 0l-.09.52c-.11.63-.24 1.26-.4 1.88a36.28 36.28 0 01-3.51 8.45A67 67 0 0157 51.3a33.22 33.22 0 01-2.55 3.09 29.91 29.91 0 01-3.14 2.92l-.08.06-.49.36-.84.58q-.93.6-1.89 1.11c-.59.31-1.18.6-1.79.85h-.07l-.55.21c-.37.14-.75.27-1.13.39a28.05 28.05 0 01-4 1l-.39.06a1.07 1.07 0 01-.25 0l-1 .1c-.7.06-1.4.09-2.11.11a35 35 0 01-4.22-.2l-.5-.06c-.64-.07.23 0-.15 0l-1.1-.17c-.7-.12-1.39-.27-2.08-.43a35.93 35.93 0 01-4.07-1.22l-1-.37-.5-.2-.34-.14c-.45-.19-1.37-.61-2-.91a56.07 56.07 0 01-7.61-4.52q-.93-.64-1.83-1.32l-.92-.6-.4-.36-.25-.19c-1.19-.94-2.37-1.88-3.53-2.84-.58-.49-1.16-1-1.75-1.43a12.91 12.91 0 00-2.13-1.3C1 45.18-.62 46.62.24 48a11.82 11.82 0 001.5 2c.55.56 1.12 1.1 1.7 1.63Q5.2 53.26 7 54.74a66.57 66.57 0 008 5.52 43.31 43.31 0 0017.85 5.88 30.52 30.52 0 0017.42-3.45c5.46-3 9.43-8.11 12.59-13.39s6-11.07 6.54-17.38a29.93 29.93 0 00-3.15-15.47A28.91 28.91 0 0055.84 4.77C50.51 1.45 44.14.13 37.93 0a51.13 51.13 0 00-17.32 2.55c-5.12 1.74-9.95 4.51-13.17 9a17.11 17.11 0 00-1.86 3.28 1.32 1.32 0 00.42 1.7 1.28 1.28 0 001.74-.45z" data-name="Layer 1"/></g></svg>