<svg xmlns="http://www.w3.org/2000/svg" viewBox="0 0 68.72 65.19"><g data-name="Layer 2"><path d="M4.17 13a43.94 43.94 0 0113.61-7.85 36.22 36.22 0 0115.74-1.69 39.46 39.46 0 0114.93 5 37.19 37.19 0 0111.71 10.28 27.74 27.74 0 013.63 6.81 23.53 23.53 0 011 3.78v.66c0 .29 0 .57.07.86a19.65 19.65 0 010 2c0 .33 0 .65-.08 1v.07c0 .16 0 .32-.08.48a18.27 18.27 0 01-.48 2.07 20.06 20.06 0 01-1.61 3.83 82.14 82.14 0 01-4.26 7.09c-.73 1.1-1.48 2.19-2.28 3.25l-.3.4v.07c-.21.25-.41.51-.62.77-.42.5-.85 1-1.29 1.49a32.32 32.32 0 01-2.77 2.72c-.52.45-.93.78-1.26 1-.52.37-1 .73-1.6 1.07s-1.11.65-1.69.94l-.79.37c-.28.13-.37.16-.8.32a22.51 22.51 0 01-4.27 1.1l-.39.06-.4.05-1.1.1c-.74.05-1.48.07-2.22.07a39.15 39.15 0 01-4.47-.27c-1.12-.13-2.6-.37-4-.63s-2.51-.54-3.74-.87-2.48-.71-3.69-1.14c-.55-.19-1.09-.39-1.63-.6l-.9-.36c-.57-.23.2.09-.14 0l-.56-.3a38.35 38.35 0 01-6.55-3.69l-.68-.5-.21-.15-.3-.23c-.51-.41-1-.84-1.5-1.27a31.65 31.65 0 01-2.58-2.6L5 47.84l-.2-.25-.18-.24-.78-1s-.22-.29 0-.05l-.35-.47a1.93 1.93 0 00-2.57-.67 1.91 1.91 0 00-.68 2.57c2.63 4.81 7.17 8.52 11.9 11.14a51.38 51.38 0 0015.32 5.37c6.18 1.16 12.88 1.62 18.86-.71 5.47-2.14 9.66-6.19 13.14-10.82A81.51 81.51 0 0064 45.77a34.54 34.54 0 004-8.49c1.55-5.69.26-11.69-2.48-16.8A37.44 37.44 0 0054 7.79 42.46 42.46 0 0038 .83a39.56 39.56 0 00-17.19.23A36.46 36.46 0 005.67 8.69a19.62 19.62 0 00-2.8 3A.92.92 0 004.17 13z" data-name="Layer 1"/></g></svg>