<svg xmlns="http://www.w3.org/2000/svg" viewBox="0 0 61.75 59.43"><g data-name="Layer 2"><path d="M17.45 14.61c1.74 0 3.49-.18 5.22-.29s3.48-.21 5.22-.32a.75.75 0 00.74-.74c-.07-3.68-.33-7.36-.66-11a.79.79 0 00-.56-.73 19.92 19.92 0 00-6.21-.3 6.19 6.19 0 00-4.44 2.55 10.08 10.08 0 00-1.64 4.63 17.23 17.23 0 00-.12 3.1 14.3 14.3 0 00.17 1.59 7.76 7.76 0 00.52 1.54c.21.49 1.07.5 1-.14v-1.37c0-.46-.1-.93-.13-1.39a17.13 17.13 0 010-2.68 9.59 9.59 0 011.25-4.18 4.73 4.73 0 013.59-2.19A18.07 18.07 0 0127 3l-.55-.74c.31 3.67.51 7.35.69 11l.75-.75-5.34.49c-1.75.15-3.52.23-5.25.51-.64.1-.47 1.1.15 1.11zm27-11.8C42.51-1 36-.68 33.42 2.27c-1.73 2-1.37 5.07-1.38 7.52q0 4.41.2 8.8c.06 1.48.15 3 .26 4.45a10.35 10.35 0 00.72 3.73 8.9 8.9 0 002.23 2.73 12.11 12.11 0 003 2.14 5 5 0 006.2-1.56c1.62-2 2-4.91 2.23-7.44a60.12 60.12 0 00-.28-9.58c-.27-3.29-.51-6.58-.8-9.86-.09-1-1.71-1.06-1.63 0 .37 5.12 1 10.25 1.16 15.39a27.84 27.84 0 01-.57 7.34c-.45 1.9-1.44 4.25-3.62 4.62s-4.09-1.55-5.39-2.94a5.34 5.34 0 01-1.51-2.77 29.84 29.84 0 01-.35-3.78c-.19-2.55-.3-5.11-.35-7.67s-.14-5.11.07-7.63a4 4 0 011.55-3.08 6.55 6.55 0 013-1.11 6.45 6.45 0 015.48 1.87.52.52 0 00.82-.63zM49.84 20c-.26 3.44-.16 6.89-.25 10.34a.67.67 0 00.66.66c3.59 0 7.18-.28 10.77-.08a.72.72 0 00.71-.72c.13-2.85-.2-6-2.59-7.88a11.35 11.35 0 00-9-1.94c-.85.18-.68 1.63.2 1.53 2.63-.29 5.56-.12 7.74 1.58s2.09 4.31 2.22 6.71l.72-.71c-3.58 0-7.2-.14-10.77.19l.66.66c-.11-3.45 0-6.9-.28-10.34a.4.4 0 00-.79 0zM5.4 19.94c2.37.08 4.76-.15 7.13-.29l7-.46c1.74-.12 4.12-.61 5.69.4s1.35 3.09 1.16 4.64c-.22 1.8-.62 3.67-2.53 4.32a10.13 10.13 0 01-2.56.46c-1.19.09-2.38.16-3.57.22-2.36.13-4.73.2-7.09.21H7.02A9.26 9.26 0 013.83 29a3.93 3.93 0 01-2.15-4.4 6.05 6.05 0 013.85-4c.77-.34.21-1.54-.56-1.34C1 20.32-1.52 25.19 1 28.75 2.44 30.73 4.62 31 6.9 31q4.17.07 8.33-.08a63.51 63.51 0 007.68-.53 5.31 5.31 0 004.57-3.63 14.26 14.26 0 00.52-3.08 8.19 8.19 0 00-.22-3c-.66-2.12-2.61-3-4.69-3.06-1.39 0-2.8.14-4.19.24s-3 .21-4.54.33c-3 .23-6.1.34-9.09.86-.52.09-.37.87.12.89zm20.95 12.99a4.71 4.71 0 00-5.5-1.06 5.68 5.68 0 00-3 4.87 49.82 49.82 0 00.08 7.53c.15 2.53.42 5.06.79 7.57.31 2.06.47 4.52 1.91 6.16A4.8 4.8 0 0026 59c4.57-1.92 4.51-7.86 4.36-12a60 60 0 00-.9-8.45c-.4-2.27-.81-5.06-2.7-6.62a.79.79 0 00-1.11 1.11 9.37 9.37 0 012 4.75 62.52 62.52 0 01.91 6.53 52.75 52.75 0 01.18 6.53 9 9 0 01-1.66 5.4 3.87 3.87 0 01-4.37 1.33c-1.67-.71-1.93-2.83-2.2-4.39a84.2 84.2 0 01-1.16-13.07c0-1.95-.33-4.56 1.14-6.09a4.07 4.07 0 015.28-.35c.5.31.94-.37.59-.78zm11.21 2.88c-2.18-.8-3.91 1.08-4.26 3.09a7.11 7.11 0 001.4 5.83c1.62 1.72 4.23 1.59 6.4 1.58 2.7 0 5.4-.14 8.09-.37a52.77 52.77 0 007.62-1c1.81-.43 3.77-1.43 4.15-3.43a7.94 7.94 0 00-.32-3.42 7.74 7.74 0 00-1.26-2.75c-1.53-2-3.93-2-6.25-2-3 0-6.07.16-9.1.44a66.59 66.59 0 00-9.11 1.29c-.85.2-.69 1.68.21 1.56 2.33-.31 4.64-.73 7-1s4.6-.44 6.9-.54c1.14 0 2.27-.08 3.4-.09a22.87 22.87 0 013.31.06c1.9.24 2.84 1.63 3.32 3.37a5.66 5.66 0 01.26 3 2.62 2.62 0 01-1.42 1.5c-1.64.85-3.71.95-5.51 1.18-2.31.28-4.64.48-7 .6a54.79 54.79 0 01-6.78.1 4.3 4.3 0 01-2.81-1A4.72 4.72 0 0134.64 41c-.26-2 .29-4.49 2.82-4.36.48 0 .51-.65.1-.8zm-2.62 12.56a31.28 31.28 0 00.06 8.37 2.8 2.8 0 00.48 1.65 2.09 2.09 0 001.42.61 10.65 10.65 0 003.67-.5 6.72 6.72 0 004.81-4.4 13.16 13.16 0 00.39-3.7c0-1 .07-2.94-1.27-3.21a7.59 7.59 0 00-2.17.18l-2.28.33c-.78.12-1.56.26-2.34.4a11.5 11.5 0 00-2.32.54.78.78 0 00-.54.83.75.75 0 00.74.65 21.4 21.4 0 003.34-.57c1.13-.2 2.27-.38 3.41-.53.52-.07 1-.14 1.57-.19H44c.2 0 .19-.05 0-.18 0 0 .1.38.09.35a4.06 4.06 0 01.1.77 17.11 17.11 0 010 3.12 4.85 4.85 0 01-3.21 4 11.46 11.46 0 01-3.11.68 2.49 2.49 0 01-1.12 0c-.4-.18-.34-.89-.37-1.26-.14-1.27-.24-2.55-.3-3.82s-.07-2.69-.22-4c0-.44-.76-.64-.85-.12zm-18.46-13.8a1.85 1.85 0 00.23-.34l-.86-.37a24.5 24.5 0 00.07 4.61c0 .76.09 1.52.13 2.29 0 .36.05.73.07 1.09a3.6 3.6 0 010 1.22l.34-.45a2.61 2.61 0 01-1 .14c-.33 0-.67.06-1 .07a9.78 9.78 0 01-2.09-.12A7.54 7.54 0 019 41.3a5.62 5.62 0 01-2-2.69 12.79 12.79 0 01-.4-4.18l-.6.79a56 56 0 0110.58-.85.83.83 0 000-1.65 58.14 58.14 0 00-11 .91.85.85 0 00-.61.8 12.4 12.4 0 00.87 5.62 7.76 7.76 0 003.39 3.35 10.6 10.6 0 005.46 1.06c.78-.05 2.15 0 2.74-.65a1.58 1.58 0 00.24-1.31l-.12-1.5c-.1-1.2-.2-2.41-.31-3.61a19.76 19.76 0 00-.48-3.51.47.47 0 00-.91.25 1.64 1.64 0 00.14.39.27.27 0 00.49.07z" data-name="Layer 1"/></g></svg>