<svg xmlns="http://www.w3.org/2000/svg" viewBox="0 0 151.56 135.94"><g data-name="Layer 2"><g data-name="Layer 1"><path d="M60.15 134.02a56.28 56.28 0 0014.78 2 89.66 89.66 0 0015.1-1c9.31-1.4 18.59-4.34 26.43-9.65a57.42 57.42 0 0017.07-18.35 61.11 61.11 0 008.15-25.44 68.3 68.3 0 00-3.47-28.56 30.7 30.7 0 00-1.48-3.56c-1-1.94-4.09-.59-3.47 1.46.67 2.25 1.49 4.44 2.13 6.7s1.18 4.55 1.6 6.86a58.78 58.78 0 01.83 6.56 66 66 0 01.14 7q-.06 1.73-.21 3.45c-.1 1.15-.23 2.3-.37 3.24a61.78 61.78 0 01-1.44 6.88 55.46 55.46 0 01-1.95 5.88c-.16.42-.33.83-.5 1.24.11-.26 0 0 0 .07s-.1.24-.16.36-.23.52-.35.78c-.41.9-.84 1.79-1.3 2.67a59 59 0 01-3.06 5.2 49.61 49.61 0 01-3.41 4.61 56.74 56.74 0 01-4 4.34c-.73.7-1.48 1.39-2.25 2.06l-1.09.92-.52.42-.3.23c-.22.18 0 0-.16.12-7.17 5.51-15.59 8.68-24.4 10.43a85.73 85.73 0 01-14.13 1.58c-4.83.16-9.6-.15-14.41-.43-1.16-.07-2.31-.15-3.47-.21s-1.4 1.75-.28 2.09z"/><path d="M134.59 52.23a29.87 29.87 0 005.34-4.38 45.57 45.57 0 004.51-4.91 33.23 33.23 0 006.33-12.37 25.21 25.21 0 00.74-7.83 1.88 1.88 0 00-3.5-.95c-.4.71-.83 1.41-1.3 2.09-.21.31-.43.62-.65.92l-.17.23c-.2.25.14-.18-.06.07l-.41.51a29.18 29.18 0 01-3.42 3.52l-.87.74-.45.35s-.25.19-.1.08l-.18.14c-.66.49-1.34.95-2 1.39s-1.41.84-2.14 1.22c-.36.19-.73.37-1.1.54l-.52.24-.26.11c-.29.13.24-.09-.06 0-.84.35-1.7.65-2.58.93a10.89 10.89 0 00-2.89 1.15 1.59 1.59 0 00-.76 1.59 1.55 1.55 0 001.15 1.33 5.31 5.31 0 001.59.07 14.3 14.3 0 001.45-.29 20 20 0 002.51-.84 33.7 33.7 0 004.88-2.35 32 32 0 0011.58-11.87l-3.49-.94a23.5 23.5 0 01-2.33 12A36.56 36.56 0 01138 44.87q-1.26 1.24-2.61 2.43c-.91.8-1.89 1.55-2.73 2.44a1.59 1.59 0 001.92 2.49z"/><path d="M129.84 38.92a22.42 22.42 0 006.27-5.46 44 44 0 004.89-6.87 46.26 46.26 0 005.5-15.4 44.83 44.83 0 00.57-9.4 1.83 1.83 0 00-3.39-.92 48.86 48.86 0 01-8.06 9.64 49.29 49.29 0 01-10.2 7.34c-1 .57-2.11 1.1-3.18 1.61l-1.68.83a12.19 12.19 0 00-1.55 1 1.44 1.44 0 00-.64 1.56 1.39 1.39 0 001.33 1c.58-.07 1.19-.1 1.75-.22a11.8 11.8 0 001.67-.59c1.13-.46 2.23-1 3.31-1.54a51.89 51.89 0 005.66-3.46 54.3 54.3 0 0010.07-9.02 56.51 56.51 0 004.63-6.26l-3.39-.92a40.49 40.49 0 01-2.05 15.18 45 45 0 01-7.07 13.22c-.92 1.18-1.93 2.28-2.94 3.38s-2.09 2.14-3 3.3a1.27 1.27 0 001.53 2z"/><path d="M120.73 21.31a5 5 0 00-.72-.92c-.28-.23-.61-.43-.91-.64a17.41 17.41 0 00-1.73-1.1 32.62 32.62 0 00-3.92-1.73 49.09 49.09 0 00-7.8-2.19 29.12 29.12 0 00-15.65.78 26.84 26.84 0 00-17.53 21 29.11 29.11 0 00.06 8.84 25 25 0 001 3.92 8.63 8.63 0 002.25 4.06 1.87 1.87 0 002 .38 1.81 1.81 0 001.13-1.69 6.54 6.54 0 00-.37-1.85c-.21-.56-.42-1.13-.62-1.7A23.89 23.89 0 0177 45.2c0-.27-.1-.53-.14-.8s-.12-.86-.07-.41c-.07-.57-.12-1.14-.16-1.71a26.57 26.57 0 010-3.34c0-.27 0-.54.07-.81 0-.11.12-.88 0-.41.09-.6.19-1.2.32-1.8a25.34 25.34 0 011-3.29c.09-.25.19-.5.29-.75-.17.41.14-.31.18-.4q.36-.78.78-1.53A25.05 25.05 0 0181 27.33c.26-.34 0-.06 0 0l.23-.3.49-.57c.37-.43.76-.84 1.16-1.24s.72-.7 1.09-1l.57-.49.3-.24s.54-.42.13-.11a26.52 26.52 0 012.59-1.73q.65-.37 1.32-.72c.22-.12.45-.23.68-.33l.34-.16.33-.15.16-.07.36-.13.7-.26q.77-.27 1.53-.48a27.65 27.65 0 013.13-.67c-.52.08.18 0 .33 0l.75-.06c.65-.05 1.3-.07 2-.07a33.26 33.26 0 013.91.28c.48.07 1.42.22 2.07.34s1.35.26 2 .41c1.41.32 2.81.7 4.19 1.14s2.74.89 4.08 1.4a13 13 0 004.23 1.1 1.24 1.24 0 001.06-1.85z"/><path d="M75.56 50.87s-.11.13 0 0-.2.16-.15.12a1.66 1.66 0 00-.21.16s-.33.38-.17.22-.17.15-.24.19c.27-.19-.22.09-.07 0l-.34.1c-.09 0-.42.06-.17 0a9.38 9.38 0 01-1.06 0h-.45l-.37-.06-1.62-.31-3.12-.55c-4.2-.76-8.38-1.62-12.52-2.68-7.48-1.92-14.42-4.6-20.7-9.17-.82-.59-1.4-1-2.22-1.75s-1.49-1.31-2.2-2c-1.45-1.44-2.82-3-4.15-4.54-1.19-1.4-3.4.4-2.5 1.93a31.53 31.53 0 008.19 8.73 50.46 50.46 0 0010 5.93c8.23 3.74 17 5.53 25.92 7 1.24.2 2.49.39 3.73.56a9.67 9.67 0 003.22.07 4.67 4.67 0 002.38-1.18 1.93 1.93 0 00.1-2.81.87.87 0 00-1.22 0z"/><path d="M23.4 30.75c-.21.23 0 .11.05.05-.63.38.1-.1-.36.14a2.13 2.13 0 00-.75.62 6 6 0 00-.76 1.69 21.32 21.32 0 00-.81 2.94 23.44 23.44 0 00-.42 6.31 25.29 25.29 0 003.9 11.86 19.18 19.18 0 004.92 5.35c1.36 1 2.92-1.15 1.75-2.27a28.14 28.14 0 01-3.66-4 21.87 21.87 0 01-2.52-4.83 23.7 23.7 0 01-1.27-5.3 24.7 24.7 0 010-5.44 21.23 21.23 0 01.66-3.07c.16-.53.35-1 .52-1.58a3 3 0 00.18-.94 2 2 0 00-.05-.5c0-.07-.09-.37-.11-.26.12-.69-.71-1.36-1.28-.74z"/><path d="M29.45 57.48c-.77 0-1.18 0-1.95.07s-1.32.08-2 0h-1.16l-.53-.1a14.15 14.15 0 01-1.93-.54 2.66 2.66 0 00-1.53-.17 1.54 1.54 0 00-1.22 1 1.81 1.81 0 00.42 1.56 2.93 2.93 0 001.42.88 12.11 12.11 0 004.3.73A8.2 8.2 0 0030 59.59a1.19 1.19 0 00.52-1.28 1.16 1.16 0 00-1.09-.83z"/><path d="M18.82 58.44a17.47 17.47 0 001.87 7 26.47 26.47 0 003.87 5.9 31.34 31.34 0 0011.16 8.25 30.93 30.93 0 003.93 1.43c.63.18 1.27.35 1.91.49l.88.17a3.14 3.14 0 001.46-.18 1.29 1.29 0 00.3-2.32 3.24 3.24 0 00-.92-.56c-.22-.07-.47-.1-.7-.16-.55-.13-1.1-.27-1.64-.42-1.06-.31-2.11-.68-3.14-1.09-.47-.18-.73-.3-1.27-.54s-1-.5-1.52-.77a31.6 31.6 0 01-2.85-1.71 26.82 26.82 0 01-8.38-9.11 38.3 38.3 0 01-2.62-6.68 1.2 1.2 0 00-2.34.32z"/><path d="M43.46 80.96a6.14 6.14 0 00-3 .49 12.54 12.54 0 01-2.79.44 14.71 14.71 0 01-1.48 0 8.31 8.31 0 01-1.19-.2c-1.13-.23-2.46-1-3.55-.42l.73-.2h-.34a1.31 1.31 0 00-.91 2.21l.22.26-.37-.64c.37 1.37 2.22 1.7 3.45 1.93a13.78 13.78 0 003.57.21 12.62 12.62 0 003.39-.69c1.15-.44 2.56-1 2.94-2.28a.92.92 0 00-.64-1.12z"/><path d="M30.1 83.46a7.68 7.68 0 00.79 2.8c.39.94.82 1.87 1.26 2.78A38.36 38.36 0 0035 94.02a25.28 25.28 0 007.72 7.62 17.52 17.52 0 002.8 1.33c.43.16.86.31 1.31.43a2.6 2.6 0 002.06-.22 1.31 1.31 0 00.26-2l-.21-.27-.46-.37a4.62 4.62 0 00-1-.33 10.59 10.59 0 01-1.26-.46 17.34 17.34 0 01-2.61-1.42 20.81 20.81 0 01-4.5-4 35.7 35.7 0 01-3.69-5.5c-.57-1-1.12-2-1.67-3a10.15 10.15 0 00-2-3 1 1 0 00-1.73.72z"/><path d="M48.13 101.37c-1.28.5-2.46 1.3-3.69 1.9A24.59 24.59 0 0141 104.7a31.3 31.3 0 01-7.89 1.32 52.05 52.05 0 01-17.37-2.11 82 82 0 01-9.45-3.65 1.61 1.61 0 00-2.13.56 1.58 1.58 0 00.56 2.13 39.91 39.91 0 008.83 3.8 54.84 54.84 0 009.2 2.06c6 .82 12.39.91 18.27-.81a22.29 22.29 0 004.54-1.81 10 10 0 003.79-3.22c.44-.75-.31-1.94-1.22-1.59z"/><path d="M60.75 131.69A110.35 110.35 0 0147 129.02a73.78 73.78 0 01-12.91-4.94 74.61 74.61 0 01-22-16.54A66.81 66.81 0 013 94.89c-1-1.8-3.79-.18-2.75 1.61A76 76 0 0019 118.07a76.9 76.9 0 0025.54 13.31 55.66 55.66 0 0015.89 2.64 1.17 1.17 0 00.32-2.3z"/></g></g></svg>