<svg xmlns="http://www.w3.org/2000/svg" viewBox="0 0 148.06 188.08"><g data-name="Layer 2"><g data-name="Layer 1"><path d="M53.17 156.39c7.22 3.77 15.58 5.86 23.57 7.23A98.36 98.36 0 00100.6 165a59 59 0 0021.8-5.52 42.35 42.35 0 0014.83-12.17c7.52-9.73 10.83-22.23 10.83-34.41 0-13.68-4.48-26.7-11.36-38.42-7.6-12.95-17.85-24.16-28.47-34.69-1.34-1.33-2.71-2.63-4.09-3.93-1.7-1.62-4.26.92-2.58 2.58 10.25 10.15 20.5 20.4 28.59 32.41 7.38 11 13 23.37 14.13 36.66 1 11.58-1.07 23.69-7.14 33.73a39.79 39.79 0 01-11.52 12.33 48.46 48.46 0 01-20 7.47c-15.22 2.4-31.33-.1-45.86-4.84-1.91-.62-3.79-1.31-5.72-1.9a1.17 1.17 0 00-.89 2.13zm11.4-75.79a17.28 17.28 0 00-12.52 1c-1.28.62-.53 2.39.67 2.47A70 70 0 0067 83.44c1.35-.19 1.3-2.44 0-2.67a34.7 34.7 0 00-12.73 0c-1.42.28-1.22 2.31 0 2.69a13.13 13.13 0 004.31.59l-.68-2.52a4.6 4.6 0 01-1.5.42c-.58 0-1.19.09-1.78.11-1 0-1.6 1.56-.55 2.06a4.48 4.48 0 002.57.5 8.56 8.56 0 002.62-.75c1.24-.58.6-2.56-.68-2.53a9.26 9.26 0 01-3.57-.57v2.69a34.59 34.59 0 0111.26 0v-2.69a75.29 75.29 0 01-13.59.61l.67 2.47a14.32 14.32 0 0110.57-1 1.15 1.15 0 00.61-2.21z"/><path d="M106 82.13c2.75-.37 5.49-.79 8.24-1.09a1.21 1.21 0 00.61-2.24 14.13 14.13 0 00-13.61-.43 1.31 1.31 0 000 2.24A14.55 14.55 0 00113 82c1-.31 1.23-2.1 0-2.29-1.53-.25-3.07-.44-4.61-.65a40.9 40.9 0 00-4.53-.56l.33 2.45a14.48 14.48 0 013.29-.17 12.25 12.25 0 011.6.19 6.79 6.79 0 011.6.51l.59-2.18c-1.75-.07-3.5.1-5.26.16a1 1 0 000 2c1.76.06 3.51.23 5.26.15a1.17 1.17 0 000-2.34c-.29 0-.57 0-.87-.05l-.92-.17-1.85-.29c-1.25-.17-2.51-.23-3.77-.29a1.25 1.25 0 00-.34 2.45 39.86 39.86 0 004.63.59c1.51.18 3 .36 4.53.5l-.31-2.33a10.76 10.76 0 01-9.83-1.3v2.24a12.84 12.84 0 0111.09.27l.28-2.2c-2.72.49-5.47.86-8.21 1.28-1.21.19-.94 2.33.29 2.17zM85.36 91.8c1.94 3.54 4.18 6.91 6.11 10.45.74 1.36 1.48 3 1.09 4.62a3.29 3.29 0 01-2.56 2.55c-1.46.29-1 2.28.33 2.41a4.57 4.57 0 004.32-2.69 7.22 7.22 0 00.22-6 31.71 31.71 0 00-3.41-6.06q-2.07-3.22-4.26-6.37a1 1 0 00-1.79 1zm-31.54 32.02c.91 6.28 7 11 13.16 11.25 1.7.08 1.69-2.55 0-2.64-5.26-.28-9.75-4.2-11.46-9.08a.88.88 0 00-1.7.47zM18.79 70.25c.41 7.56 1.44 15.09 2 22.64s.85 15.16.95 22.75a361.58 361.58 0 01-2.26 45.47c-.47 4.2-1 8.4-1.65 12.58s-1.57 8.52-1.82 12.82c-.08 1.38 1.94 1.55 2.33.32a75.7 75.7 0 002.24-11.39c.59-3.8 1.1-7.62 1.56-11.44q1.38-11.31 2-22.68a353.2 353.2 0 00-.32-46c-.61-8.44-1.25-17.06-3.12-25.32a1 1 0 00-1.93.26z"/><path d="M23.24 99.61a17.62 17.62 0 00-5.41-2.92 18.16 18.16 0 00-6.18-.62c-3.95.28-8.58 1.71-10.56 5.44a10.46 10.46 0 00.65 10.4c2.27 3.43 6.19 5.21 10.17 5.68 5.19.61 10.24-1.26 14.93-3.27a1.67 1.67 0 00.59-2.28 1.69 1.69 0 00-2.27-.59c-5.86 2.55-14.16 5.14-19.48.08A7.48 7.48 0 013.56 104c1-3.14 4.63-4.33 7.57-4.72a16.63 16.63 0 015.54.24 18 18 0 015.55 1.84c1.14.68 2.07-1 1-1.76zm36.45 60.5c-.86 1.47-.78 3.61-.89 5.27s-.14 3.5-.11 5.25a49.88 49.88 0 001.11 10.78 1.15 1.15 0 002.25-.3c-.14-3.49-.52-7-.6-10.48-.05-1.75-.05-3.5 0-5.25 0-1.58.37-3.56-.17-5.07a.86.86 0 00-1.56-.2z"/><path d="M62.3 187.29c0-.82.05-1.63 0-2.45s-.09-1.56-.16-2.34c-.12-1.6-.25-3.2-.4-4.79a1.12 1.12 0 00-1.1-1.1 1.1 1.1 0 00-1.1 1.1c.13 1.63.28 3.25.43 4.88.08.85.16 1.69.28 2.53s.31 1.58.44 2.38 1.59.67 1.58-.21zM49.64 62.86c10.26 1.39 21-.6 30.58-4.42A70.7 70.7 0 00105.72 41a66.89 66.89 0 0010.18-14.4c.75-1.43-1.44-2.7-2.16-1.26-9 18.13-27.11 31-46.87 34.91a77.2 77.2 0 01-17 1.21c-.79 0-1 1.31-.19 1.43zm-31.55-2.71C8.79 50.37 6 33.29 14.48 22.1a17.53 17.53 0 014-3.89 21.72 21.72 0 015-2.24c1-.37.92-2-.26-1.92-3.41.15-6.78 2.49-9.09 4.84a24.29 24.29 0 00-5.57 9.31 32.92 32.92 0 00.95 22.56 33.57 33.57 0 007.08 10.88c1 1 2.43-.5 1.5-1.49z"/><path d="M22.66 22.45A82.1 82.1 0 0155.39 5.19a75.58 75.58 0 0138.08.27A77.39 77.39 0 01103.75 9c3.48 1.49 6.71 3.36 10 5.14a1.52 1.52 0 001.53-2.63c-5.49-3.78-12.16-6.37-18.53-8.25a79.56 79.56 0 00-20-3.26A77.76 77.76 0 0039 8.63a70.36 70.36 0 00-17.56 12.6c-.8.79.38 1.92 1.21 1.22z"/><path d="M47.9 26.21a86.47 86.47 0 0147.77-4.93 81.24 81.24 0 0113.12 3.65v-2.72a20.39 20.39 0 00-8.24 4.24c-1.06.94.3 2.63 1.5 1.94a34.14 34.14 0 017.49-3.46 1.42 1.42 0 000-2.72A90.2 90.2 0 0060.76 20a87 87 0 00-13.38 4.33c-1.14.48-.65 2.36.52 1.89zm-10.29 13.5a129.15 129.15 0 0125.52-4.44 117.69 117.69 0 0112.74-.13c2.12.09 4.25.23 6.36.46 1.09.12 4.32.75 3 2.51-.78 1.06 1 2.43 1.82 1.41a3.37 3.37 0 00-.05-4.46c-1.29-1.52-3.39-1.7-5.24-1.86a117.08 117.08 0 00-15.1-.28 108 108 0 00-29.44 5.37.74.74 0 00.39 1.42zm-17.97 6.92a57.58 57.58 0 008.44 10.9 65.72 65.72 0 005.1 4.63c1.8 1.48 3.73 2.76 5.59 4.16.84.63 2-.6 1.43-1.44a43.51 43.51 0 01-4.3-7.34 47.38 47.38 0 01-2.32-8.18 1 1 0 00-1.95.26 23 23 0 002.06 8.85 23.77 23.77 0 004.87 7.68l1.26-1.64a40.69 40.69 0 01-10.68-8 55.6 55.6 0 01-8.28-10.55.71.71 0 00-1.22.71zM49.7 154.24a4.6 4.6 0 00.32.45 4.45 4.45 0 00.48.38c-.26-.2.23.17.31.21l.32.19c.47.27.92.56 1.39.81s.94.53 1.42.77a7.47 7.47 0 001.75.57 1.16 1.16 0 001.31-.52 1.15 1.15 0 00-.18-1.39 7.63 7.63 0 00-1.44-1.08c-.48-.24-1-.46-1.46-.69l-1.49-.64a4.12 4.12 0 00-1.88-.5 1 1 0 00-.82 1.44z"/></g></g></svg>