<svg xmlns="http://www.w3.org/2000/svg" viewBox="0 0 153.75 40.26"><g data-name="Layer 2"><g data-name="Layer 1"><path d="M7.83 6.83A88.19 88.19 0 000 38.48c-.11 1.69 2.74 2.11 3 .41a92.89 92.89 0 013.16-14.28c.73-2.33 1.57-4.63 2.51-6.88.47-1.11.95-2.22 1.49-3.29.36-.73.81-1.79 1.73-1.92 2.09-.29 2.93 2.7 3.29 4.15.63 2.5 1.17 5 1.75 7.54l1.78 7.7c.55 2.4.78 5.35 2.14 7.43a1.27 1.27 0 002.35-.64c.28-2.24-.7-4.74-1.2-6.93l-1.61-7-1.61-7a17 17 0 00-2-5.79c-2.23-3.31-6.68-3.67-8.9-.19a33.38 33.38 0 00-2.57 5.68c-.83 2-1.57 4.14-2.23 6.25A77.86 77.86 0 000 38.48h3.05A87.61 87.61 0 019.81 7.67c.47-1.14-1.46-1.95-2-.84z"/><path d="M9 29.83A6.18 6.18 0 016.52 28l-.94 2.28c1.42-.09 2.76-.28 4.13-.41l2-.24 1-.12a3.34 3.34 0 00.9-.17 3.46 3.46 0 00.69-.46l-.58.33.63-.2a1.19 1.19 0 00-.35-2.32h-.67l.66.18a2.35 2.35 0 00-1.4-.25l-1 .13-2.05.25a63.5 63.5 0 00-4.32.67 1.34 1.34 0 00-.59 2.23A10.11 10.11 0 007.72 32a1.3 1.3 0 001.72-.45A1.26 1.26 0 009 29.83zM26.94 14A4.44 4.44 0 0028 10.56a1.25 1.25 0 00-2.49 0 109.52 109.52 0 001.27 22.66 1.63 1.63 0 001.81 1.18 1.67 1.67 0 001.44-1.62c.22-2 .38-4.68 2.3-5.88s3.1.58 3.47 2.3a6.92 6.92 0 01-4.54 7.8 1.69 1.69 0 00.9 3.26C37.9 39 41 31.91 38.66 26.69c-1.43-3.16-4.75-4.61-7.88-2.84s-3.8 5.59-4 8.93l3.22-.44a112.78 112.78 0 01-2-21.78l-2.45.33a1.62 1.62 0 01-.31 1.49c-.92 1.15.68 2.82 1.66 1.65z"/><path d="M36.82 32.22a21.78 21.78 0 005.51 4.28 7.62 7.62 0 006.15.25 5.68 5.68 0 003.71-5.35 6.88 6.88 0 00-3.54-5.81 7.75 7.75 0 00-4.27-.92 11 11 0 00-2.2.43 5.82 5.82 0 00-1.24.49 2.69 2.69 0 00-1 1.45l.46-.78a6.8 6.8 0 00-.57.5 1.6 1.6 0 001.54 2.65l.76-.19h-.95a2.67 2.67 0 001.82-.06c.23-.07.45-.13.68-.18a2.47 2.47 0 00.29-.06c.32-.09-.45 0 .14 0a10.77 10.77 0 011.27 0h.3s-.31-.07-.08 0 .51.11.76.2l.27.1c-.08 0-.27-.15 0 0l.42.25s.25.19.06 0 .06.07.11.11a5.33 5.33 0 01.4.42c.26.27 0 0 0 0l.15.21.29.49c.19.33-.06-.23.06.13a6.32 6.32 0 01.18.62c.08.36 0-.25 0 .12v.44c0 .06 0 .21-.08.32s-.1.28 0 .07 0 .1-.07.13-.32.47-.09.2c-.1.12-.2.23-.31.34l-.28.25c.17-.13 0 0-.06 0s-.21.14-.33.2-.42.2-.28.15-.12 0-.17 0l-.22.07-.47.12c-.29.08-.12 0 0 0h-.32a9 9 0 01-1 0h-.06l-.24-.05-.74-.18c-1.9-.52-3.43-2.06-4.84-3.36-1.21-1.12-3 .65-1.82 1.82zm24.27-6.73l1.28-1.16-2.37-.62.06.22v.36c.08.63 0-.27 0 .15v1c0 .7-.12 1.4-.19 2.11a8.58 8.58 0 00.46 4.49 4.43 4.43 0 004.3 2.47 5.9 5.9 0 004.63-3 8 8 0 001-3.57 12.14 12.14 0 000-1.48c0-.26 0-.53-.07-.79a2.28 2.28 0 00-.26-1l-.29-.37q-.65-.49-.18-.15l.4.7-.21-.58a1.5 1.5 0 00-1.38-1.05 1.45 1.45 0 00-1.38 1.05c0 .09 0 .2-.05.29 0 .27-.23.23.23-.26a2 2 0 00-.53 1.44v2.24c0-.26 0 .27-.05.35s-.1.45-.16.67l-.09.29c0 .06-.14.36 0 .13s-.11.21-.14.27a2.77 2.77 0 01-.27.4s.32-.35.06-.1c-.07.07-.13.15-.21.22s-.27.3-.32.29.32-.24.09-.08l-.21.14a4.16 4.16 0 01-.42.23c-.18.1 0 0 0 0s.14-.06 0 0h-.11l-.22.06c-.3.09.09 0 .14 0a1.81 1.81 0 00-.46 0s-.26 0 0 0a1.41 1.41 0 00-.22-.06c-.17 0 .34.2.06 0l-.2-.12c-.21-.13.09-.05.1.08 0 0-.23-.23-.26-.25s.19.3.09.11c0 0-.06-.08-.08-.12s-.26-.5-.14-.23 0-.15-.06-.22a3.59 3.59 0 01-.08-.35.78.78 0 000-.21c.12.27 0 .31 0 .14v-.5c0-.6 0-1.21.05-1.81a17.45 17.45 0 000-2.17 11.09 11.09 0 00-.34-1.14 3.94 3.94 0 00-.14-.49 1.8 1.8 0 01-.08-.21c0-.07-.27-.67-.14-.31a1.42 1.42 0 00-2.34-.62l-1.25 1.18a1.38 1.38 0 002 2zM79 4.35c-.24-1.12-.49-2.24-.71-3.36-.3-1.59-2.62-1.11-2.7.37-.17 2.88.08 5.81.16 8.69s.24 5.8.35 8.7.28 5.64.43 8.45q.11 2.24.24 4.47c.1 1.43 0 3 .68 4.3.55 1 2.32 1.16 2.81 0a9.56 9.56 0 00.29-4.3c-.07-1.4-.16-2.81-.24-4.22-.18-3-.33-6-.56-8.95s-.38-5.8-.62-8.69-.35-5.91-.85-8.81l-2.65.73c.28 1.11.53 2.22.8 3.33.39 1.67 2.91 1 2.56-.7z"/><path d="M72.07 20.22a3.64 3.64 0 01-.63-2.12l-1.54 1.54a47.86 47.86 0 005.47-.47c.89-.08 1.78-.19 2.67-.3a5.46 5.46 0 003.09-.87l-.68.4 3.42-.58c1.52-.25 1.18-2.81-.37-2.7l-3.5.23.78.21a5 5 0 00-2.92-.15c-1 .12-2 .24-3 .38a49.57 49.57 0 00-5.42.82 1.58 1.58 0 00-1.13 1.49 7.16 7.16 0 001.14 3.62 1.49 1.49 0 002.57-1.5zm42.27 6.44a23.88 23.88 0 01-.17 3.69l2.53.7a66.35 66.35 0 00.59-7.2c.1-1.06.19-2.14.39-3.18.09-.49.23-1.52.73-1.77.82-.4 1.57 1.89 1.72 2.51.45 1.83.87 3.8 2.42 5 1 .77 2.73.67 3-.8.38-1.91.63-3.85 1.06-5.75 0-.21.16-.52.19-.65.1-.34.13-.07-.12 0 0 0-.58.14-.59 0 0 .13.59.55.71.67.29.3.58.62.86.94a18.88 18.88 0 012.43 3.76 20.12 20.12 0 011.07 2 20.66 20.66 0 01.68 2.45c.32 1.54 3 1.23 2.79-.37a21.32 21.32 0 00-.59-3.17 18.41 18.41 0 00-1-3.14 18.94 18.94 0 00-3.83-5.31 4.12 4.12 0 00-3-1.5 3.19 3.19 0 00-2.67 1.82 10.75 10.75 0 00-.82 3.22c-.23 1.33-.46 2.66-.67 4l2.66-1.08a4.12 4.12 0 01-1-2.27 12.63 12.63 0 00-1-3.05c-1.18-2.13-3.76-3.72-6.09-2.26-2.09 1.33-2.26 4.07-2.49 6.29-.14 1.42-.23 2.84-.24 4.27a17.55 17.55 0 00.31 4.46c.42 1.66 2.8.93 2.53-.7a23.88 23.88 0 01-.14-3.69 1.11 1.11 0 00-2.22 0zm24.86 1.25c2.82-.89 6.49-2.21 7.14-5.51.62-3.12-1.92-6.79-5.37-5.62s-4.54 5.25-3.86 8.44a8.93 8.93 0 006.27 6.7 10.31 10.31 0 005.59-.09 10.63 10.63 0 002.48-1.11 4.3 4.3 0 002.25-2.38 1.62 1.62 0 00-2-2 4.74 4.74 0 00-1.74.9c-.22.13-.45.25-.68.37l-.31.14-.32.11a11 11 0 01-1.69.43h-.45a7.36 7.36 0 01-1.05 0h-.22c.23 0-.34-.06-.31-.06-.25-.05-.49-.11-.74-.18l-.36-.12c-.57-.18.16.09-.16-.06a6.23 6.23 0 01-.8-.44l-.36-.25c.07.06.24.22 0 0s-.34-.31-.5-.48l-.23-.27c-.36-.41.11.18-.07-.09a7.17 7.17 0 01-.46-.75c-.07-.12-.13-.26-.2-.39s-.12-.33 0 0c-.08-.22-.16-.44-.22-.67s-.12-.5-.17-.76 0 .45 0-.09v-.52a5.27 5.27 0 010-.68c0 .39.08-.3.11-.42s.07-.22.1-.33.19-.41 0-.11a4.79 4.79 0 01.46-.79c-.06.08-.15.16.09-.08l.28-.28c-.17.14.07-.05.09-.06s.5-.24.3-.17a1.26 1.26 0 01.37 0c-.11 0-.3-.12 0 0 .42.19-.28-.23.09 0 .08.06.16.1.24.15-.29-.19-.09-.07 0 0s.28.35.15.15 0 .09.06.13.15.37 0 .08l.09.29c0 .1.05.2.07.3.09.4 0-.23 0 .18a6.66 6.66 0 010 .77c0-.27 0 0 0 0a3.59 3.59 0 01-.14.43c.09-.21 0 .08-.05.1s-.15.23-.24.34a4.78 4.78 0 01-.68.67 10.57 10.57 0 01-3.52 1.67c-1.5.49-.87 2.86.66 2.38z"/></g></g></svg>