<svg xmlns="http://www.w3.org/2000/svg" viewBox="0 0 125.7 40.79"><g data-name="Layer 2"><g data-name="Layer 1"><path d="M25.62 6.74C21.74 2.62 15.4 1.59 10.15 3.53A15.8 15.8 0 00.44 15.24c-2.33 10.92 4.79 23.47 16.24 25.34 6.14 1 13.42-1.54 15.74-7.7a1.41 1.41 0 00-2.34-1.36c-2.87 3.47-6.91 5.77-11.49 5.53s-9.08-3.34-11.72-7.14C2.31 23.33 2 12 9.76 7.6 14.27 5 20 5.73 24.22 8.56c1.12.75 2.28-.89 1.4-1.82zm8.91 24.56A7.34 7.34 0 0038 37.93a6.13 6.13 0 007.06-1c2.37-2.38 1.52-6-.12-8.53s-4-4.68-7.08-4.83a6.35 6.35 0 00-4.39 1.63 5 5 0 00-1.23 1.63 2.92 2.92 0 00-.33 1.94c.24.87.32.46.18.33.07.06.12.42.16.52a1.63 1.63 0 001.5 1.14 1.57 1.57 0 001.5-1.14 2.58 2.58 0 00.08-.26c0 .32-1 1-.28.45a1.87 1.87 0 00.62-.8s.31-.57.1-.26.22-.36.23-.36-.34.38-.06.08l.29-.3c.1-.1.16-.26-.08.05a1.18 1.18 0 01.25-.22c.13-.08.37-.28.51-.28-.19 0-.3.11-.07 0l.28-.09.35-.09c.41-.1 0-.06 0 0s.57 0 .65 0c.26 0-.35-.09-.07 0l.33.07.4.13c.09 0 .33.16 0 0 .25.13.49.25.73.4s.59.44.29.19c.18.14.35.29.52.45a10.38 10.38 0 011 1.15c-.21-.28 0 0 0 0l.25.35c.14.2.27.4.4.61s.3.49.43.75c.06.11.11.22.17.34.16.33 0-.14.09.25s.15.47.2.72 0 .14 0 .06v.87c0 .09-.07.18-.09.27s.15-.25 0 0l-.17.31s-.21.27-.07.1-.06.06-.09.09a3 3 0 00-.25.25 1.88 1.88 0 01-.23.16l-.24.15s-.45.18-.14.07a3.86 3.86 0 01-.55.17l-.28.06c.27 0 0 0 0 0a4.7 4.7 0 01-.65 0h-.16c.17 0-.19 0-.22-.06a3.76 3.76 0 01-2-1.48 4.73 4.73 0 01-.88-2.74 1.12 1.12 0 00-2.24 0zm17.1-5.25a17.07 17.07 0 00-.69 5 30.9 30.9 0 00.33 5.08 1.67 1.67 0 003.28-.45v-.1a3.7 3.7 0 00.07-.66v-.77a13.25 13.25 0 01.09-1.54v-.27c0-.25.09-.5.14-.75a14.85 14.85 0 01.4-1.49c.07-.21.14-.43.22-.64l.11-.26v-.09c.22-.46.45-.92.71-1.36.13-.22.27-.44.41-.65s.38-.41.12-.16a1.75 1.75 0 01.23-.24c-.18.12-.17.13 0 0a.84.84 0 01-.71 0c.18.12.18.11 0 0 .09.08.16.16.24.24s.14.17 0 0l.2.3c.26.38.5.78.73 1.18s.51.93.73 1.41c.09.18.17.36.25.54v.09l.15.37a29.11 29.11 0 011.52 5.94 1.8 1.8 0 003.53-.47A20.64 20.64 0 0060 25.18a4.75 4.75 0 00-2.45-2 3.27 3.27 0 00-3.24 1 13.09 13.09 0 00-2.74 5.23 15.09 15.09 0 00-.57 3.28 13.19 13.19 0 000 1.54 13.37 13.37 0 00.3 1.88l3.22-.89a18.91 18.91 0 01-.62-4.3c0-1.53.17-3 .25-4.53A1.26 1.26 0 0053 25.15a1.28 1.28 0 00-1.39.9zM70.38 5.09l-.16-2.93h-2.73c.16 1.29.13 2.63.25 3.93s.29 2.79.44 4.18c.28 2.71.62 5.41.95 8.12.64 5.38 1.05 10.88 2.19 16.18.4 1.87 3.42 1.47 3.34-.45-.23-5.41-1.24-10.85-2-16.21-.35-2.62-.69-5.24-1.09-7.85-.21-1.38-.4-2.77-.63-4.15s-.6-2.75-.79-4.11-2.8-1.16-2.68.36l.23 2.93c.14 1.69 2.76 1.72 2.66 0z"/><path d="M65.81 23.64c-.36-.54-.75-1.08-1.08-1.64l-1.49 1.94a46.32 46.32 0 005.23 1.12c1.83.35 3.68.6 5.52.83a1.52 1.52 0 00.41-3c-1.76-.36-3.52-.69-5.29-.93a46.87 46.87 0 00-5.52-.63 1.34 1.34 0 00-.94 2.25c.35.42.65.88 1 1.32a1.31 1.31 0 001.74.45 1.28 1.28 0 00.45-1.73zm21.13 1.27a1.55 1.55 0 002.21.05 1.79 1.79 0 00.41-2.21c-.86-1.51-2.8-1-4.16-.66-2.8.74-5.59 2.29-6.81 5a5.84 5.84 0 002.15 7.62 4.82 4.82 0 006.8-1.91 11.29 11.29 0 00.93-4l.09-.86v-.44c0-.4-.07.37 0-.07a9.11 9.11 0 01.44-1.7h-3.6c.45 1.51.91 3 1.36 4.53a45.44 45.44 0 001.47 4.5 1.79 1.79 0 103.45-1c-.3-1.54-.81-3-1.26-4.55L89 24.73a1.91 1.91 0 00-1.82-1.39 2 2 0 00-1.82 1.39 11.68 11.68 0 00-.53 2.55 19.26 19.26 0 01-.24 2.3c.12-.5 0 .08 0 .19a5 5 0 01-.11.53 3.17 3.17 0 01-.12.44c0 .08-.06.16-.08.24s.18-.34 0 0c-.08.14-.16.28-.25.42s0-.12.08-.08l-.13.13c0 .06-.12.11-.17.17s.29-.15.07-.06a1 1 0 00-.22.14c-.17.1-.32 0 0 0a2.58 2.58 0 00-.26.08c-.29.09.11 0 .1 0h-.38l-.27-.07c-.06 0-.33-.13-.1 0s-.14-.08-.15-.09-.51-.4-.2-.11c-.12-.11-.25-.22-.36-.34s-.21-.37-.04-.17 0-.05 0-.11l-.11-.18c-.23-.35.07.33 0-.07a4.44 4.44 0 01-.15-.63v-.58c0-.28-.09.25 0 0s.13-.49.21-.73c0-.05.13-.32 0 0a2.4 2.4 0 01.11-.23 4.3 4.3 0 01.34-.59c0-.08.35-.47.17-.26.19-.22.38-.42.59-.62l.2-.18c0-.05.32-.26.15-.13a6.85 6.85 0 01.77-.51 10.4 10.4 0 011.29-.65c.37-.16 1-.38 1.46-.53l.75-.25a1.58 1.58 0 00.28-.08c-.1.14-.7-.27-.35 0l-.5-.5A1 1 0 0187.4 23l.66-.18h.2l.57.34-.07-.06a1.29 1.29 0 10-1.82 1.82zm18.18-1.58a1.62 1.62 0 002.27-.5 2 2 0 000-2c-.63-1.22-1.91-1.34-3.15-1.33a8.25 8.25 0 00-6.29 3.66 7.7 7.7 0 00-1.16 6.94 8.83 8.83 0 008.32 5.68 7.29 7.29 0 001.86-.29c.21-.07.83-.35.34-.14.23-.1.47-.19.7-.3a5.13 5.13 0 00.76-.43 1.75 1.75 0 00-1.77-3c.32-.13-.07 0-.19.05l-.49.13c.1 0 .52-.07 0 0l-.46.07h.15-.36a7.38 7.38 0 01-.94 0 1.55 1.55 0 01-.29 0h.17c-.19-.05-.38-.07-.57-.12l-.49-.14-.31-.11c.24.09-.21-.09-.3-.14l-.51-.29c-.14-.09-.28-.2-.42-.28s.09.08.11.09l-.23-.19a9.66 9.66 0 01-.71-.72c-.23-.26.17.27-.08-.12-.09-.14-.19-.28-.27-.42s-.14-.31-.23-.45 0 .11 0 .14a3.4 3.4 0 00-.12-.34c0-.17-.08-.34-.13-.5s0-.38 0 0v-.24a5.42 5.42 0 010-.57v-.25c0-.08.06-.31 0-.05a7.94 7.94 0 01.29-1.09c0-.13.2-.44 0-.16a6.45 6.45 0 01.31-.58 3.94 3.94 0 01.31-.48c.16-.24-.17.19 0 0 0-.06.11-.12.16-.19a7.16 7.16 0 01.89-.85l.19-.16c-.24.19 0 0 .1-.07a6.26 6.26 0 01.55-.34l.22-.11c.45-.23-.15 0 .12-.05a4.44 4.44 0 01.62-.19q.31-.09.63-.15l.23-.05h.15c.55 0-.19-.08-.37-.31a1 1 0 01-.12-.25c.1.29 0-.29 0-.09l.2-.75.19-.3.66-.39h.75l.21.09a1.49 1.49 0 10-1.5 2.58zm13.56-19.66V1.39a1.44 1.44 0 00-2.87 0c-.07 11.16-.81 22.33-.53 33.5a1.79 1.79 0 003.58 0c.75-11.16.13-22.35-.18-33.5h-2.87l.06 2.28a1.4 1.4 0 002.8 0z"/><path d="M110.91 18.33c.54 0 .54.31.68.62 0 .06-.19.33 0 .06l-.84.64a2.44 2.44 0 011-.32h1.75c1.22.05 2.43.12 3.65.22s2.42.21 3.63.36 2.6.53 3.83.08c.84-.3 1.45-1.55.59-2.23a3.61 3.61 0 00-1.43-.83c-.43-.1-.89-.14-1.33-.2-1-.14-2-.25-3-.35-1.89-.17-3.78-.25-5.67-.25-1.61 0-3.8-.17-4.7 1.47-.77 1.39-.08 3.53 1.76 3.46s1.78-2.8 0-2.77z"/></g></g></svg>