<svg xmlns="http://www.w3.org/2000/svg" viewBox="0 0 108.14 37.1"><g data-name="Layer 2"><g data-name="Layer 1"><path d="M25.55 7.65c1-2.08-1.07-3.47-3-3.56a17.05 17.05 0 00-6.76 1.29 29.85 29.85 0 00-11.5 8.24C1.22 17.13-1.1 21.83.55 26.53A14.2 14.2 0 009.73 35a19.31 19.31 0 008.62.49A35 35 0 0027 32.61c1.58-.66 1-3.2-.73-2.65a61.25 61.25 0 01-6.23 1.48A23.54 23.54 0 0114 32a11.9 11.9 0 01-8.77-4.21c-5-6.28 2.17-13.57 7.23-17A23.2 23.2 0 0118 7.91a20 20 0 013-.81 12.94 12.94 0 011.39-.21h.64a.74.74 0 01.26.1c.25.15.22 0-.09-.34-.54 1.34 1.73 2.3 2.36 1zM34 27.47a2.36 2.36 0 00-2.84 2.38c0 1.5 1.12 2.48 2.24 3.28 2.17 1.54 5.16 2.54 7.68 1.2a5.62 5.62 0 002.7-5.42 6.53 6.53 0 00-1.08-3.14 6.83 6.83 0 00-3.19-2.41 8.14 8.14 0 00-4.24-.28 7.52 7.52 0 00-2.11.67 3.63 3.63 0 00-1.06.66 2.62 2.62 0 00-.65 1.67 1.54 1.54 0 001.12 1.46 2.39 2.39 0 00.85.18 2.16 2.16 0 001-.26c.39-.18-.43.16 0 0s.81-.29 1.22-.4c.19-.05.39-.09.58-.12s.52 0-.07 0h1.16c.07 0 .58.06.19 0s0 0 .08 0l.33.08a5.6 5.6 0 01.54.17c.06 0 .41.16.08 0s0 0 .08 0 .39.23.59.35-.31-.28 0 0l.14.12c.13.12.23.26.35.38s-.29-.42-.1-.13c0 .08.11.16.15.24s.17.34.26.5c-.29-.52 0-.11 0 .08s.08.3.12.46 0 .45 0-.12a1.1 1.1 0 000 .18 5.42 5.42 0 010 .57v.5c0 .16.09-.49 0-.15l-.06.26c0 .15-.11.29-.14.43.09-.4.14-.28 0-.13s-.1.19-.16.28c-.24.38.25-.26-.05.08a3.14 3.14 0 00-.32.31c.16-.26.24-.18 0 0l-.21.13-.29.14c-.16.09-.15.08 0 0l-.18.05a.8.8 0 01-.3.06h.18-.88c-.41 0 .22.05 0 0l-.32-.06a6.77 6.77 0 01-.77-.22l-.38-.13c-.41-.16.27.13-.13-.06l-.73-.35a14.31 14.31 0 01-1.32-.78c-.31-.21.16.18-.1-.08l-.25-.25c.2.22 0-.07-.06-.1s0 0 0 .13c0-.31-.09.23 0-.07.05-.14 0-.14 0 0 .07-.11.07-.12 0-.05v.05q.15-.15 0 0c.12-.07.11-.07 0 0a.62.62 0 01-.27 0 1.21 1.21 0 00.62-2.34zm15 6.96a3.78 3.78 0 002.41-2.77 17.2 17.2 0 00.27-1.89v-.58c0-.07-.06.36 0 .15s.09-.53.16-.79.07-.24.11-.36c.14-.4-.13.22 0 0l.18-.3c.13-.23-.08.12-.11.13a2.18 2.18 0 00.21-.22c.14-.15.07.07-.12.09a1 1 0 00.17-.1l.17-.09s-.41.13-.15.07l.18-.05h-.18.64c.23 0-.39-.09-.17 0a2.79 2.79 0 01.39.1l.2.06c.22.06-.35-.17-.15-.06l.42.22a1.92 1.92 0 00.35.23c-.28-.1-.26-.22-.13-.09s.11.09.15.14l.15.15c.26.25-.19-.3-.07-.09a5 5 0 01.31.49l.12.24c.2.38-.12-.38 0 0 .06.18.13.37.18.56s.09.39.12.59A3 3 0 0055 31c0-.05-.05-.44 0-.09v.95a2.71 2.71 0 00.63 2.13 1.71 1.71 0 002.36 0c.82-.69.66-2.23.61-3.22a8.42 8.42 0 00-.47-2.77 5.74 5.74 0 00-3.82-3.64 4.44 4.44 0 00-4.83 1.53 6.7 6.7 0 00-1 3.87v1.96c0 .25.15-.2 0-.09a1.32 1.32 0 00-.12.2c-.07.14.22-.21.08-.12s-.26.21-.05.08-.39.17 0 0a1.45 1.45 0 00-1 1.73 1.42 1.42 0 001.73 1zm14.47-22.74l.88-3.41-2.74-.37c.35 4.68 1.47 9.38 2.27 14s1.63 9.37 2.7 14c.47 2.07 3.38 1.13 3.1-.86-.66-4.63-1.55-9.23-2.47-13.82l-1.34-6.76c-.45-2.31-.84-4.7-1.52-7a1.41 1.41 0 00-2.69 0L60.83 11a1.37 1.37 0 002.64.72z"/><path d="M62.84 25.65l-1.91-1.34-.75 2.79a34.46 34.46 0 005.08 0c.89-.07 1.78-.17 2.66-.29.44-.06.87-.13 1.3-.21a2.24 2.24 0 001.54-.93l-.5.5.29-.21a1.26 1.26 0 00.59-1.24 1.23 1.23 0 00-.89-1 4.88 4.88 0 00-.68-.2 3.29 3.29 0 00-1 .07l-.57.01h-.33c-.77.11-1.64.22-2.53.29-1.65.14-3.32.18-5 .16a1.53 1.53 0 00-1.45 1.1 1.57 1.57 0 00.69 1.69l1.94 1.3a1.48 1.48 0 002-.53 1.5 1.5 0 00-.53-2zm17.34-.11a1.85 1.85 0 003.23-.24 2 2 0 000-2 2.48 2.48 0 00-2-1.13 8.2 8.2 0 00-2.83.64 8.33 8.33 0 00-2.86 1.6 4.93 4.93 0 00-1.16 5.72 3.87 3.87 0 005.71 1.26 5.39 5.39 0 002.18-3.26 11.22 11.22 0 00.06-3.79l-3.93.54c.92 2.23 2 4.44 3.09 6.58a1.92 1.92 0 002.4.78A1.88 1.88 0 0085.15 30c-.88-2.25-1.85-4.49-2.94-6.65a2 2 0 00-2.5-.82 2 2 0 00-1.16 2.37c.07.39.14.79.2 1.18l-.07-.52a8.76 8.76 0 01.09 1 4.68 4.68 0 010 .53 1.94 1.94 0 010 .24c0 .37.1-.42 0 0 0 .16-.07.31-.12.46a2.09 2.09 0 01-.08.23c.14-.46.14-.31.07-.19l-.19.32c-.18.3.24-.28.08-.11l-.16.18c-.06.06-.44.38-.17.17s-.1.05-.17.08a.78.78 0 01-.2.11s.46-.16.18-.09l-.17.05h.13c-.06 0-.31.06-.35 0s.51.13.22 0a1 1 0 00-.18-.05c.28 0 .35.18.19.08l-.14-.08c-.27-.14.29.27.15.12a.86.86 0 00-.14-.13c-.2-.18.16.17.13.18a1.58 1.58 0 01-.1-.16l-.08-.14c-.11-.17.14.42.09.22s-.08-.23-.1-.35a.55.55 0 010-.16v.15a1.82 1.82 0 010-.33c0-.44-.08.34 0 .06 0-.13.05-.25.09-.37l.06-.16c0-.21-.2.4-.07.15l.18-.33c0-.06.17-.21 0 0s0 0 .05 0 .19-.2.3-.3l.15-.14.12-.1-.15.12a1.77 1.77 0 00.34-.24l.36-.21c.28-.16.56-.3.85-.43 0 0 .36-.13.09 0s0 0 .1 0l.5-.19a4.68 4.68 0 01.48-.18c.15-.05.34-.07.48-.13h-.13c.25 0 .3.08 0 0-.06 0-.29-.19-.12-.05l-.51-.68a1.1 1.1 0 010-.54c0 .13-.07.1.09-.17-.11.19.22-.23.1-.12s.34-.2.14-.1a1.25 1.25 0 011.59.42 1.45 1.45 0 10-2.5 1.46zm12.7 1.67a7.1 7.1 0 001.72-5.15 1.63 1.63 0 00-1.6-1.62 6.62 6.62 0 00-4.33 2 7.51 7.51 0 00-2.07 4.07 7 7 0 001 4.85 8.07 8.07 0 003.82 3.1 6.86 6.86 0 002.38.54 5.33 5.33 0 001.49-.17 2.94 2.94 0 001.48-1.24 1.42 1.42 0 00.07-1.33 1.55 1.55 0 00-1-.87c.58.24-.66-.28-.46-.21a2.65 2.65 0 00-.84-.1h-.77.11a8.3 8.3 0 01-1-.22 1.93 1.93 0 01-.4-.15l-.16-.1-.32-.33c-.1-.06-.58-.32-.12-.05a3.85 3.85 0 01-.72-.68l-.16-.21q.26.33.06.06l-.22-.35c-.06-.1-.4-.63-.11-.16a1.86 1.86 0 01-.16-.47c0-.09-.16-.4-.12-.48v-.9c-.05.28-.05.31 0 .09s.16-.64.26-1-.16.28 0-.07c.09-.17.17-.35.27-.51s.19-.28.27-.42.06-.08-.08.09l.19-.22a6.81 6.81 0 01.72-.7c-.36.3.13-.09.2-.14l.36-.22c.17-.1.33-.19.5-.27-.34.18.19-.06.27-.09l-2-1.13s.08.5.06.24a2.94 2.94 0 010 .42v.18c0 .16-.07.33-.11.49a2.48 2.48 0 01-.21.57l-.25.44c-.13.21 0 0-.17.23a1.57 1.57 0 000 2.15 1.54 1.54 0 002.16 0zm11.18-18.73c.21-2.13.31-4.31.65-6.42l-3.23-.44c0 5.24.5 10.49.83 15.71s.38 10.55 1.27 15.71c.37 2.11 3.49 1.48 3.58-.48.24-5.21-.45-10.53-.87-15.72s-.79-10.48-1.58-15.66c-.28-1.88-3.2-1.36-3.23.44 0 2.29-.31 4.58-.5 6.86-.16 2 2.89 1.95 3.08 0z"/><path d="M97.3 20.76a12.54 12.54 0 012.31-1.39l.62-.27c-.28.12.31-.12.37-.14a12 12 0 011.2-.39c.41-.11.82-.2 1.24-.27q.33-.07.66-.12c-.37.05.31 0 .37 0a12.18 12.18 0 011.35 0 2.34 2.34 0 001.22-.23c.54-.38.47-.38-.21 0h.34a1.39 1.39 0 00.37-2.73l-.32-.11c-.19-.05-.21-.06-.07 0l.58.59a2.1 2.1 0 00-1.1-.89 4.21 4.21 0 00-1.06-.07q-.67 0-1.35.06a14.87 14.87 0 00-3.11.6 15.82 15.82 0 00-5.37 3 1.62 1.62 0 002 2.54z"/></g></g></svg>