<svg xmlns="http://www.w3.org/2000/svg" viewBox="0 0 85.88 57.38"><g data-name="Layer 2"><g data-name="Layer 1"><path d="M.25 4.22a309.52 309.52 0 002.27 51.73c.24 1.89 3.25 1.92 3 0A309.52 309.52 0 013.25 4.22c.07-1.94-2.93-1.93-3 0z"/><path d="M4.48 36.98A19.62 19.62 0 0117 34.9a1.53 1.53 0 001.84-1.05 1.5 1.5 0 00-1-1.84A23 23 0 003 34.39c-1.7.92-.18 3.51 1.52 2.59z"/><path d="M17.1 4.12l.9-1.86-2.79-.76a290.77 290.77 0 008.1 54.26c.46 1.87 3.35 1.08 2.89-.8a287.33 287.33 0 01-8-53.46C18.12.13 16.1-.68 15.4.75l-.91 1.86c-.85 1.72 1.74 3.25 2.59 1.51zm11.33 36.7a10.33 10.33 0 004.81 7.68 5.79 5.79 0 008-2.19c1.7-2.87.94-6.63-.56-9.41-1.34-2.46-3.91-4.84-6.91-4.49-3.22.38-5.91 3.79-4.31 6.92a1.5 1.5 0 002 .54 1.52 1.52 0 00.54-2.05.81.81 0 010-.26v-.22a1.79 1.79 0 01.46-1 3.09 3.09 0 011.54-.95c1.7-.27 3.2 1.39 4 2.75 1 1.76 1.77 4.22 1 6.19a2.86 2.86 0 01-3.78 1.8 7 7 0 01-3.72-5.31 1.56 1.56 0 00-1.5-1.5c-.73 0-1.61.7-1.5 1.5zm17.51-.7a59 59 0 003.17 11.75 1.5 1.5 0 002.89-.8 21.74 21.74 0 011.29-13.84H50.7a21.22 21.22 0 013.5 8.33 1.52 1.52 0 002.21.9 4.35 4.35 0 001.66-4c0-.67-.1-1.34-.11-2 0-.12.06-.9 0-.62 0-.11.05-.39 0-.12 0-.25.22-.19 0 0s-.08.06 0 0a.16.16 0 01-.14 0h.1a2.82 2.82 0 01.65.8A24 24 0 0160 43.56a56 56 0 012.32 7 1.5 1.5 0 002.89-.79 56.3 56.3 0 00-2.76-8.09c-.87-2-2-5.15-4.73-5-2 .11-2.8 1.95-2.78 3.73 0 .78.12 1.56.11 2.34a2.19 2.19 0 01-.08.83c-.1.29.1-.12-.06.16-.07.1-.11.12 0 .07l2.21.89a23.5 23.5 0 00-3.81-9c-.58-.82-2.09-1.11-2.59 0a25.11 25.11 0 00-1.59 16.16l2.89-.8a58.88 58.88 0 01-3.17-11.74A1.51 1.51 0 0047 38.28a1.52 1.52 0 00-1.05 1.84zm23.63 7.17a9.26 9.26 0 007.06-8.36 6 6 0 00-2.31-4.85 3.57 3.57 0 00-5.2.84c-4.48 5.91-1.29 15.71 6.33 16.82a10.18 10.18 0 0010.21-4.48 1.502 1.502 0 00-2.59-1.52c-2.47 4.07-9 4.22-11.66.2a8.5 8.5 0 01-1-7.16 7.44 7.44 0 01.72-1.57 3.58 3.58 0 01.43-.64 1.07 1.07 0 01.35-.29c-.13.07.3 0 .06 0 .21 0 .49.14.81.49a3.17 3.17 0 01.75 1.51 5.19 5.19 0 01-1.16 3.79 6.31 6.31 0 01-3.65 2.35c-1.88.43-1.09 3.32.8 2.89z"/></g></g></svg>