<svg xmlns="http://www.w3.org/2000/svg" viewBox="0 0 99.29 59.55"><g data-name="Layer 2"><g data-name="Layer 1"><path d="M.78 2.85c1.39.61.84 3 .74 4.19-.2 2.22-.35 4.45-.45 6.67-.2 4.61-.19 9.24 0 13.85A152.45 152.45 0 005 54.86c.45 1.88 3.34 1.09 2.9-.79A147.5 147.5 0 014 25.17q-.23-7.17.23-14.32a54.16 54.16 0 00.42-6.35C4.55 2.8 4 1 2.3.26S-1 2.07.78 2.85z"/><path d="M2.27 35.15l19.87-2a1.54 1.54 0 001.5-1.5 1.5 1.5 0 00-1.5-1.5l-19.87 2a1.54 1.54 0 00-1.5 1.5 1.51 1.51 0 001.5 1.5z"/><path d="M17.85 3.87L20 2.76l-2.28-1.29c-.59 9.59.53 19.16 2.06 28.62s3.3 18.92 5 28.38c.33 1.89 3.22 1.09 2.89-.8-1.65-9.3-3.37-18.58-4.9-27.89S20.13 11 20.72 1.47a1.52 1.52 0 00-2.26-1.3l-2.12 1.11c-1.72.9-.2 3.49 1.51 2.59zm12.73 42.94c2.77 2.62 4.84 6.31 8.91 7a6.05 6.05 0 005.24-1.29A8.43 8.43 0 0047 47.46c.53-3.72-.47-7.87-3.49-10.33-2.73-2.23-6.92-3.08-10-1.06S28.9 42.67 31 46c1 1.62 3.64.12 2.59-1.51a3.67 3.67 0 01-.51-2.83 5 5 0 011.57-2.7c1.8-1.57 4.67-1.11 6.54.19 2.25 1.56 3.09 4.42 2.94 7a7.15 7.15 0 01-1.18 4 2.84 2.84 0 01-2.78.84c-3.35-.58-5.2-4.1-7.48-6.25-1.41-1.33-3.53.79-2.12 2.12zm19.81-10.23l2.18 15.18c.22 1.49 2.59 1.37 2.9 0 .69-3.06 0-6 0-9.11 0-2.28.6-5.47 3.36-5.87 2.45-.35 3.57 3.59 4.2 5.33a31.24 31.24 0 011.81 9.07h3a30 30 0 01.16-7.92c.17-1.09.64-4.32 2.32-4.13s2.06 3.27 2.36 4.42l2.08 7.92a1.5 1.5 0 002.89-.8c-.87-3.3-1.56-6.72-2.65-10-.74-2.22-2.25-4.69-4.92-4.59S66 38.69 65.38 41a29.1 29.1 0 00-.56 10.23c.19 1.88 3.09 2 3 0a34.1 34.1 0 00-2.39-11.1c-1.16-2.84-2.77-6.44-6.39-6.32-3.27.11-5.68 2.81-6.32 5.86-.79 3.77.7 7.6-.15 11.34h2.9l-2.19-15.23a1.5 1.5 0 00-1.84-1.05 1.53 1.53 0 00-1 1.85zM82 44.24a37.78 37.78 0 004.09-5.65 7.56 7.56 0 001.32-4.93 3.12 3.12 0 00-3.8-2.66c-2.11.46-3.44 2.82-4.25 4.63-1.59 3.57-2.09 8.3.07 11.76s6.25 4.23 9.86 3.13c4.48-1.37 7.27-5.38 9.75-9.09 1.07-1.61-1.52-3.11-2.59-1.51-1.66 2.48-3.39 5.14-6 6.77-2 1.26-4.81 1.87-7 .64-2.38-1.33-2.72-4.76-2.31-7.33a12.17 12.17 0 011.58-4.36A4.26 4.26 0 0184 34.09c.14-.08.25-.19.41-.13 0 0-.12-.28 0 .11.36 1-.63 2.47-1.12 3.29a33.54 33.54 0 01-3.45 4.76c-1.26 1.45.85 3.58 2.12 2.12z"/></g></g></svg>