<svg xmlns="http://www.w3.org/2000/svg" viewBox="0 0 90.98 50.84"><g data-name="Layer 2"><g data-name="Layer 1"><path d="M1.35 3.39a176.16 176.16 0 002.18 45.16c.34 1.9 3.23 1.09 2.89-.8A173 173 0 014.35 3.39c.16-1.92-2.84-1.91-3 0z"/><path d="M3 27.71c0 .54-.29.15.16.17a6 6 0 00.84-.14l2.57-.3 5-.58 10.09-1.18a1.54 1.54 0 001.5-1.5 1.52 1.52 0 00-1.5-1.5L9.12 24.14c-2 .24-4.11.41-6.14.73-1.5.23-3 1.15-3 2.84.06 1.93 3.06 1.94 3 0z"/><path d="M21 3.42l-.07-2a1.5 1.5 0 00-3 0 143.93 143.93 0 007.51 48.38c.61 1.82 3.51 1 2.89-.79a141.57 141.57 0 01-7.44-47.56h-3l.07 2c.07 1.92 3.07 1.93 3 0zm12.11 36.15a6.36 6.36 0 0012.58 1.2c1.18-5.87-5.37-13.31-11.4-10.11-2.82 1.5-4.43 5-2.9 8 .89 1.72 3.48.2 2.59-1.51-.14-.27-.08-.15 0-.08 0-.1-.07-.2-.1-.3s0-.21-.07-.31v-.51a4 4 0 01.19-.68 1.33 1.33 0 01.18-.37 5.81 5.81 0 01.33-.53 6.66 6.66 0 01.77-.75 3.07 3.07 0 012.21-.68 4.69 4.69 0 012.43.92 7.28 7.28 0 012.93 4.92 3.38 3.38 0 11-6.7.81 1.53 1.53 0 00-1.5-1.5 1.51 1.51 0 00-1.5 1.5zm18.36-1.75L53.52 44a1.51 1.51 0 002.9-.8 19.69 19.69 0 01-.67-5.82 17.65 17.65 0 01.33-2.89c.09-.44.19-.88.31-1.31 0-.13.29-.63.11-.55.44-.19 1.51.55 1.86.77A7.62 7.62 0 0160 34.81a8 8 0 011.87 4.1c.25 1.6 2.44 1.23 2.89 0a5.9 5.9 0 00.25-2.7 11.81 11.81 0 01-.26-2.28 2.35 2.35 0 01.46-1.16c.23-.12.24-.14 0-.06a.2.2 0 01.17.08 6.28 6.28 0 01.59.67 25.39 25.39 0 014.57 8.64c.58 1.84 3.47 1 2.9-.8a29.59 29.59 0 00-2.62-6 26.17 26.17 0 00-1.79-2.73 8.62 8.62 0 00-2.26-2.4c-1.77-1.06-3.72 0-4.52 1.74a5.16 5.16 0 00-.47 2.79c.12 1.15.49 2.31.08 3.44h2.89a10.67 10.67 0 00-2.92-5.72c-1.42-1.45-3.89-3.2-6-2.69-2.51.59-2.76 4.22-3 6.27a22.31 22.31 0 00.67 8l2.9-.8-2.04-6.2c-.61-1.82-3.51-1-2.89.8z"/><path d="M80.15 37.4a8.65 8.65 0 003.95-2.8 3.64 3.64 0 00-.21-4.5 4.42 4.42 0 00-4.1-1.17 5.51 5.51 0 00-3.58 2.87c-2.7 4.77-3.56 14.38 3.6 15.61 4.27.74 7.7-2 10.69-4.63 1.44-1.28-.69-3.4-2.12-2.12-1.83 1.63-3.84 3.5-6.36 3.84a3.89 3.89 0 01-4.49-2.56 10.72 10.72 0 01.27-6A10.25 10.25 0 0179 33a2.08 2.08 0 012-1.12 1.06 1.06 0 01.74.33.58.58 0 010 .55 4.67 4.67 0 01-2.39 1.8 1.55 1.55 0 00-1 1.84 1.53 1.53 0 001.85 1z"/></g></g></svg>