<svg xmlns="http://www.w3.org/2000/svg" viewBox="0 0 66.14 70.6"><g data-name="Layer 2"><path d="M4.11 14.18c.31-.11.61-.23.92-.33-.27.09.4-.09.39-.08a2.21 2.21 0 00.68-.36C6.71 13 7.34 12.6 8 12.2c1.13-.72 2.28-1.41 3.46-2.06a49.85 49.85 0 017.14-3.32 42.41 42.41 0 017.94-2c.44-.06.13 0 0 0l.52-.07.94-.11c.66-.06 1.32-.1 2-.12a33.18 33.18 0 013.86.11l.86.08.48.06c-.08 0-.48-.07 0 0 .64.1 1.27.21 1.9.34a33.91 33.91 0 013.72 1c.55.18 1.1.38 1.63.58.15.06 1 .44.5.2l.87.39a29.59 29.59 0 013.26 1.8c.5.33 1 .67 1.49 1l.3.23c-.42-.32-.07-.05 0 0 .28.22.54.44.81.67a25.79 25.79 0 012.64 2.69c.21.25.42.5.62.76-.29-.37 0 0 .07.11l.33.44c.42.59.82 1.2 1.2 1.81a38.94 38.94 0 012 3.66c.16.33.31.66.46 1l.18.4c0 .06.31.73.09.22.29.67.56 1.35.81 2 .53 1.39 1 2.79 1.45 4.21a44.3 44.3 0 011.16 4.57c.06.3.11.61.17.92s.07.46.11.7c0 .08.06.48 0 0 .09.77.17 1.55.21 2.33a27.4 27.4 0 01-.1 4.15v.31a5.2 5.2 0 01-.14.88c-.11.58-.23 1.15-.38 1.72a25.24 25.24 0 01-1 3.19 5 5 0 01-.2.49c0-.06.23-.51.05-.11s-.24.54-.37.81c-.25.53-.52 1-.81 1.57a28.93 28.93 0 01-1.8 2.84c-.17.25-.35.48-.52.72s0 0 .06-.07c-.08.12-.19.23-.28.34-.39.49-.8 1-1.22 1.43A32.37 32.37 0 0152 57.58c-.42.38-.85.75-1.3 1.11-.11.09-.77.64-.27.22-.25.22-.53.4-.8.6A34.09 34.09 0 0143.52 63c-.14.06-.28.13-.42.18h.1l-.84.33c-.56.21-1.13.41-1.7.59a35.28 35.28 0 01-3.54.9c-.68.14-1.37.25-2 .36-.12 0-.49 0 0 0l-.42.05-1.24.13c-1.32.11-2.64.15-4 .13s-2.78-.12-4.16-.27h-.38c-.35 0-.69-.09-1-.15-.69-.11-1.37-.24-2.06-.38A50.07 50.07 0 0114 62.45l-1-.39-.39-.16c.44.18.1 0 0 0-.68-.29-1.36-.59-2-.91-1.24-.6-2.46-1.24-3.66-1.91s-2.31-1.33-3.48-2a2.33 2.33 0 00-3 .59 2.29 2.29 0 00.18 3 39.17 39.17 0 007.73 4.67 58 58 0 008.28 3.19A46 46 0 0034 70.41a37.21 37.21 0 0015.42-4.85 36.46 36.46 0 0011.32-10.45A29.92 29.92 0 0066 41c.63-6.32-1.09-12.7-3.36-18.54-2.17-5.58-5-11-9.66-15A31.53 31.53 0 0038.34.57C26.85-1.51 15.15 2.25 5.89 9.09c-.63.47-1.24 1-1.86 1.47-.1.09-.23.18-.32.27s-.62.95-.46.7c-.18.28-.37.54-.55.81a1.26 1.26 0 001.41 1.84z" data-name="Layer 1"/></g></svg>