<svg xmlns="http://www.w3.org/2000/svg" viewBox="0 0 61.75 63.1"><g data-name="Layer 2"><path d="M11.5 13.45c2.38-.09 4.75-.45 7.11-.74l7.11-.87a.69.69 0 00.66-.66q-.14-3.63-.59-7.18c-.13-1-.2-2-1.14-2.52a11.67 11.67 0 00-3-1.1 7.87 7.87 0 00-6.07.61A8.79 8.79 0 0012.16 5a17.53 17.53 0 00-1.36 7.26c0 .71 1.16.93 1.29.17A49.5 49.5 0 0113 6.88a8.7 8.7 0 012.43-4.08 5.78 5.78 0 014.86-1.32 13.85 13.85 0 012.71.76c.34.13.93.25 1.14.59a3.5 3.5 0 01.26 1.36c.3 2.32.5 4.65.63 7l.48-.63-7.1 1c-2.35.32-4.74.58-7.06 1.11a.42.42 0 00.11.82zm28.98-8.52A5.08 5.08 0 0037 .48a5.35 5.35 0 00-5.6 1.71c-1.65 2-1.32 4.59-1.1 7l.81 8.67c.26 2.72.37 5.5.85 8.2.39 2.21 1.42 4.53 3.53 5.59a5 5 0 005.87-1.25c1.68-1.79 2.09-4.3 2.15-6.66a47.09 47.09 0 00-.76-9.18 61.66 61.66 0 00-2.18-9.21.76.76 0 00-1.46.4c.56 2.33 1.25 4.63 1.75 7a53.71 53.71 0 011.09 7.12 22 22 0 01-.2 6.83c-.46 1.85-1.74 3.79-3.79 4.06s-3.51-1.45-4.14-3.13c-.81-2.17-.81-4.63-1-6.9L32 13.24l-.36-3.71a28.59 28.59 0 01-.24-3.46 4.6 4.6 0 011.12-3.18 4.18 4.18 0 012.68-1.31A4.43 4.43 0 0139.67 5a.41.41 0 00.81-.11zM25.26 18.47c-.06-.25.11-.07-.09-.08s-.23 0-.33 0c-.32 0-.66-.08-1-.1-.69 0-1.39-.07-2.08-.09h-4.05q-4.05.09-8.08.44c-2.37.2-5 .28-7.06 1.6a5.12 5.12 0 00-2.5 5.28 6.62 6.62 0 004.1 4.58 22.39 22.39 0 007.18 1.2q4 .28 8.09.25c2.32 0 4.53-.13 6.42-1.62a7.07 7.07 0 00-.48-11.55c-.87-.55-1.55.75-.78 1.34a5.9 5.9 0 012.4 4.61 5.56 5.56 0 01-2.26 4.49c-1.75 1.31-4 1.19-6 1.19-2.46 0-4.91-.09-7.36-.26a20.71 20.71 0 01-6.55-1.06c-1.7-.69-3.32-2.29-3.24-4.24s2.17-3.2 3.93-3.63a41.65 41.65 0 017.06-.75c2.78-.18 5.56-.31 8.34-.36a38.16 38.16 0 004-.11c.72-.08 1.66-.76 1-1.51-.27-.31-.74 0-.66.38zm18.81 16.16c-1.35-.27-2.74-.41-4.11-.56a14.69 14.69 0 00-3.44-.07A5.12 5.12 0 0032 38c-.51 2.09-.31 4.62 1.24 6.24S37 46.07 39 46.07c2.7 0 5.4-.2 8.08-.31s5.63-.07 8.39-.42c2.24-.29 4.62-1.18 5.75-3.29a5.13 5.13 0 00-1-5.88c-1.86-2.07-4.72-2.54-7.36-2.62H48.3c-1.56 0-3.25 0-4.87.07a.76.76 0 000 1.51c2.42.16 4.87.08 7.3.08 2.15 0 4.46-.09 6.46.81 1.57.7 3 2.28 2.93 4.1s-2.08 3-3.76 3.44a18.86 18.86 0 01-3.36.34l-3.7.18-7.4.34a18.09 18.09 0 01-5.83-.18 4 4 0 01-2.9-4.11 6 6 0 01.73-3.19 3.61 3.61 0 012.62-1.64 13.7 13.7 0 013.2 0c1.41.11 2.83.24 4.24.22.5 0 .64-.79.12-.89zM27.24 36.3a4.08 4.08 0 00-4.34-1.94 6 6 0 00-4.42 3.37A16 16 0 0017 44.38a45.41 45.41 0 00.49 8.15 30.57 30.57 0 001.4 7 5.18 5.18 0 004.13 3.58 6.25 6.25 0 005-2.09 9.33 9.33 0 002.11-6.25 53.41 53.41 0 00-.89-8.64c-.46-3.12-.92-6.26-1.6-9.34-.22-1-1.65-.56-1.49.41.82 4.76 1.71 9.49 2.31 14.29.44 3.59.56 8.49-3.51 10a3.44 3.44 0 01-4.24-1.25c-1-1.54-1.25-3.52-1.56-5.3-.77-4.54-1.44-9.42-.49-14 .4-1.92 1.23-4.08 3.09-5a3.79 3.79 0 014.69.79.43.43 0 00.75-.44zm-12.49 9.33a27 27 0 00-.06-4.58c-.07-1.53-.16-3-.23-4.58a.65.65 0 00-.46-.6 44.51 44.51 0 00-7.2-.65 12.48 12.48 0 00-3.51.14 2.61 2.61 0 00-1.68 1.93c-1.07 3.78 1.73 7.6 5.11 9a11.46 11.46 0 006.9.48c.92-.22.51-1.53-.39-1.39-3.24.5-6.9.08-9-2.69a6.14 6.14 0 01-1.35-4.31c.07-.74.29-1.6 1.14-1.7a20.75 20.75 0 012.95 0c2.31 0 4.61.23 6.91.47l-.62-.62c.1 1.57.21 3.14.31 4.7a27.79 27.79 0 00.5 4.56c.1.44.68.29.73-.1zm30.64-15.7c.39-3.88.21-7.85.22-11.76l-.44.58c2.52-.7 5.12.75 6.57 2.78 1.66 2.35 2.14 5.32 2.5 8.11l.95-.72a68.28 68.28 0 00-5.16-.52 50.1 50.1 0 00-5.2-.18.81.81 0 000 1.61c1.69.11 3.39.1 5.09.2s3.38.23 5.07.36c.54.05.8-.51.73-.95-.51-3.15-1.14-6.5-3.24-9-1.81-2.19-4.8-3.63-7.63-2.81a.61.61 0 00-.44.57c0 3.91-.18 7.88.21 11.76a.39.39 0 00.77 0zM34.54 51.1a46.57 46.57 0 00.11 4.9c.07 1.54.15 3.09.23 4.63 0 .54 0 1.18.45 1.57a1.7 1.7 0 001.47.23 12.88 12.88 0 003.45-1.16 9.75 9.75 0 004.88-5.17 13.85 13.85 0 00.78-4c.05-.68.07-1.36.09-2a1.59 1.59 0 00-.61-1.52 4.34 4.34 0 00-2.18-.17c-.82 0-1.63.09-2.45.18a21.6 21.6 0 00-5.1 1.11.7.7 0 00.34 1.24c1.22-.26 2.42-.6 3.66-.81a29.62 29.62 0 013.76-.42h.93a1.59 1.59 0 01.38 0c-.18-.08 0-.13-.1 0a3.06 3.06 0 000 .8v.86a15.61 15.61 0 01-.45 3.54 8.08 8.08 0 01-3.7 4.86A11.46 11.46 0 0137.7 61a4.72 4.72 0 01-1.38.33c-.36 0-.33-.21-.35-.53s0-.73-.07-1.09a82.16 82.16 0 00-.72-8.71c-.07-.38-.62-.26-.64.09z" data-name="Layer 1"/></g></svg>