<svg xmlns="http://www.w3.org/2000/svg" viewBox="0 0 59.82 60.79"><g data-name="Layer 2"><path d="M14.65 12.62a65.88 65.88 0 0011 .17.64.64 0 00.64-.64C26.13 8.87 26 5.59 26 2.31a.7.7 0 00-.49-.64C22 .85 18 0 15 2.5c-2.71 2.25-3.46 6.89-2.28 10.09a.68.68 0 001.28-.36c-.56-2.9-.52-6.65 2-8.69s6.21-1.27 9.1-.59l-.49-.64c0 3.28.11 6.57.35 9.84l.64-.64c-3.66.21-7.31.11-11 .19a.46.46 0 000 .92zm27-9.31A7.07 7.07 0 0036.05 0a5.48 5.48 0 00-5.11 3c-1 2.07-1.05 4.5-1 6.76.07 2.79.31 5.56.17 8.35-.12 2.57-.34 5.23.52 7.7a6.94 6.94 0 004.17 4.49 4.81 4.81 0 005.47-1.55 10.14 10.14 0 001.57-5.62c.36-6.42.42-12.89.22-19.31a.77.77 0 00-1.53 0c.09 5.07.12 10.15 0 15.22a37.77 37.77 0 01-.37 6.38c-.33 1.67-1.17 3.43-3 3.74a4.61 4.61 0 01-4.54-2.39 11.29 11.29 0 01-1.21-6.24c.07-2.45.2-4.87.08-7.32a42.81 42.81 0 01-.05-7c.26-2.08 1.17-4.18 3.38-4.75s4.51.77 6.08 2.4c.37.39 1.07-.12.76-.59zm-15.9 13.94a63.32 63.32 0 00-8-1.1c-2.69-.25-5.39-.43-8.08-.51-2.27-.07-4.71 0-6.62 1.42a7.08 7.08 0 00-1 10.81 8.93 8.93 0 005.67 2.39 45.47 45.47 0 007-.15 19.46 19.46 0 006.48-1 7.4 7.4 0 004.34-4.95 16.22 16.22 0 00.28-6.9c-.15-.85-1.44-.61-1.46.2-.08 3.37.55 7.64-2.85 9.71a11.71 11.71 0 01-5.39 1.3c-2.1.13-4.22.29-6.32.31a10.41 10.41 0 01-5.52-1.12 5.52 5.52 0 01-.57-9.11c1.61-1.29 3.77-1.37 5.74-1.32 2.68.06 5.37.23 8.05.43s5.4.54 8.11.68a.54.54 0 00.14-1.06zM25.2 32c-1.92-1-5.13-1.65-7-.12s-2.36 4.2-2.63 6.37a50.56 50.56 0 00.87 16.18c.43 2.17.93 4.69 3.1 5.79a6.21 6.21 0 005.34-.09c4.23-1.93 4.91-7.32 5-11.41a42.38 42.38 0 00-3.09-17.67.84.84 0 00-1-.57.81.81 0 00-.57 1 47.14 47.14 0 013.09 13.76 37.71 37.71 0 01-.05 6.76 10.4 10.4 0 01-2.06 5.48 5.51 5.51 0 01-4.4 2c-2-.09-3.06-1.53-3.55-3.35a50.79 50.79 0 01-1.5-14.48c.07-2.49.22-5.12 1.41-7.36a4.1 4.1 0 011-1.38 3 3 0 011.71-.51 14.47 14.47 0 014 .48c.46.11.79-.56.33-.8zm-12.55.81a7.67 7.67 0 00-4.06-.87 10.87 10.87 0 00-4 .75 6.4 6.4 0 00-3.73 5.76c-.08 2.47 1 5.45 3.55 6.29a11.3 11.3 0 004.21.44 14.5 14.5 0 002.07-.28 2.92 2.92 0 001.6-.73 2.8 2.8 0 00.48-1.94c0-.85 0-1.7.06-2.54 0-1.73.09-3.46.12-5.19a.78.78 0 00-1.56 0c-.05 2.5-.06 5-.1 7.51 0 .33.11 1-.19 1.22a3.78 3.78 0 01-1.53.36 11.31 11.31 0 01-3.58 0 3.55 3.55 0 01-2.61-1.39 6.31 6.31 0 01-1-3 5.15 5.15 0 012.48-4.93 8.42 8.42 0 013.63-.82c1.33 0 2.61.23 3.93.28a.46.46 0 00.23-.86zm22.13.26c.56-.89-.78-1.3-1.39-.89a4.15 4.15 0 00-1.56 2.34 8.44 8.44 0 00.6 6c1.12 1.87 3.32 2.4 5.35 2.49 2.54.12 5.13-.06 7.67-.18a77.64 77.64 0 008.07-.63c2.15-.33 5.08-1 6-3.25a6.09 6.09 0 00-1.23-5.9A9.1 9.1 0 0052.58 30a28.59 28.59 0 00-8.46.32A86.91 86.91 0 0035 32c-1 .26-.59 1.79.44 1.57a89.25 89.25 0 0113-2.09c3.51-.22 8 .44 9.4 4.26a4 4 0 01.16 2.34 2.7 2.7 0 01-1.94 1.82A20.75 20.75 0 0150 41c-2.25.16-4.51.28-6.76.38a47.78 47.78 0 01-6.1.07 5.49 5.49 0 01-2.53-.76 3.55 3.55 0 01-1.37-2.45 9 9 0 01-.11-2.78 4.81 4.81 0 01.37-1.28 3.1 3.1 0 01.29-.5l.21-.24c.23-.23.17 0 0-.29l-.14-.53v.08a.54.54 0 001 .42zm10.04-4.93a17.78 17.78 0 004.55-.06c1.48-.1 3-.23 4.42-.39a2.8 2.8 0 001.67-.52 2.42 2.42 0 00.7-1.54 15.64 15.64 0 00-.29-4.09c-.37-2.18-1.15-4.74-3.27-5.83a4.41 4.41 0 00-6 2.05 17 17 0 00-1.28 4.47 23.66 23.66 0 00-.45 5.1.76.76 0 001.51 0 32.66 32.66 0 011-7.35 4.88 4.88 0 011.4-2.61 2.86 2.86 0 012.46-.52c1.81.49 2.53 2.58 2.89 4.21a22.37 22.37 0 01.47 3.65 3.23 3.23 0 01.02 1.29c-.19.46-1 .39-1.38.44-1.4.16-2.8.29-4.2.4a22 22 0 00-4.22.43c-.43.12-.48.83 0 .92zM33.74 46.13a23.41 23.41 0 00-.14 3.65c0 1.22 0 2.45.14 3.67.17 1.92.79 4.07 2.7 4.94 1.74.79 4 0 5.43-1a9.51 9.51 0 003.39-4.42 14.93 14.93 0 00.5-7.62.71.71 0 00-.68-.53 39.41 39.41 0 00-5.75.27 26.15 26.15 0 00-5.63 1.06c-.71.25-.67 1.54.2 1.43 1.86-.24 3.68-.72 5.55-.95s3.75-.33 5.63-.38l-.69-.52c.73 3.49.28 7.55-2.48 10.08a5.67 5.67 0 01-4.46 1.68c-1.86-.35-2.4-2.52-2.54-4.12-.2-2.36-.06-4.74-.27-7.09 0-.47-.82-.67-.9-.12z" data-name="Layer 1"/></g></svg>