<svg xmlns="http://www.w3.org/2000/svg" viewBox="0 0 152.52 133.04"><g data-name="Layer 2"><g data-name="Layer 1"><path d="M1.24 101.28A54.69 54.69 0 0012.9 115a73.26 73.26 0 0015 10.16A70.82 70.82 0 0063 133a84.59 84.59 0 0022-4.12 88 88 0 0016.53-7.22c10.29-5.86 19.52-14.18 25.09-24.76 6.59-12.53 7.19-26.95 6.62-40.81-.07-1.7-.19-3.4-.36-5.09a2.19 2.19 0 00-4.38 0c0 3.48.26 7 .33 10.44s0 6.81-.18 10.21c-.11 1.69-.26 3.37-.47 5-.08.71-.15 1.18-.31 2.13s-.31 1.81-.49 2.71a54 54 0 01-2.88 9.64s-.3.71-.12.29l-.15.36-.48 1.06c-.3.64-.61 1.27-.94 1.9q-1 1.88-2.1 3.66a54.08 54.08 0 01-2.45 3.53c-.1.13-.19.26-.29.38l-.13.17-.61.75c-.48.59-1 1.17-1.49 1.75a61.48 61.48 0 01-6.06 5.91q-.81.69-1.65 1.35l-.3.24-.19.15-.93.7q-1.75 1.31-3.6 2.5a80.36 80.36 0 01-7.54 4.33q-1.93 1-3.9 1.83l-.9.39c-.59.25.37-.15-.23.09l-.54.23c-.66.27-1.33.53-2 .78a91.62 91.62 0 01-9.61 3q-2.6.67-5.22 1.18c-1.71.32-3.41.6-5 .78a69 69 0 01-9.85.48c-1.47 0-2.94-.12-4.41-.26q-1-.09-2-.21l-.58-.07c.42.05-.22 0-.25 0l-1.16-.17a70.73 70.73 0 01-8.42-1.9c-1.39-.4-2.76-.85-4.11-1.33-.68-.25-1.36-.49-2-.75l-.91-.37-.55-.22-.36-.15h-.07a70.22 70.22 0 01-27.2-20.62c-.92-1.15-1.8-2.18-2.72-3.33a1.45 1.45 0 00-2.27 1.75z"/><path d="M131.21 52.64a32.56 32.56 0 0011.64-9.16 43 43 0 007.53-12.93 33.23 33.23 0 002-8.34 1.65 1.65 0 00-.84-1.46 1.57 1.57 0 00-1.3-.17 1.69 1.69 0 00-1.24 1.18 54.34 54.34 0 01-1.64 6.89 36.62 36.62 0 01-2.66 6.29 41 41 0 01-8.51 11 67.87 67.87 0 01-6.08 4.87 1.06 1.06 0 001.07 1.83z"/><path d="M125 40.38a34.47 34.47 0 0012.39-5.33 56.73 56.73 0 0010.3-8.56c.87-.92 1.71-1.87 2.5-2.86a5.67 5.67 0 00.39-.5 5.74 5.74 0 00.2-.58c.11-.2.31-.44.45-.65.38-.54.74-1.1 1.1-1.66a1.35 1.35 0 00-2.11-1.63c-.62.78-1.26 1.55-1.91 2.29l.66-.38a2.89 2.89 0 00-1.43 1c-.34.41-.69.81-1 1.21-.66.75-1.34 1.49-2 2.2a56.4 56.4 0 01-4.49 4.07 60.55 60.55 0 01-9.83 6.44c-2 1.06-4 2.05-6 3.12-1 .57-.28 2 .77 1.82z"/><path d="M126.33 37.59a47.66 47.66 0 008-11.79 45.87 45.87 0 004-14.06q.24-1.94.3-3.9a18 18 0 00-.43-4.26 1.29 1.29 0 00-1.42-.92 1.32 1.32 0 00-1.13 1.27c-.13 1.17-.28 2.32-.33 3.5s-.11 2.2-.23 3.29a48.27 48.27 0 01-1.14 6.45 50.85 50.85 0 01-5 12.52 41.34 41.34 0 01-4.19 6.36 1.11 1.11 0 000 1.54 1.09 1.09 0 001.54 0z"/><path d="M114 28.05a54 54 0 0010.61-8.57 73.6 73.6 0 008.69-10.6 56.56 56.56 0 003.84-6.61 1.55 1.55 0 00-.53-2.07 1.55 1.55 0 00-2.08.54 89.16 89.16 0 01-7.21 11 79.08 79.08 0 01-9 9.63c-1.86 1.68-3.8 3.26-5.72 4.86-1 .88.3 2.54 1.44 1.87z"/><path d="M115.36 25.47a14.23 14.23 0 00-1.36-1.34l-1.65-1.34a39.27 39.27 0 00-3.53-2.48 46.88 46.88 0 00-7.44-3.7 33.38 33.38 0 00-15.7-2.52c-9.34 1-18.57 6.85-21.61 16.05C62 36.46 63.6 43.58 66 49.57a1.87 1.87 0 002.22 1.26 1.84 1.84 0 001.27-2.22c-.61-2.83-1.45-5.61-1.9-8.46-.08-.52-.14-1-.2-1.69s-.08-1.5-.07-2.26c0-.59.06-1.4.12-1.85s.18-1.07.3-1.57.24-.9.39-1.34c.08-.25.17-.49.26-.74s.1-.27.16-.4c-.11.27-.07.16 0 0a18.43 18.43 0 011.5-2.72l.45-.64.21-.28c-.26.35-.08.1 0 0 .34-.43.7-.85 1.08-1.25a23.39 23.39 0 012.24-2.1l.2-.16.13-.1.65-.47c.44-.3.88-.6 1.34-.87a25.87 25.87 0 012.86-1.49l.32-.15c.53-.24-.27.1.06 0l.75-.3c.51-.18 1-.35 1.54-.51a25.4 25.4 0 013.12-.77c.17 0 .79-.1.31 0l.8-.09c.61-.05 1.23-.08 1.85-.1a30.36 30.36 0 013.69.15c.31 0 .62.06.93.1.06 0 .42.06.07 0l.41.07c.66.1 1.32.22 2 .36 1.24.27 2.46.61 3.66 1 .68.22 1.34.45 2 .71s1 .4 1.69.69c1.3.59 2.58 1.23 3.83 1.92s2.48 1.43 3.72 2.14c.61.36 1.24.71 1.83 1.1s1.28.73 1.93 1.11a1.36 1.36 0 001.64-2.13z"/><path d="M67.23 48.05a101.18 101.18 0 00-12.53-1.31c-3.9-.28-7.81-.48-11.7-.92a61 61 0 01-11.21-2.25c-.74-.24-1.48-.5-2.2-.77l-1.09-.44c.3.13 0 0-.05 0l-.72-.36a34.54 34.54 0 01-4.26-2.34c-.38-.25-.76-.5-1.13-.76l-.47-.34-.36-.27q-1.07-.84-2-1.77c-.65-.62-1.29-1.25-1.88-1.93-.29-.34-.57-.69-.85-1l-.37-.44-.24-.3c.08.1.06.07-.08-.11a1.73 1.73 0 10-3 1.76c3.21 6.17 9.64 10.13 16 12.44 7.52 2.73 15.63 3.16 23.55 3.57a107.76 107.76 0 0014.26.24 1.39 1.39 0 001.35-1.18 1.37 1.37 0 00-1-1.5z"/><path d="M12 32.31a13 13 0 00-.28 3.3c0 1-.08 2.1-.08 3.16a26.39 26.39 0 00.61 6.07 21.75 21.75 0 004.88 9.26 17.93 17.93 0 004.68 3.76 1.46 1.46 0 101.47-2.52 21.23 21.23 0 01-6.17-6.77 20.28 20.28 0 01-2.52-9.44c-.05-1.17-.07-2.35-.12-3.52a8.91 8.91 0 00-.6-3.55 1 1 0 00-1.87.25z"/><path d="M21.79 57a2 2 0 00-1.21-.89 12.16 12.16 0 00-1.47-.37c-1-.19-2-.29-3-.4s-1.9-.23-2.85-.32l-1.43-.13a3 3 0 00-1 0 1.64 1.64 0 00-.72.42c-.28.38-.34.45-.18.2a1.3 1.3 0 00-.2 1.58 2.44 2.44 0 00.71.79 2.59 2.59 0 001.13.25l1.53.13c1 .08 1.9.14 2.85.2s1.91.13 2.85.13 2.27 0 3-.73a.73.73 0 00.11-.87z"/><path d="M10.77 56.43c-1 .7-.67 2.2-.48 3.22a16.9 16.9 0 00.88 3 24.26 24.26 0 003 5.6 25.22 25.22 0 009.68 8.06 24.19 24.19 0 003.41 1.3A14.41 14.41 0 0029 78a9.88 9.88 0 002 0 1.18 1.18 0 00.32-2.31c-.48-.14-.87-.33-1.33-.49s-1-.24-1.55-.38a21.48 21.48 0 01-2.6-.82 22.5 22.5 0 01-4.93-3 23 23 0 01-7.06-9.16 28.2 28.2 0 01-1-3c-.15-.5-.31-1-.5-1.51s-.89-1.4-1.56-.92z"/><path d="M30.69 76.54a4.88 4.88 0 00-1.46.31c-.36.13-.9.26-1.37.39s-.94.2-1.41.29h-1.27a14.07 14.07 0 01-5.42-1 1.59 1.59 0 00-1.88.92 1.6 1.6 0 00.66 2 9.49 9.49 0 001.68.78 6.49 6.49 0 00.76.28 7.43 7.43 0 00.79.17 12.09 12.09 0 003.5.2 17.42 17.42 0 001.73-.22 10.3 10.3 0 001.55-.47 11.66 11.66 0 001.62-.81 4 4 0 001.37-1.31 1 1 0 00-.88-1.53z"/><path d="M19.47 79.5A24.65 24.65 0 0023 85.1a28.14 28.14 0 004.49 4.76 20.91 20.91 0 005.51 3.3 14 14 0 003 .84 6.87 6.87 0 003.43 0 1.34 1.34 0 000-2.57 24 24 0 00-2.83-.36 16.62 16.62 0 01-2.78-.78 16.82 16.82 0 01-4.64-2.73A30.89 30.89 0 0125 83.28c-1.29-1.56-2.37-3.32-3.79-4.77-.67-.68-2.1 0-1.7 1z"/><path d="M38.74 92.11c-2.06 1.6-3.94 3.39-6.11 4.85a37.49 37.49 0 01-6.81 3.65 39 39 0 01-7.66 2.19 31.45 31.45 0 01-3.76.45 36 36 0 01-3.89.06c-.74 0-1.48-.08-2.21-.14l-1.11-.11h-.25l-.55-.06c-1.66-.24-3.08-.37-4.62-.65a1.44 1.44 0 00-1.67.81 1.41 1.41 0 00.58 1.77 21.81 21.81 0 004.2 1.47 33.46 33.46 0 004.34.56 38.14 38.14 0 008.6-.5 38.6 38.6 0 0015.56-6.33 23.2 23.2 0 006.91-6.76A1 1 0 0040 92a1 1 0 00-1.3.07z"/></g></g></svg>