<svg xmlns="http://www.w3.org/2000/svg" viewBox="0 0 147.59 140.15"><g data-name="Layer 2"><g data-name="Layer 1"><path d="M.21 108.51c2.8 5.81 7.37 10.81 12.24 15A66.56 66.56 0 0029 133.88c13.71 6 28.86 7.43 43.62 5.43a101.92 101.92 0 0021.74-5.42 80.24 80.24 0 0017.71-9 56.13 56.13 0 0014.37-14A51.52 51.52 0 00134.51 91a69.06 69.06 0 00.36-22.5 95 95 0 00-6.25-22.23q-1.12-2.77-2.37-5.52a2.51 2.51 0 00-3.4-.89 2.56 2.56 0 00-.89 3.4c.4.85.78 1.7 1.16 2.55l.54 1.23s.31.75.13.31l.33.79q1.09 2.66 2.06 5.36a95.79 95.79 0 013.14 10.75q.62 2.73 1.05 5.49l.18 1.2a2 2 0 010 .35l.09.72c.11 1 .21 1.94.28 2.91a62.87 62.87 0 01-.07 10.45 52.35 52.35 0 01-1.85 9.89 44.31 44.31 0 01-3.75 9.28 45.32 45.32 0 01-2.64 4.32c-.43.62-.87 1.23-1.34 1.83l-.17.22-.39.48c-.26.32-.52.63-.79.94A52.32 52.32 0 01113 119c-.69.56-.82.65-1.54 1.19s-1.34 1-2 1.43q-2 1.34-4 2.54a80.76 80.76 0 01-8.58 4.29c-.63.27.36-.15-.27.11l-.39.16-1.16.47c-.78.31-1.56.6-2.34.89-1.58.57-3.16 1.11-4.76 1.6a102 102 0 01-10.86 2.72 88.6 88.6 0 01-22 1.5 70.83 70.83 0 01-10.86-1.44 72 72 0 01-9.42-2.65 61.48 61.48 0 01-8.28-3.64 70.66 70.66 0 01-8-4.85 59 59 0 01-7-5.76 70.06 70.06 0 01-6.23-6.88c-.88-1.12-1.81-2.37-2.71-3.56a1.35 1.35 0 00-2.32 1.36z"/><path d="M125.18 43.89a17.17 17.17 0 005.46-2.48 47.27 47.27 0 005-3.59 44.74 44.74 0 008-8.81 30.87 30.87 0 001.75-2.78c.26-.48.52-1 .76-1.45a3.43 3.43 0 00.5-2.31v.81c.32-.77.62-1.54.9-2.32a1.36 1.36 0 00-2.55-1.05q-.57 1.11-1.2 2.19l.54-.54c-1 .48-1.41 1.74-1.95 2.62s-1 1.59-1.5 2.37a39 39 0 01-3.26 4.34 45.5 45.5 0 01-8.15 7.45c-1.78 1.25-3.74 2.32-5.41 3.72-.9.76.09 2 1.07 1.83z"/><path d="M120 32.79a12.34 12.34 0 003.4-.51c1-.26 2-.54 3-.83a57.72 57.72 0 006.31-2.4 58 58 0 005.74-2.87q1.4-.8 2.73-1.68c1.07-.71 2.7-1.46 2.68-2.92a1.62 1.62 0 00-1.15-1.51c-1.2-.46-2.49.76-3.45 1.36s-1.83 1.11-2.75 1.65c-1.78 1-3.61 2-5.48 2.88s-3.64 1.57-5.51 2.3c-1 .37-1.94.71-2.92 1a16.88 16.88 0 00-3.19 1.24 1.22 1.22 0 00.61 2.26z"/><path d="M120.26 33a45.49 45.49 0 009.94-24.21 30.52 30.52 0 000-7.58A1.66 1.66 0 00128.39 0a1.69 1.69 0 00-1.45 1.64c-.11 2.06-.11 4.12-.28 6.18a42.74 42.74 0 01-.88 5.95 49.86 49.86 0 01-4 11.57c-1 2.1-2.16 4.16-3.4 6.15-.7 1.13 1 2.5 1.88 1.45z"/><path d="M100.49 27.29c9.61-2.09 17-9 23-16.38 1.84-2.27 3.54-4.62 5.2-7a1.68 1.68 0 00-.44-2.19 1.67 1.67 0 00-2.23.13c-5.82 7.29-11.28 15.3-19.47 20.15a32.34 32.34 0 01-6.66 3.12 1.12 1.12 0 00.6 2.15z"/><path d="M101.68 25.23c-.47-.56-.88-1.17-1.4-1.69A19 19 0 0098.59 22a38.86 38.86 0 00-3.85-2.79 34.6 34.6 0 00-8.13-3.85 25.34 25.34 0 00-16.84.34 28.39 28.39 0 00-12.63 10 29.51 29.51 0 00-5.26 16.22A34.77 34.77 0 0053.08 52a37.65 37.65 0 001.77 5c.33.77.68 1.53 1.06 2.28a11.75 11.75 0 00.62 1.09 4.49 4.49 0 001 1.08 1.67 1.67 0 002.76-1.61A4.3 4.3 0 0060 58.6c-.15-.32-.3-.64-.46-1-.33-.65-.65-1.31-1-2 0-.07-.2-.47-.09-.2l-.15-.38c-.14-.33-.26-.65-.38-1-.26-.69-.49-1.39-.7-2.09a35.21 35.21 0 01-1-4.18c0-.31-.1-.62-.14-.93s0 .48 0-.18v-.42C56 45.55 56 44.79 56 44a30.29 30.29 0 01.13-4.15v-.41c0-.14.09-.69 0-.29.05-.34.11-.68.17-1 .12-.68.27-1.36.44-2s.37-1.34.59-2c.09-.27.19-.55.29-.82s.11-.28.16-.43.25-.58.08-.18a24.73 24.73 0 011.66-3.24c.32-.52.65-1 1-1.53l.54-.74c.23-.31.07-.09 0 0 .14-.17.27-.34.41-.5A27.21 27.21 0 0164 24c.42-.39.86-.77 1.31-1.13l.16-.13.29-.22c.29-.22.58-.43.88-.63a25.68 25.68 0 013.13-1.81l.82-.37c.07 0 .36-.15 0 0l.42-.17c.59-.23 1.19-.43 1.79-.61s1.16-.32 1.75-.44l.8-.15.45-.07c.59-.1-.42 0 .18 0a25.29 25.29 0 014.08-.11q.51 0 1 .09l.5.05c.39.05-.47-.07.18 0s1.34.23 2 .39a29.78 29.78 0 014.5 1.43l.38.15.12.05.28.12 1 .48c.72.35 1.43.73 2.13 1.12 1.36.77 2.69 1.63 4 2.53.62.44 1.24.89 1.87 1.32s1.39.85 2.06 1.32a1.26 1.26 0 001.64-.32 1.3 1.3 0 00-.1-1.66z"/><path d="M59.43 58.32c-1-.07-1.94-.19-2.92-.25S54.56 58 53.58 58l-5.85-.13c-3.8-.11-7.62-.3-11.4-.74a60.73 60.73 0 01-19-5.26 49.25 49.25 0 01-4.7-2.65c-1.56-1-3.14-2-4.69-3a1.48 1.48 0 00-1.92.38 1.52 1.52 0 00.11 2c.53.64 1.06 1.28 1.64 1.87a18.87 18.87 0 002.31 1.89A34.72 34.72 0 0014.35 55a54 54 0 009.56 3.89A79.4 79.4 0 0046 61.8c2.19 0 4.39.06 6.58-.07 1.21-.07 2.43-.11 3.64-.23s2.11-.27 3.18-.39a1.44 1.44 0 001.39-1.4 1.42 1.42 0 00-1.39-1.39z"/><path d="M6.18 46.18l.24.14.25.6c0 .44-.28.62-.77.53l-.48-.28.07.06-.29-.49v-.23l.34-.57a8.47 8.47 0 00-1.3 2.47 11.41 11.41 0 00-.61 2.22A17.12 17.12 0 007.87 64.9 16.07 16.07 0 0010 66.85a5.07 5.07 0 003 1.31 1.56 1.56 0 001.43-1 1.61 1.61 0 00-.32-1.71c.24.31-.2-.26-.2-.25a2.25 2.25 0 00-.46-.41l-.56-.35a6.49 6.49 0 01-.55-.36l-.34-.16c-.43-.3.24.21-.16-.12A14.94 14.94 0 0110 62c0-.05-.44-.54-.24-.28l-.38-.54a12.8 12.8 0 01-.79-1.27c-.21-.38-.4-.78-.59-1.18 0 0-.14-.31 0 0l-.12-.31c-.08-.2-.16-.41-.23-.62A18.46 18.46 0 017 55c0-.06 0-.34 0 0v-.33c0-.11 0-.44-.05-.66a13.12 13.12 0 010-1.4 12.24 12.24 0 01.1-1.23c0 .28 0-.26.06-.37 0-.27.11-.54.16-.81A15.6 15.6 0 008 47.32a1.89 1.89 0 00-1-1.8 1.35 1.35 0 00-1.62.27c-.78.86-.07 2.57 1.15 1.88a.8.8 0 00-.19-1.44z"/><path d="M12.28 66.63a7.89 7.89 0 00-1.19 0h-.76c.28.08.18.07-.3 0s-.71 0-1.07 0h-.61c-.21 0-.2 0 0 0h-.23A18.1 18.1 0 016 66.16c-.72-.22-1.43-.52-2.15-.73a1.7 1.7 0 00-2 1 1.74 1.74 0 00.69 2.11 9.66 9.66 0 005.23 1.57 11.89 11.89 0 002.73-.15 6.82 6.82 0 002.47-.87 1.32 1.32 0 00-.66-2.44z"/><path d="M4 68.35C2.87 70.23 4 73 5 74.68a15.69 15.69 0 004.19 4.73 20.08 20.08 0 006 3 23.15 23.15 0 003.38.83 17.33 17.33 0 003.67.15 1.27 1.27 0 00.32-2.39c-1-.31-2.07-.64-3.12-.89s-2-.47-3-.76a18.32 18.32 0 01-5.27-2.49 12.65 12.65 0 01-3.39-3.59 11 11 0 01-1-2.17 10.71 10.71 0 00-1-2.7 1.06 1.06 0 00-1.8 0z"/><path d="M20.88 82.29a2.07 2.07 0 00-1.88 0 13.37 13.37 0 01-1.66.4 19.9 19.9 0 01-3 .42A25.33 25.33 0 018 82.56a1.52 1.52 0 00-1.77.87 1.49 1.49 0 00.61 1.87A12.33 12.33 0 0011 86.51a16.39 16.39 0 004-.07 14 14 0 004-1.06 7 7 0 001.87-1 1.29 1.29 0 00.06-2.08z"/><path d="M8.36 85c.24 1.7 1.57 3.2 2.7 4.42a22.85 22.85 0 004 3.4 21.68 21.68 0 009.75 3.58 1.61 1.61 0 001.38-.79 1.44 1.44 0 00.16-1.23 1.6 1.6 0 00-1.12-1.12 22.16 22.16 0 01-8.54-3.23 21.48 21.48 0 01-3.47-2.78 26.42 26.42 0 00-3.36-3.41c-.86-.54-1.61.39-1.5 1.16z"/><path d="M24.5 94.19a13 13 0 01-3.4 4.48 12.39 12.39 0 01-1 .76 16.84 16.84 0 01-1.49.85 23.51 23.51 0 01-2.93 1.26c-2.27.81-4.61 1.47-6.93 2.14-1.21.35-2.43.69-3.63 1.08-.62.2-1.24.4-1.85.62a3.93 3.93 0 00-2.07 1.32l.58-.57a8.08 8.08 0 01-1.07.51 1.39 1.39 0 00.7 2.57c.23 0 .47-.07.71-.08s.52.07.82.06a11.09 11.09 0 001.8-.3c1.07-.25 2.13-.52 3.19-.83 2.06-.58 4.1-1.25 6.13-1.93 3.69-1.22 7.57-2.69 10.23-5.67a9.55 9.55 0 002.68-5.61 1.31 1.31 0 00-2.43-.66z"/></g></g></svg>